<?xml version="1.0" encoding="UTF-8" standalone="no"?>
<!-- Created with Inkscape (http://www.inkscape.org/) -->

<svg
   version="1.1"
   id="svg1149"
   xml:space="preserve"
   width="682.66669"
   height="682.66669"
   viewBox="0 0 682.66669 682.66669"
   xmlns="http://www.w3.org/2000/svg"
   xmlns:svg="http://www.w3.org/2000/svg"><defs
     id="defs1153"><clipPath
       clipPathUnits="userSpaceOnUse"
       id="clipPath1167"><path
         d="M 0,512 H 512 V 0 H 0 Z"
         id="path1165" /></clipPath></defs><g
     id="g1155"
     transform="matrix(1.3333333,0,0,-1.3333333,0,682.66667)"><g
       id="g1157"
       transform="translate(163.5703,163.5698)"><path
         d="M 0,0 -59.41,-59.41"
         style="fill:none;stroke:#000000;stroke-width:15;stroke-linecap:round;stroke-linejoin:round;stroke-miterlimit:10;stroke-dasharray:none;stroke-opacity:1"
         id="path1159" /></g><g
       id="g1161"><g
         id="g1163"
         clip-path="url(#clipPath1167)"><g
           id="g1169"
           transform="translate(104.1592,58.1973)"><path
             d="m 0,0 c 12.692,12.692 12.692,33.27 0,45.962 -12.692,12.692 -33.27,12.692 -45.962,0 C -58.654,33.27 -58.654,12.692 -45.962,0 -33.27,-12.692 -12.692,-12.692 0,0 Z"
             style="fill:none;stroke:#000000;stroke-width:15;stroke-linecap:round;stroke-linejoin:round;stroke-miterlimit:10;stroke-dasharray:none;stroke-opacity:1"
             id="path1171" /></g><g
           id="g1173"
           transform="translate(42.7402,170.02)"><path
             d="m 0,0 8.84,8.84 c 1.65,1.65 4.019,2.37 6.32,1.91 L 60.85,1.61 c 2.29,-0.46 4.66,0.26 6.32,1.92 l 27.16,27.16"
             style="fill:none;stroke:#000000;stroke-width:15;stroke-linecap:round;stroke-linejoin:round;stroke-miterlimit:10;stroke-dasharray:none;stroke-opacity:1"
             id="path1175" /></g><g
           id="g1177"
           transform="translate(170.0195,42.7402)"><path
             d="m 0,0 8.841,8.84 c 1.649,1.65 2.37,4.02 1.909,6.32 L 1.61,60.85 c -0.46,2.29 0.26,4.66 1.92,6.32 l 27.75,27.75"
             style="fill:none;stroke:#000000;stroke-width:15;stroke-linecap:round;stroke-linejoin:round;stroke-miterlimit:10;stroke-dasharray:none;stroke-opacity:1"
             id="path1179" /></g><g
           id="g1181"
           transform="translate(170.0225,13.5469)"><path
             d="m 0,0 c 8.063,8.063 8.063,21.134 0,29.197 -8.063,8.062 -21.134,8.062 -29.196,0 C -37.259,21.134 -37.259,8.063 -29.196,0 -21.134,-8.063 -8.063,-8.063 0,0 Z"
             style="fill:none;stroke:#000000;stroke-width:15;stroke-linecap:round;stroke-linejoin:round;stroke-miterlimit:10;stroke-dasharray:none;stroke-opacity:1"
             id="path1183" /></g><g
           id="g1185"
           transform="translate(42.7432,140.8262)"><path
             d="m 0,0 c 8.063,8.063 8.063,21.134 0,29.197 -8.063,8.062 -21.134,8.062 -29.196,0 C -37.259,21.134 -37.259,8.063 -29.196,0 -21.134,-8.063 -8.063,-8.063 0,0 Z"
             style="fill:none;stroke:#000000;stroke-width:15;stroke-linecap:round;stroke-linejoin:round;stroke-miterlimit:10;stroke-dasharray:none;stroke-opacity:1"
             id="path1187" /></g><g
           id="g1189"
           transform="translate(407.8398,407.8398)"><path
             d="M 0,0 -59.41,-59.41"
             style="fill:none;stroke:#000000;stroke-width:15;stroke-linecap:round;stroke-linejoin:round;stroke-miterlimit:10;stroke-dasharray:none;stroke-opacity:1"
             id="path1191" /></g><g
           id="g1193"
           transform="translate(407.8408,453.8027)"><path
             d="m 0,0 c -12.692,-12.692 -12.692,-33.27 0,-45.962 12.692,-12.692 33.27,-12.692 45.962,0 12.692,12.692 12.692,33.27 0,45.962 C 33.27,12.692 12.692,12.692 0,0 Z"
             style="fill:none;stroke:#000000;stroke-width:15;stroke-linecap:round;stroke-linejoin:round;stroke-miterlimit:10;stroke-dasharray:none;stroke-opacity:1"
             id="path1195" /></g><g
           id="g1197"
           transform="translate(374.9297,311.29)"><path
             d="m 0,0 27.16,27.16 c 1.66,1.66 4.03,2.38 6.32,1.92 l 45.69,-9.14 c 2.301,-0.46 4.67,0.26 6.32,1.91 l 8.84,8.84"
             style="fill:none;stroke:#000000;stroke-width:15;stroke-linecap:round;stroke-linejoin:round;stroke-miterlimit:10;stroke-dasharray:none;stroke-opacity:1"
             id="path1199" /></g><g
           id="g1201"
           transform="translate(310.7002,374.3398)"><path
             d="m 0,0 27.75,27.75 c 1.66,1.66 2.38,4.03 1.92,6.32 l -9.14,45.69 c -0.461,2.3 0.26,4.67 1.909,6.32 l 8.841,8.84"
             style="fill:none;stroke:#000000;stroke-width:15;stroke-linecap:round;stroke-linejoin:round;stroke-miterlimit:10;stroke-dasharray:none;stroke-opacity:1"
             id="path1203" /></g><g
           id="g1205"
           transform="translate(341.9775,498.4531)"><path
             d="m 0,0 c -8.063,-8.063 -8.063,-21.134 0,-29.197 8.063,-8.062 21.134,-8.062 29.196,0 8.063,8.063 8.063,21.134 0,29.197 C 21.134,8.063 8.063,8.063 0,0 Z"
             style="fill:none;stroke:#000000;stroke-width:15;stroke-linecap:round;stroke-linejoin:round;stroke-miterlimit:10;stroke-dasharray:none;stroke-opacity:1"
             id="path1207" /></g><g
           id="g1209"
           transform="translate(469.2568,371.1738)"><path
             d="m 0,0 c -8.063,-8.063 -8.063,-21.134 0,-29.197 8.063,-8.062 21.134,-8.062 29.196,0 8.063,8.063 8.063,21.134 0,29.197 C 21.134,8.063 8.063,8.063 0,0 Z"
             style="fill:none;stroke:#000000;stroke-width:15;stroke-linecap:round;stroke-linejoin:round;stroke-miterlimit:10;stroke-dasharray:none;stroke-opacity:1"
             id="path1211" /></g><g
           id="g1213"
           transform="translate(407.8398,104.1602)"><path
             d="M 0,0 -59.41,59.41"
             style="fill:none;stroke:#000000;stroke-width:15;stroke-linecap:round;stroke-linejoin:round;stroke-miterlimit:10;stroke-dasharray:none;stroke-opacity:1"
             id="path1215" /></g><g
           id="g1217"
           transform="translate(453.8027,104.1592)"><path
             d="m 0,0 c -12.692,12.692 -33.27,12.692 -45.962,0 -12.692,-12.692 -12.692,-33.27 0,-45.962 12.692,-12.692 33.27,-12.692 45.962,0 C 12.692,-33.27 12.692,-12.692 0,0 Z"
             style="fill:none;stroke:#000000;stroke-width:15;stroke-linecap:round;stroke-linejoin:round;stroke-miterlimit:10;stroke-dasharray:none;stroke-opacity:1"
             id="path1219" /></g><g
           id="g1221"
           transform="translate(310.7002,137.6602)"><path
             d="m 0,0 27.75,-27.75 c 1.66,-1.66 2.38,-4.03 1.92,-6.32 l -9.14,-45.69 c -0.461,-2.3 0.26,-4.67 1.909,-6.32 l 21.67,-21.67"
             style="fill:none;stroke:#000000;stroke-width:15;stroke-linecap:round;stroke-linejoin:round;stroke-miterlimit:10;stroke-dasharray:none;stroke-opacity:1"
             id="path1223" /></g><g
           id="g1225"
           transform="translate(374.9297,200.71)"><path
             d="m 0,0 27.16,-27.16 c 1.66,-1.66 4.03,-2.38 6.32,-1.92 l 45.69,9.14 c 2.301,0.46 4.67,-0.26 6.32,-1.91 l 8.84,-8.84"
             style="fill:none;stroke:#000000;stroke-width:15;stroke-linecap:round;stroke-linejoin:round;stroke-miterlimit:10;stroke-dasharray:none;stroke-opacity:1"
             id="path1227" /></g><g
           id="g1229"
           transform="translate(498.4531,170.0229)"><path
             d="m 0,0 c -8.063,8.062 -21.134,8.062 -29.196,0 -8.063,-8.063 -8.063,-21.134 0,-29.197 8.062,-8.062 21.133,-8.062 29.196,0 C 8.063,-21.134 8.063,-8.063 0,0 Z"
             style="fill:none;stroke:#000000;stroke-width:15;stroke-linecap:round;stroke-linejoin:round;stroke-miterlimit:10;stroke-dasharray:none;stroke-opacity:1"
             id="path1231" /></g><g
           id="g1233"
           transform="translate(371.1738,42.7437)"><path
             d="m 0,0 c -8.063,8.063 -21.134,8.063 -29.196,0 -8.063,-8.063 -8.063,-21.134 0,-29.197 8.062,-8.062 21.133,-8.062 29.196,0 C 8.063,-21.134 8.063,-8.063 0,0 Z"
             style="fill:none;stroke:#000000;stroke-width:15;stroke-linecap:round;stroke-linejoin:round;stroke-miterlimit:10;stroke-dasharray:none;stroke-opacity:1"
             id="path1235" /></g><g
           id="g1237"
           transform="translate(163.5703,348.4302)"><path
             d="M 0,0 -59.41,59.41"
             style="fill:none;stroke:#000000;stroke-width:15;stroke-linecap:round;stroke-linejoin:round;stroke-miterlimit:10;stroke-dasharray:none;stroke-opacity:1"
             id="path1239" /></g><g
           id="g1241"
           transform="translate(58.1973,407.8408)"><path
             d="m 0,0 c 12.692,-12.692 33.27,-12.692 45.962,0 12.692,12.692 12.692,33.27 0,45.962 C 33.27,58.654 12.692,58.654 0,45.962 -12.692,33.27 -12.692,12.692 0,0 Z"
             style="fill:none;stroke:#000000;stroke-width:15;stroke-linecap:round;stroke-linejoin:round;stroke-miterlimit:10;stroke-dasharray:none;stroke-opacity:1"
             id="path1243" /></g><g
           id="g1245"
           transform="translate(170.0195,469.2598)"><path
             d="m 0,0 8.841,-8.84 c 1.649,-1.65 2.37,-4.02 1.909,-6.32 L 1.61,-60.85 c -0.46,-2.29 0.26,-4.66 1.92,-6.32 l 27.75,-27.75"
             style="fill:none;stroke:#000000;stroke-width:15;stroke-linecap:round;stroke-linejoin:round;stroke-miterlimit:10;stroke-dasharray:none;stroke-opacity:1"
             id="path1247" /></g><g
           id="g1249"
           transform="translate(42.7402,341.98)"><path
             d="m 0,0 8.84,-8.84 c 1.65,-1.65 4.019,-2.37 6.32,-1.91 l 45.69,9.14 c 2.29,0.46 4.66,-0.26 6.32,-1.92 l 27.16,-27.16"
             style="fill:none;stroke:#000000;stroke-width:15;stroke-linecap:round;stroke-linejoin:round;stroke-miterlimit:10;stroke-dasharray:none;stroke-opacity:1"
             id="path1251" /></g><g
           id="g1253"
           transform="translate(13.5469,341.9771)"><path
             d="m 0,0 c 8.063,-8.062 21.134,-8.062 29.196,0 8.063,8.063 8.063,21.134 0,29.197 C 21.134,37.259 8.063,37.259 0,29.197 -8.063,21.134 -8.063,8.063 0,0 Z"
             style="fill:none;stroke:#000000;stroke-width:15;stroke-linecap:round;stroke-linejoin:round;stroke-miterlimit:10;stroke-dasharray:none;stroke-opacity:1"
             id="path1255" /></g><g
           id="g1257"
           transform="translate(140.8262,469.2563)"><path
             d="m 0,0 c 8.063,-8.063 21.134,-8.063 29.196,0 8.063,8.063 8.063,21.134 0,29.197 C 21.134,37.259 8.063,37.259 0,29.197 -8.063,21.134 -8.063,8.063 0,0 Z"
             style="fill:none;stroke:#000000;stroke-width:15;stroke-linecap:round;stroke-linejoin:round;stroke-miterlimit:10;stroke-dasharray:none;stroke-opacity:1"
             id="path1259" /></g><g
           id="g1261"
           transform="translate(271.833,385.2358)"><path
             d="m 0,0 c 65.003,-7.771 115.542,-62.766 115.542,-129.236 0,-71.779 -58.935,-130.176 -131.375,-130.176 -72.44,0 -131.375,58.397 -131.375,130.176 0,65.318 48.802,119.554 112.174,128.79"
             style="fill:none;stroke:#000000;stroke-width:15;stroke-linecap:round;stroke-linejoin:round;stroke-miterlimit:10;stroke-dasharray:none;stroke-opacity:1"
             id="path1263" /></g><g
           id="g1265"
           transform="translate(315.9268,179.606)"><path
             d="m 0,0 c -16.556,-12.69 -37.349,-20.245 -59.927,-20.245 -54.034,0 -97.837,43.267 -97.837,96.639 0,53.372 43.803,96.639 97.837,96.639 54.034,0 97.837,-43.267 97.837,-96.639 0,-18.529 -5.279,-35.84 -14.433,-50.546"
             style="fill:none;stroke:#000000;stroke-width:15;stroke-linecap:round;stroke-linejoin:round;stroke-miterlimit:10;stroke-dasharray:none;stroke-opacity:1"
             id="path1267" /></g><g
           id="g1269"
           transform="translate(256,320.8955)"><path
             d="M 0,0 V -129.791"
             style="fill:none;stroke:#000000;stroke-width:15;stroke-linecap:round;stroke-linejoin:round;stroke-miterlimit:10;stroke-dasharray:none;stroke-opacity:1"
             id="path1271" /></g><g
           id="g1273"
           transform="translate(227.5713,224.4092)"><path
             d="m 0,0 c 0,-10.468 7.637,-18.955 17.057,-18.955 h 22.744 c 9.42,0 17.056,8.487 17.056,18.955 v 12.637 c 0,10.468 -7.636,18.955 -17.057,18.954 H 17.058 C 7.637,31.591 0,40.077 0,50.545 V 63.182 C 0,73.65 7.637,82.136 17.057,82.136 h 22.744 c 9.42,0 17.056,-8.486 17.056,-18.954"
             style="fill:none;stroke:#000000;stroke-width:15;stroke-linecap:round;stroke-linejoin:round;stroke-miterlimit:10;stroke-dasharray:none;stroke-opacity:1"
             id="path1275" /></g></g></g></g></svg>
