<svg width="100" height="100" viewBox="0 0 100 100" fill="none" xmlns="http://www.w3.org/2000/svg">
<mask id="mask0_1125_29992" style="mask-type:alpha" maskUnits="userSpaceOnUse" x="0" y="0" width="100" height="100">
<circle cx="50" cy="50" r="50" fill="white"/>
</mask>
<g mask="url(#mask0_1125_29992)">
<path d="M62.7746 62.5213V88.3333H81.1903V37.0353C81.2202 36.6204 81.25 36.2055 81.25 35.7907C81.25 18.7802 67.2517 5 50 5C32.7483 5 18.75 18.7802 18.75 35.7907V88.3333H37.1657V62.3435C39.0759 67.5296 44.1201 71.234 50 71.234C55.7605 71.234 60.6853 67.7074 62.7149 62.6991L62.7746 62.5213ZM50 44.0884C44.15 44.0884 39.1655 47.7335 37.2254 52.8604V35.8203C37.2254 28.7968 42.9561 23.1366 50 23.1366C57.0439 23.1366 62.7746 28.8265 62.7746 35.8203V52.89C60.8345 47.7335 55.85 44.0884 50 44.0884Z" fill="#5679EF"/>
</g>
</svg>
