<svg width="100" height="100" viewBox="0 0 100 100" fill="none" xmlns="http://www.w3.org/2000/svg">
<mask id="mask0_1606_27606" style="mask-type:alpha" maskUnits="userSpaceOnUse" x="0" y="0" width="100" height="100">
<circle cx="50" cy="50" r="50" fill="#71E0EC"/>
</mask>
<g mask="url(#mask0_1606_27606)">
<circle cx="50" cy="50" r="50" fill="#71E0EC"/>
<path d="M86.6894 39.0633C83.5035 39.2955 76.2263 40.1944 74.1448 40.4955C72.1111 29.2796 66.4716 21.302 58.2432 19.4227C41.48 15.5823 24.5655 38.0914 13 79.6047L21.6383 82C32.7501 42.1125 47.3065 26.1014 56.2433 28.1442C60.3307 29.0774 63.8648 34.1822 65.3135 42.1167C43.9495 47.0107 39.506 56.3171 40.0054 63.9162C40.4094 70.1304 43.7346 75.2525 49.1214 77.9662C54.5618 80.7055 61.1923 80.4819 66.006 77.4026C72.0594 73.528 72.9847 67.8814 73.5936 64.1441C73.5936 64.1441 74.7736 55.5818 74.8692 52.0896C71.5022 52.5841 68.4039 53.2036 65.8428 53.8915C65.6916 56.2826 64.7483 62.7034 64.7483 62.7034C64.1792 66.1826 63.7315 68.234 61.1664 69.8767C59.0372 71.24 55.7439 71.2874 53.1609 69.9844C51.3799 69.0855 49.199 67.2062 48.9502 63.3356C48.6099 58.1018 54.6733 53.8529 66.006 51.1048C66.0458 51.1006 66.0717 51.0833 66.1095 51.0748C74.3219 49.1997 87.551 47.9611 87.551 47.9611L86.6894 39.0633Z" fill="black"/>
</g>
</svg>
