<svg width="100" height="100" viewBox="0 0 100 100" fill="none" xmlns="http://www.w3.org/2000/svg">
<mask id="mask0_1125_30777" style="mask-type:alpha" maskUnits="userSpaceOnUse" x="0" y="0" width="100" height="100">
<circle cx="50" cy="50" r="50" fill="white"/>
</mask>
<g mask="url(#mask0_1125_30777)">
<path d="M19.541 36.0281C18.4159 37.3454 16.6157 38.3844 14.8155 38.236C14.5904 36.4548 15.4718 34.5623 16.5032 33.3934C17.6283 32.039 19.5973 31.0742 21.1912 31C21.3787 32.8554 20.6474 34.6736 19.541 36.0281ZM21.1724 38.5885C18.5659 38.4401 16.3344 40.0542 15.0968 40.0542C13.8404 40.0542 11.9464 38.6627 9.88366 38.6998C7.2021 38.7369 4.70806 40.2398 3.33916 42.6332C0.526334 47.4201 2.60782 54.5076 5.32688 58.4039C6.65829 60.3335 8.25222 62.4486 10.3525 62.3744C12.3402 62.3002 13.1278 61.0942 15.5281 61.0942C17.9471 61.0942 18.6409 62.3744 20.7411 62.3373C22.9164 62.3002 24.2853 60.4077 25.6167 58.4781C27.1356 56.2888 27.7545 54.1551 27.792 54.0438C27.7545 54.0067 23.5915 52.4296 23.554 47.6798C23.5165 43.7093 26.8356 41.8168 26.9856 41.7055C25.1104 38.9596 22.1851 38.6627 21.1724 38.5885ZM36.2304 33.2079V62.1332H40.7684V52.2441H47.0504C52.7886 52.2441 56.8203 48.3478 56.8203 42.7074C56.8203 37.0671 52.8636 33.2079 47.2004 33.2079H36.2304ZM40.7684 36.9929H46.0003C49.9382 36.9929 52.1885 39.0709 52.1885 42.726C52.1885 46.3811 49.9382 48.4776 45.9815 48.4776H40.7684V36.9929ZM65.1087 62.3559C67.9591 62.3559 70.6031 60.9272 71.8032 58.6637H71.897V62.1332H76.0975V47.7355C76.0975 43.5609 72.7221 40.8706 67.5278 40.8706C62.7085 40.8706 59.1455 43.598 59.0143 47.3459H63.1023C63.4398 45.5647 65.1087 44.3958 67.3965 44.3958C70.1718 44.3958 71.7282 45.676 71.7282 48.0324V49.628L66.0651 49.9619C60.7957 50.2774 57.9454 52.411 57.9454 56.1218C57.9454 59.8696 60.8895 62.3559 65.1087 62.3559ZM66.3276 58.9234C63.9086 58.9234 62.3709 57.7731 62.3709 56.0105C62.3709 54.1922 63.8523 53.1346 66.6839 52.9676L71.7282 52.6522V54.285C71.7282 56.9938 69.403 58.9234 66.3276 58.9234ZM81.7044 70C86.1299 70 88.2114 68.3302 90.0303 63.265L98 41.1489H93.387L88.0426 58.2369H87.9488L82.6045 41.1489H77.8602L85.5486 62.2074L85.136 63.4876C84.4422 65.6584 83.3171 66.4933 81.3106 66.4933C80.9543 66.4933 80.2605 66.4562 79.9792 66.4191V69.8887C80.2417 69.9629 81.3669 70 81.7044 70Z" fill="black"/>
</g>
</svg>
