<svg width="48" height="48" viewBox="0 0 48 48" fill="none" xmlns="http://www.w3.org/2000/svg">
<mask id="mask0_1201_3453" style="mask-type:alpha" maskUnits="userSpaceOnUse" x="0" y="0" width="48" height="48">
<circle cx="24" cy="24" r="24" fill="white"/>
</mask>
<g mask="url(#mask0_1201_3453)">
<path d="M15.8755 34.0554C16.9585 32.1136 19.4525 27.7447 21.8139 23.6186C22.8294 25.371 23.7629 26.9802 24.3442 28.0068C25.309 29.7205 26.7731 32.2981 29.6941 32.2981C32.3787 32.2981 34.2433 30.2375 34.2433 27.2642V13.6721C34.2433 10.6989 32.3787 8.64062 29.6941 8.64062C26.7731 8.64062 25.3163 11.2183 24.3466 12.9245L21.8308 17.325C21.4545 16.6648 21.0855 16.0168 20.7406 15.4075C18.9267 12.2304 15.3689 12.211 13.5478 15.4075C12.3418 17.5362 7.29577 26.3297 4.79688 30.7228H8.41496C10.0069 27.8831 14.9709 19.1793 15.9888 17.4221C16.7124 16.1624 17.588 16.1624 18.2803 17.4221C18.7892 18.3395 19.3922 19.4026 20.029 20.507C17.4023 25.0919 14.3149 30.4874 12.9327 32.8854C11.2443 35.8272 12.899 38.8806 16.1625 38.8806H42.7169V35.7325H16.6401C15.6656 35.7325 15.422 34.8564 15.8755 34.0554ZM27.0578 14.4974C28.2976 12.3129 28.8257 11.7959 29.6941 11.7959C30.601 11.7959 31.1173 12.4148 31.1173 13.6842V27.2763C31.1173 28.5457 30.601 29.1623 29.6941 29.1623C28.8257 29.1623 28.2999 28.6452 27.0578 26.4657C26.3077 25.138 25.0003 22.871 23.6277 20.473C25.4103 17.3614 26.8431 14.8833 27.0578 14.4974Z" fill="#FF4616"/>
</g>
</svg>
