<?xml version="1.0" encoding="UTF-8"?>
<svg id="Layer_1" data-name="Layer 1" xmlns="http://www.w3.org/2000/svg" xmlns:xlink="http://www.w3.org/1999/xlink" viewBox="0 0 99.21 79.12">
  <defs>
    <style>
      .cls-1 {
        mask: url(#mask);
      }

      .cls-2 {
        fill: #ff4616;
      }
    </style>
    <mask id="mask" x="-12.55" y="-22.61" width="125.59" height="125.59" maskUnits="userSpaceOnUse"/>
  </defs>
  <g class="cls-1">
    <path class="cls-2" d="M28.99,66.49c2.83-5.08,9.36-16.51,15.54-27.31,2.66,4.58,5.1,8.8,6.62,11.48,2.52,4.48,6.35,11.23,14,11.23,7.02,0,11.9-5.39,11.9-13.17V13.16c0-7.78-4.88-13.16-11.9-13.16-7.64,0-11.45,6.74-13.99,11.21l-6.58,11.51c-.98-1.73-1.95-3.42-2.85-5.02-4.75-8.31-14.05-8.36-18.82,0C19.74,23.27,6.54,46.28,0,57.78H9.47c4.17-7.43,17.15-30.2,19.82-34.8,1.89-3.3,4.18-3.3,6,0,1.33,2.4,2.91,5.18,4.58,8.07-6.87,12-14.95,26.11-18.57,32.39-4.42,7.7-.09,15.69,8.45,15.69H99.21v-8.24H30.99c-2.55,0-3.19-2.29-2-4.39ZM58.24,15.32c3.24-5.72,4.63-7.07,6.9-7.07s3.72,1.62,3.72,4.94V48.76c0,3.32-1.35,4.93-3.72,4.93s-3.65-1.35-6.9-7.06c-1.96-3.47-5.38-9.41-8.97-15.68,4.66-8.14,8.41-14.62,8.97-15.63Z"/>
  </g>
</svg>