<svg width="100" height="100" viewBox="0 0 100 100" fill="none" xmlns="http://www.w3.org/2000/svg">
<mask id="mask0_1627_27575" style="mask-type:alpha" maskUnits="userSpaceOnUse" x="0" y="0" width="100" height="100">
<circle cx="50" cy="50" r="50" fill="white"/>
</mask>
<g mask="url(#mask0_1627_27575)">
<path fill-rule="evenodd" clip-rule="evenodd" d="M30.1817 14.0469C32.8607 14.0469 35.1034 16.2402 35.054 18.9191L34.2628 45.7897C31.1548 47.4585 27.7571 50.888 25.2812 56.7597L25.3095 18.9191C25.3113 16.2402 27.5028 14.0469 30.1817 14.0469Z" fill="#008DCE" stroke="#008DCE" stroke-width="0.211709"/>
<path fill-rule="evenodd" clip-rule="evenodd" d="M45.91 4.99999C48.5907 4.99999 50.837 6.62819 50.7822 8.61664L50.2366 21.3561L38.1328 38.9449C40.7782 29.4794 40.7623 17.5258 41.0395 8.61664C41.1014 6.62819 43.2311 4.99999 45.91 4.99999Z" fill="#008DCE" stroke="#008DCE" stroke-width="0.211709"/>
<path fill-rule="evenodd" clip-rule="evenodd" d="M58.5233 9.11819C65.9526 -1.16134 75.2132 11.1949 68.8787 16.219L51.7562 40.8398C42.5486 40.7285 33.3498 43.1461 27.8789 51.9811C40.4524 37.3044 47.9082 24.1463 58.5233 9.11819Z" fill="#102A83"/>
<path fill-rule="evenodd" clip-rule="evenodd" d="M50.267 57.1588C56.529 57.1588 61.6061 62.2341 61.6061 68.4961C61.6061 74.7581 56.529 79.8334 50.267 79.8334C44.005 79.8334 38.9297 74.7581 38.9297 68.4961C38.9297 62.2341 44.005 57.1588 50.267 57.1588Z" fill="#AA1921"/>
<path fill-rule="evenodd" clip-rule="evenodd" d="M70.4639 50.095C73.5119 55.3805 68.087 61.8597 61.2386 58.07C56.2516 51.0698 34.8961 49.1079 35.078 70.1226C35.4436 80.8524 44.9849 84.5962 52.6103 83.8192C60.1438 81.4917 66.5665 75.5899 64.5251 66.6207C64.7158 58.591 75.6699 58.3049 76.8531 65.1885C80.7382 104.403 21.5968 104.339 23.0255 68.4802C24.4541 32.6193 65.0231 37.2001 70.4639 50.095Z" fill="#102A83" stroke="#102A83" stroke-width="0.211709"/>
</g>
</svg>
