<svg width="100" height="100" viewBox="0 0 100 100" fill="none" xmlns="http://www.w3.org/2000/svg">
<mask id="mask0_1125_29919" style="mask-type:alpha" maskUnits="userSpaceOnUse" x="0" y="0" width="100" height="100">
<circle cx="50" cy="50" r="50" fill="white"/>
</mask>
<g mask="url(#mask0_1125_29919)">
<path fill-rule="evenodd" clip-rule="evenodd" d="M23.2305 35.9202C23.7092 37.8465 25.5763 38.8399 27.4732 38.1869C43.0248 33.2286 58.6149 29.8353 74.7005 27.367C76.544 27.1112 77.5528 25.1359 76.8749 23.1546C75.4469 18.9794 74.7248 16.8973 73.2652 12.7466C72.6456 10.9839 70.9693 9.82806 69.2537 10.021C53.5334 12.0291 38.3454 14.9951 23.1243 19.5637C21.1421 20.2084 19.9251 22.5083 20.4247 24.5485C21.537 29.0905 22.0984 31.3643 23.2305 35.9202Z" fill="#233684"/>
<path fill-rule="evenodd" clip-rule="evenodd" d="M86.6374 38.4739C86.0408 36.7685 84.4215 35.6286 82.8202 35.8295C58.4945 38.8005 34.8076 44.5622 12.3462 54.0848C10.7077 54.8273 9.7249 56.8018 10.0682 58.5419C10.949 62.9924 11.3931 65.2199 12.292 69.6787C12.6759 71.5853 14.5346 72.4633 16.3677 71.607C39.1833 61.5953 63.2937 55.2207 88.0278 51.4198C89.5997 51.173 90.4014 49.4471 89.7999 47.6687C88.554 43.9816 87.9209 42.1429 86.6374 38.4739Z" fill="#F3E04B"/>
<path fill-rule="evenodd" clip-rule="evenodd" d="M86.8059 64.2958C86.2066 62.5089 84.4557 61.343 82.792 61.6668C67.6985 64.7664 52.9454 68.502 38.3304 73.2552C36.477 73.8993 35.433 75.7501 35.9201 77.4526C37.0818 81.5088 37.6668 83.5401 38.8428 87.6091C39.3953 89.5205 41.662 90.4984 43.7499 89.7454C58.3594 84.7932 73.1158 80.4692 88.195 77.0025C89.6411 76.6698 90.3529 75.0645 89.8154 73.4084C88.6282 69.7555 88.0267 67.9327 86.8059 64.2958Z" fill="#E3322C"/>
</g>
</svg>
