<svg width="100" height="100" viewBox="0 0 100 100" fill="none" xmlns="http://www.w3.org/2000/svg">
<mask id="mask0_1125_30801" style="mask-type:alpha" maskUnits="userSpaceOnUse" x="0" y="0" width="100" height="100">
<circle cx="50" cy="50" r="50" fill="white"/>
</mask>
<g mask="url(#mask0_1125_30801)">
<path d="M87.5 75C87.5 75.663 87.2366 76.2989 86.7678 76.7678C86.2989 77.2366 85.663 77.5 85 77.5H15C14.337 77.5 13.7011 77.2366 13.2322 76.7678C12.7634 76.2989 12.5 75.663 12.5 75C12.5 74.3369 12.7634 73.7011 13.2322 73.2322C13.7011 72.7634 14.337 72.5 15 72.5H85C85.663 72.5 86.2989 72.7634 86.7678 73.2322C87.2366 73.7011 87.5 74.3369 87.5 75ZM15.0937 40.6875C14.9448 40.1635 14.971 39.6053 15.1684 39.0976C15.3658 38.5899 15.7237 38.1606 16.1875 37.875L48.6875 17.875C49.0808 17.6281 49.5357 17.4972 50 17.4972C50.4643 17.4972 50.9192 17.6281 51.3125 17.875L83.8125 37.875C84.2743 38.1612 84.6303 38.59 84.8266 39.0966C85.0229 39.6031 85.0489 40.1599 84.9006 40.6825C84.7523 41.2051 84.4377 41.6652 84.0046 41.9932C83.5714 42.3211 83.0433 42.499 82.5 42.5H75V62.5H80C80.663 62.5 81.2989 62.7634 81.7678 63.2322C82.2366 63.7011 82.5 64.3369 82.5 65C82.5 65.663 82.2366 66.2989 81.7678 66.7678C81.2989 67.2366 80.663 67.5 80 67.5H20C19.337 67.5 18.7011 67.2366 18.2322 66.7678C17.7634 66.2989 17.5 65.663 17.5 65C17.5 64.3369 17.7634 63.7011 18.2322 63.2322C18.7011 62.7634 19.337 62.5 20 62.5H25V42.5H17.5C16.9564 42.5006 16.4274 42.3239 15.9932 41.9969C15.559 41.6698 15.2432 41.2101 15.0937 40.6875ZM55 60C55 60.663 55.2634 61.2989 55.7322 61.7678C56.2011 62.2366 56.837 62.5 57.5 62.5C58.163 62.5 58.7989 62.2366 59.2678 61.7678C59.7366 61.2989 60 60.663 60 60V45C60 44.337 59.7366 43.7011 59.2678 43.2322C58.7989 42.7634 58.163 42.5 57.5 42.5C56.837 42.5 56.2011 42.7634 55.7322 43.2322C55.2634 43.7011 55 44.337 55 45V60ZM40 60C40 60.663 40.2634 61.2989 40.7322 61.7678C41.2011 62.2366 41.837 62.5 42.5 62.5C43.163 62.5 43.7989 62.2366 44.2678 61.7678C44.7366 61.2989 45 60.663 45 60V45C45 44.337 44.7366 43.7011 44.2678 43.2322C43.7989 42.7634 43.163 42.5 42.5 42.5C41.837 42.5 41.2011 42.7634 40.7322 43.2322C40.2634 43.7011 40 44.337 40 45V60Z" fill="#6C6F75"/>
</g>
</svg>
