<svg width="100" height="100" viewBox="0 0 100 100" fill="none" xmlns="http://www.w3.org/2000/svg">
<path fill-rule="evenodd" clip-rule="evenodd" d="M11.1562 30H15.4208V69.9079H11.1562V30Z" fill="black"/>
<path fill-rule="evenodd" clip-rule="evenodd" d="M16.7656 30H18.0842V69.9079H16.7656V30Z" fill="black"/>
<path fill-rule="evenodd" clip-rule="evenodd" d="M19.2227 30H21.5875V69.9079H19.2227V30Z" fill="black"/>
<path fill-rule="evenodd" clip-rule="evenodd" d="M23.875 30H25.1935V69.9079H23.875V30Z" fill="black"/>
<path fill-rule="evenodd" clip-rule="evenodd" d="M25.7578 30H26.7765V69.9079H25.7578V30Z" fill="black"/>
<path fill-rule="evenodd" clip-rule="evenodd" d="M7.91406 30H9.23566V69.9079H7.91406V30Z" fill="black"/>
<path fill-rule="evenodd" clip-rule="evenodd" d="M5 30H7.3648V69.9079H5V30Z" fill="black"/>
<path fill-rule="evenodd" clip-rule="evenodd" d="M33.8398 30H38.1044V69.9079H33.8398V30Z" fill="black"/>
<path fill-rule="evenodd" clip-rule="evenodd" d="M39.4492 30H40.7678V69.9079H39.4492V30Z" fill="black"/>
<path fill-rule="evenodd" clip-rule="evenodd" d="M41.9258 30H44.2906V69.9079H41.9258V30Z" fill="black"/>
<path fill-rule="evenodd" clip-rule="evenodd" d="M46.5742 30H47.8928V69.9079H46.5742V30Z" fill="black"/>
<path fill-rule="evenodd" clip-rule="evenodd" d="M48.4727 30H49.4914V69.9079H48.4727V30Z" fill="black"/>
<path fill-rule="evenodd" clip-rule="evenodd" d="M30.6133 30H31.9349V69.9079H30.6133V30Z" fill="black"/>
<path fill-rule="evenodd" clip-rule="evenodd" d="M27.6992 30H30.064V69.9079H27.6992V30Z" fill="black"/>
<path fill-rule="evenodd" clip-rule="evenodd" d="M51.1523 30H53.5171V69.9079H51.1523V30Z" fill="black"/>
<path fill-rule="evenodd" clip-rule="evenodd" d="M55.7891 30H57.1107V69.9079H55.7891V30Z" fill="black"/>
<path fill-rule="evenodd" clip-rule="evenodd" d="M57.6875 30H58.7032V69.9079H57.6875V30Z" fill="black"/>
<path fill-rule="evenodd" clip-rule="evenodd" d="M62.5234 30H63.845V69.9079H62.5234V30Z" fill="black"/>
<path fill-rule="evenodd" clip-rule="evenodd" d="M59.6133 30H61.9781V69.9079H59.6133V30Z" fill="black"/>
<path fill-rule="evenodd" clip-rule="evenodd" d="M65.6133 30H66.9349V69.9079H65.6133V30Z" fill="black"/>
<path fill-rule="evenodd" clip-rule="evenodd" d="M67.5078 30H68.5265V69.9079H67.5078V30Z" fill="black"/>
<path fill-rule="evenodd" clip-rule="evenodd" d="M72.332 30H73.6506V69.9079H72.332V30Z" fill="black"/>
<path fill-rule="evenodd" clip-rule="evenodd" d="M69.418 30H71.7828V69.9079H69.418V30Z" fill="black"/>
<path fill-rule="evenodd" clip-rule="evenodd" d="M74.8047 30H79.0662V69.9079H74.8047V30Z" fill="black"/>
<path fill-rule="evenodd" clip-rule="evenodd" d="M80.4141 30H81.7357V69.9079H80.4141V30Z" fill="black"/>
<path fill-rule="evenodd" clip-rule="evenodd" d="M82.8867 30H85.2515V69.9079H82.8867V30Z" fill="black"/>
<path fill-rule="evenodd" clip-rule="evenodd" d="M87.5312 30H88.8528V69.9079H87.5312V30Z" fill="black"/>
<path fill-rule="evenodd" clip-rule="evenodd" d="M89.4219 30H90.4406V69.9079H89.4219V30Z" fill="black"/>
<path fill-rule="evenodd" clip-rule="evenodd" d="M92.1172 30H94.4789V69.9079H92.1172V30Z" fill="black"/>
<path fill-rule="evenodd" clip-rule="evenodd" d="M9.82812 70H91.5254V47.6338H9.82812V70Z" fill="white"/>
<path d="M11.3594 69.1427V48.9027H18.9524C20.5004 48.9027 21.7394 49.1077 22.6755 49.5176C23.6086 49.9276 24.3367 50.5578 24.866 51.4113C25.3983 52.2587 25.6614 53.1489 25.6614 54.082C25.6614 54.9417 25.4258 55.7585 24.9608 56.5202C24.4927 57.2851 23.786 57.9 22.8407 58.3711C24.0644 58.729 25.0067 59.3439 25.6614 60.2097C26.3222 61.0724 26.6495 62.0942 26.6495 63.272C26.6495 64.2234 26.4476 65.1045 26.0468 65.9183C25.6491 66.7351 25.1535 67.3592 24.5631 67.8028C23.9757 68.2402 23.2354 68.5767 22.3513 68.8031C21.461 69.0295 20.3719 69.1427 19.0809 69.1427H11.3594ZM14.0454 57.4105H18.4201C19.6071 57.4105 20.4606 57.3309 20.9746 57.1749C21.6568 56.973 22.1708 56.6334 22.5165 56.1623C22.8591 55.6912 23.0335 55.1038 23.0335 54.391C23.0335 53.718 22.8744 53.1245 22.5471 52.6166C22.2289 52.1027 21.7669 51.7478 21.1673 51.5612C20.5708 51.3715 19.5429 51.2767 18.0928 51.2767H14.0454V57.4105ZM14.0454 66.7657H19.087C19.9528 66.7657 20.5616 66.7351 20.9134 66.6678C21.5253 66.5607 22.0453 66.3771 22.4583 66.1171C22.8744 65.8571 23.2109 65.4808 23.4801 64.9852C23.7493 64.4927 23.8809 63.9206 23.8809 63.2751C23.8809 62.5194 23.6882 61.8617 23.2966 61.3019C22.9111 60.742 22.3727 60.3504 21.6874 60.124C21.0021 59.8977 20.014 59.7845 18.7291 59.7845H14.0454V66.7657Z" fill="black"/>
<path d="M29.0781 61.8075C29.0781 59.1001 29.8307 57.0932 31.345 55.7869C32.6024 54.704 34.1412 54.1625 35.9553 54.1625C37.9683 54.1625 39.6172 54.8202 40.896 56.1418C42.1748 57.4542 42.8142 59.2775 42.8142 61.5995C42.8142 63.484 42.5327 64.9647 41.9667 66.0415C41.4008 67.1215 40.5778 67.9597 39.4949 68.5593C38.415 69.1559 37.2341 69.4526 35.9553 69.4526C33.9026 69.4526 32.2444 68.7979 30.9779 67.4825C29.7114 66.17 29.0781 64.2764 29.0781 61.8075ZM31.6234 61.8106C31.6234 63.6859 32.0334 65.0901 32.8502 66.0201C33.6762 66.9501 34.7071 67.4182 35.9553 67.4182C37.1913 67.4182 38.2161 66.9501 39.0421 66.014C39.862 65.0779 40.2719 63.6492 40.2719 61.7311C40.2719 59.923 39.8559 58.5525 39.0329 57.6255C38.2069 56.6925 37.1821 56.2244 35.9553 56.2244C34.7071 56.2244 33.6762 56.6864 32.8502 57.6164C32.0334 58.5433 31.6234 59.9414 31.6234 61.8106Z" fill="black"/>
<path d="M45.668 69.1427V48.9027H48.1551V69.1427H45.668Z" fill="black"/>
<path d="M62.0259 64.3926L64.5957 64.7322C64.1949 66.2251 63.4485 67.3907 62.3532 68.2136C61.2611 69.0396 59.8661 69.4526 58.1651 69.4526C56.0267 69.4526 54.3319 68.7949 53.0776 67.4733C51.8264 66.1609 51.1992 64.31 51.1992 61.9299C51.1992 59.4703 51.8294 57.5582 53.099 56.203C54.3655 54.8416 56.0084 54.1625 58.0305 54.1625C59.9854 54.1625 61.5823 54.8263 62.8213 56.1602C64.0603 57.4909 64.6813 59.3663 64.6813 61.7831C64.6813 61.9299 64.6752 62.1502 64.666 62.4439H53.7445C53.8363 64.05 54.2891 65.2829 55.1089 66.1364C55.9227 66.9899 56.9476 67.4182 58.1651 67.4182C59.0768 67.4182 59.8538 67.1765 60.4932 66.6962C61.1387 66.2159 61.6466 65.4481 62.0259 64.3926ZM53.8852 60.4095H62.0534C61.9433 59.1735 61.6282 58.2496 61.1143 57.6347C60.328 56.6772 59.3001 56.1969 58.0428 56.1969C56.9047 56.1969 55.9472 56.5793 55.1701 57.341C54.3992 58.1058 53.9678 59.1276 53.8852 60.4095Z" fill="black"/>
<path d="M73.1294 66.9224L73.4689 69.119C72.7714 69.2658 72.1443 69.3392 71.5997 69.3392C70.6973 69.3392 70.0028 69.1985 69.5011 68.9109C69.0085 68.6234 68.6598 68.2501 68.4548 67.7851C68.2529 67.3201 68.155 66.3381 68.155 64.8452V56.3955H66.3164V54.4713H68.155V50.8461L70.6422 49.3531V54.4713H73.1294V56.3955H70.6422V64.9859C70.6422 65.6987 70.685 66.1546 70.7737 66.3565C70.8594 66.5614 71.0001 66.7205 71.199 66.8429C71.3948 66.9591 71.6793 67.0234 72.0464 67.0234C72.3187 67.0234 72.6827 66.9897 73.1294 66.9224Z" fill="black"/>
<path d="M74.6484 61.8075C74.6484 59.1001 75.4041 57.0932 76.9153 55.7869C78.1727 54.704 79.7146 54.1625 81.5256 54.1625C83.5386 54.1625 85.1876 54.8202 86.4694 56.1418C87.7451 57.4542 88.3875 59.2775 88.3875 61.5995C88.3875 63.484 88.103 64.9647 87.5371 66.0415C86.9711 67.1215 86.1482 67.9597 85.0652 68.5593C83.9853 69.1559 82.8044 69.4526 81.5256 69.4526C79.4729 69.4526 77.8148 68.7979 76.5482 67.4825C75.2817 66.17 74.6484 64.2764 74.6484 61.8075ZM77.1937 61.8106C77.1937 63.6859 77.6037 65.0901 78.4236 66.0201C79.2465 66.9501 80.2805 67.4182 81.5256 67.4182C82.7616 67.4182 83.7895 66.9501 84.6124 66.014C85.4323 65.0779 85.8422 63.6492 85.8422 61.7311C85.8422 59.923 85.4292 58.5525 84.6032 57.6255C83.7772 56.6925 82.7524 56.2244 81.5256 56.2244C80.2805 56.2244 79.2465 56.6864 78.4236 57.6164C77.6037 58.5433 77.1937 59.9414 77.1937 61.8106Z" fill="black"/>
</svg>
