<svg width="100" height="100" viewBox="0 0 100 100" fill="none" xmlns="http://www.w3.org/2000/svg">
<mask id="mask0_1125_30768" style="mask-type:alpha" maskUnits="userSpaceOnUse" x="0" y="0" width="100" height="100">
<circle cx="50" cy="50" r="50" fill="white"/>
</mask>
<g mask="url(#mask0_1125_30768)">
<path d="M80 25H20C18.6739 25 17.4021 25.5268 16.4645 26.4645C15.5268 27.4021 15 28.6739 15 30V40.2812V69.9688C15 71.2948 15.5268 72.5666 16.4645 73.5043C17.4021 74.442 18.6739 74.9688 20 74.9688H80C81.3261 74.9688 82.5979 74.442 83.5355 73.5043C84.4732 72.5666 85 71.2948 85 69.9688V30C85 28.6739 84.4732 27.4021 83.5355 26.4645C82.5979 25.5268 81.3261 25 80 25ZM52.5 65H47.5C46.837 65 46.2011 64.7366 45.7322 64.2678C45.2634 63.7989 45 63.163 45 62.5C45 61.837 45.2634 61.2011 45.7322 60.7322C46.2011 60.2634 46.837 60 47.5 60H52.5C53.163 60 53.7989 60.2634 54.2678 60.7322C54.7366 61.2011 55 61.837 55 62.5C55 63.163 54.7366 63.7989 54.2678 64.2678C53.7989 64.7366 53.163 65 52.5 65ZM72.5 65H62.5C61.837 65 61.2011 64.7366 60.7322 64.2678C60.2634 63.7989 60 63.163 60 62.5C60 61.837 60.2634 61.2011 60.7322 60.7322C61.2011 60.2634 61.837 60 62.5 60H72.5C73.163 60 73.7989 60.2634 74.2678 60.7322C74.7366 61.2011 75 61.837 75 62.5C75 63.163 74.7366 63.7989 74.2678 64.2678C73.7989 64.7366 73.163 65 72.5 65ZM20 37.7812V30H80V37.7812H20Z" fill="#6C6F75"/>
</g>
</svg>
