<svg width="100" height="100" viewBox="0 0 100 100" fill="none" xmlns="http://www.w3.org/2000/svg">
<mask id="mask0_1125_30771" style="mask-type:alpha" maskUnits="userSpaceOnUse" x="0" y="0" width="100" height="100">
<circle cx="50" cy="50" r="50" fill="white"/>
</mask>
<g mask="url(#mask0_1125_30771)">
<path d="M82.5 27.5H17.5C16.1739 27.5 14.9021 28.0268 13.9645 28.9645C13.0268 29.9021 12.5 31.1739 12.5 32.5V67.5C12.5 68.8261 13.0268 70.0979 13.9645 71.0355C14.9021 71.9732 16.1739 72.5 17.5 72.5H82.5C83.8261 72.5 85.0979 71.9732 86.0355 71.0355C86.9732 70.0979 87.5 68.8261 87.5 67.5V32.5C87.5 31.1739 86.9732 29.9021 86.0355 28.9645C85.0979 28.0268 83.8261 27.5 82.5 27.5ZM33.4375 67.5L17.5 53.8438V46.1562L33.4375 32.5H66.5625L82.5 46.1562V53.8438L66.5625 67.5H33.4375ZM62.5 50C62.5 52.4723 61.7669 54.889 60.3934 56.9446C59.0199 59.0002 57.0676 60.6024 54.7835 61.5485C52.4995 62.4946 49.9861 62.7421 47.5614 62.2598C45.1366 61.7775 42.9093 60.587 41.1612 58.8388C39.413 57.0907 38.2225 54.8634 37.7402 52.4386C37.2579 50.0139 37.5054 47.5005 38.4515 45.2165C39.3976 42.9324 40.9998 40.9801 43.0554 39.6066C45.111 38.2331 47.5277 37.5 50 37.5C53.3152 37.5 56.4946 38.817 58.8388 41.1612C61.183 43.5054 62.5 46.6848 62.5 50Z" fill="#6C6F75"/>
</g>
</svg>
