<svg width="100" height="100" viewBox="0 0 100 100" fill="none" xmlns="http://www.w3.org/2000/svg">
<mask id="mask0_1773_27575" style="mask-type:alpha" maskUnits="userSpaceOnUse" x="0" y="0" width="100" height="100">
<circle cx="50" cy="50" r="50" fill="white"/>
</mask>
<g mask="url(#mask0_1773_27575)">
<path d="M47.5104 98.8249C20.6436 96.7235 0.590337 73.1414 2.68084 46.2127C4.77134 19.284 28.2314 -0.951436 55.0207 1.14994C81.8875 3.25131 101.941 26.8334 99.8503 53.7621C97.9921 77.889 78.9453 97.0348 55.0207 98.8249C52.4657 99.0584 49.9881 99.0584 47.5104 98.8249ZM47.5104 2.47303C45.0328 2.23955 42.5552 2.23955 40.0775 2.47303C14.2173 6.52012 -3.51324 30.9583 0.590336 56.9531C4.69391 82.9479 28.9282 100.771 54.7885 96.6457C80.4939 92.5986 98.0695 68.3161 93.966 42.477C90.327 19.5175 70.7382 2.55086 47.5879 2.47303H47.5104Z" fill="url(#paint0_linear_1773_27575)"/>
<path d="M34.9632 94.9334C29.8531 95.0113 24.8204 93.5325 20.4846 90.7307C12.5097 84.8157 7.86416 75.2428 8.32872 65.2029C8.40614 52.9838 12.1226 41.076 18.9361 30.9583C25.5173 20.6071 35.0407 12.5129 46.19 7.68751C55.2488 3.40694 65.7787 3.87392 74.373 8.93278C90.0905 19.3618 90.7873 46.2127 75.8441 68.783C69.3403 79.1342 59.8944 87.2284 48.6676 92.0538C44.4092 93.8438 39.6862 94.7778 34.9632 94.9334ZM59.9718 6.36444C55.4811 6.36444 50.9904 7.29838 46.8094 9.01061C35.8149 13.836 26.6012 21.9302 20.3297 32.2814C13.826 42.0099 10.3418 53.4508 10.2644 65.1251C9.87724 74.6202 14.2131 83.6483 21.8008 89.252C29.9305 94.1552 39.9185 94.6221 48.5128 90.4972C59.5072 85.6718 68.7209 77.5776 74.9924 67.2264C89.3162 45.5122 88.8516 19.5953 73.831 9.71106C69.65 7.29838 64.8496 6.13096 59.9718 6.36444Z" fill="url(#paint1_linear_1773_27575)"/>
<path d="M65.0062 93.7661C53.4697 93.7661 37.0554 82.1697 25.7512 63.3351C19.4023 53.3731 15.4536 42.0101 14.2148 30.2579C12.434 22.0081 15.3762 13.5248 21.8799 8.15462C33.4164 0.838727 54.9408 13.5248 68.8775 36.4842C82.8141 59.4437 84.4401 84.1154 72.439 91.5091C70.1937 92.91 67.6386 93.6883 65.0062 93.7661ZM30.3968 7.76548C27.8417 7.60982 25.2867 8.23246 22.9639 9.47772C16.9247 14.3809 14.2148 22.3194 15.7633 29.9466C17.0795 41.4653 21.0283 52.5948 27.2998 62.3234C38.8362 80.3018 53.6246 91.9761 65.0062 91.9761C67.4838 92.0539 70.0388 91.4313 72.2068 90.1082C83.7432 83.1036 81.5753 59.4437 68.0258 37.2625C56.4893 19.2841 41.4687 7.60981 30.0871 7.60981L30.3968 7.76548Z" fill="url(#paint2_linear_1773_27575)"/>
<path d="M70.117 82.7921H68.0265C56.2577 81.8582 44.9536 78.2002 34.8882 71.9739C11.583 58.8209 -1.2697 37.5737 5.38892 25.4324C10.4216 18.7392 18.7836 15.3925 26.9907 16.8713C38.7595 17.8052 50.0637 21.541 60.129 27.6894C70.4267 33.2931 79.3307 41.2316 85.9893 50.9602C91.4865 57.42 92.8028 66.4481 89.4734 74.231C85.1376 80.3016 77.7047 83.6482 70.117 82.7921ZM35.4302 71.1957C45.4181 77.0328 56.5674 80.4573 68.0265 81.1577C75.6142 82.5586 83.4342 79.5233 88.1572 73.3748C91.0994 66.2146 89.7831 57.9648 84.8279 51.972C78.2467 42.3212 69.575 34.3827 59.4322 28.7012C49.5991 22.6306 38.4498 19.0505 26.9907 18.1165C19.3256 16.7934 11.583 19.9066 6.86002 26.1329C0.278815 37.7293 13.2089 57.4978 35.6625 70.4952L35.4302 71.1957Z" fill="url(#paint3_linear_1773_27575)"/>
</g>
<defs>
<linearGradient id="paint0_linear_1773_27575" x1="87.08" y1="19.9781" x2="10.8398" y2="81.1327" gradientUnits="userSpaceOnUse">
<stop offset="0.01" stop-color="white" stop-opacity="0"/>
<stop offset="0.3" stop-color="#FF4800"/>
<stop offset="0.93" stop-color="#FF4800"/>
</linearGradient>
<linearGradient id="paint1_linear_1773_27575" x1="86.5278" y1="49.8278" x2="8.1525" y2="49.8278" gradientUnits="userSpaceOnUse">
<stop stop-color="white" stop-opacity="0"/>
<stop offset="0.24" stop-color="#FF4800"/>
<stop offset="0.58" stop-color="#FF4800"/>
</linearGradient>
<linearGradient id="paint2_linear_1773_27575" x1="8.94811" y1="27.6485" x2="85.9937" y2="71.9078" gradientUnits="userSpaceOnUse">
<stop offset="0.36" stop-color="white" stop-opacity="0"/>
<stop offset="0.41" stop-color="white" stop-opacity="0"/>
<stop offset="1" stop-color="#FF4800"/>
</linearGradient>
<linearGradient id="paint3_linear_1773_27575" x1="27.4128" y1="69.3482" x2="67.7488" y2="30.4928" gradientUnits="userSpaceOnUse">
<stop offset="0.03" stop-color="white" stop-opacity="0"/>
<stop offset="0.19" stop-color="#FF4800"/>
<stop offset="1" stop-color="#FF4800"/>
</linearGradient>
</defs>
</svg>
