<svg width="100" height="100" viewBox="0 0 100 100" fill="none" xmlns="http://www.w3.org/2000/svg">
<mask id="mask0_1125_30522" style="mask-type:alpha" maskUnits="userSpaceOnUse" x="0" y="0" width="100" height="100">
<circle cx="50" cy="50" r="50" fill="white"/>
</mask>
<g mask="url(#mask0_1125_30522)">
<path d="M55.4894 68.2756V16.0001H42.6199V40.4864C27.2448 32.8558 11.4141 43.4476 11.4141 60.8727C11.4141 73.2867 18.4752 84.334 31.8003 83.9923C37.6087 83.8785 42.6199 80.9173 45.1254 75.4506V76.5895C45.3532 84.2201 53.3255 84.334 59.7034 82.8534L59.5895 74.5395C55.6033 74.9951 55.4894 72.6034 55.4894 68.2756ZM43.0754 62.5811C43.0754 67.9339 39.5448 72.6034 33.9642 72.6034C27.1309 72.6034 24.2836 67.1366 24.2836 60.7588C24.2836 49.7115 33.9643 45.8392 43.1893 51.1921V62.5811H43.0754Z" fill="black"/>
<path d="M88.9744 51.1919H76.2188V63.9475H88.9744V51.1919Z" fill="#482683"/>
</g>
</svg>
