<svg width="100" height="100" viewBox="0 0 100 100" fill="none" xmlns="http://www.w3.org/2000/svg">
<mask id="mask0_1606_27641" style="mask-type:alpha" maskUnits="userSpaceOnUse" x="0" y="0" width="100" height="100">
<circle cx="50" cy="50" r="50" fill="white"/>
</mask>
<g mask="url(#mask0_1606_27641)">
<circle cx="50" cy="50" r="50" fill="#FBEA20"/>
<path fill-rule="evenodd" clip-rule="evenodd" d="M3 97H97V3H3V97Z" fill="#FBEA20"/>
<path fill-rule="evenodd" clip-rule="evenodd" d="M36.6139 77.4217C36.9186 82.2079 40.633 84.4657 45.1949 83.3925C46.2037 83.1523 46.6835 82.7687 47.4361 82.5118L46.6357 80.495C45.483 80.8474 43.9944 81.8396 41.9132 81.1195C40.5368 80.6231 39.5758 79.4226 39.528 77.6294L47.8203 77.6134C47.8203 73.836 46.6835 70.1381 42.3293 70.1063C38.0713 70.0578 36.3903 73.6442 36.6139 77.4217ZM39.4962 75.5648C39.6395 73.82 40.4406 72.3626 42.2331 72.3467C43.9619 72.3467 44.8425 73.8519 44.8591 75.5648H39.4962ZM27.1058 82.3997L26.3055 80.5109C25.5529 80.7186 25.089 81.0877 24.1121 81.2635C21.567 81.6955 19.2615 80.5109 19.2137 77.6134H27.4901C27.4901 74.716 26.9778 71.3864 23.7438 70.3777C22.2552 69.8979 20.4302 70.0744 19.1978 70.8104C14.7155 73.4995 14.9398 83.7283 22.7994 83.6328C24.3046 83.6168 26.2252 83.2007 27.1058 82.3997ZM19.1653 75.5329C19.3737 73.8041 20.03 72.3786 21.871 72.3467C23.6475 72.3149 24.4964 73.7875 24.576 75.5648L19.1653 75.5329ZM49.293 77.2299C49.4688 84.8333 57.7293 84.4172 59.9545 82.3997C59.8742 82.0798 59.3141 80.6549 59.1216 80.4632C57.6012 81.0877 56.1119 81.7918 54.2717 80.8793C51.406 79.4703 51.6144 74.1392 54.5119 72.8113C55.6322 72.2989 57.1851 72.3467 58.3531 72.8431C58.7699 73.0356 59.0738 73.2433 59.4103 73.3873V70.9225C57.7134 70.2503 56.481 69.8016 54.3354 70.2821C51.1021 71.034 49.2286 73.9959 49.293 77.2299ZM30.1792 70.4261L30.211 67.5764C30.1792 66.5683 31.0917 64.9995 32.34 64.4227C33.4928 63.8945 35.6862 63.8626 36.7745 64.5668L36.2463 66.8238C32.9964 66.1038 33.0123 66.7124 33.0123 70.4261H36.5502L35.6377 72.6832L33.0123 72.6991V83.3288C32.484 83.3925 30.6438 83.4244 30.1792 83.2963V72.715L28.7543 72.6832L27.8744 70.4421L30.1792 70.4261ZM64.02 13.5971C73.1293 16.7827 78.4119 25.8912 76.3626 36.6165C73.9774 49.119 62.4837 59.4129 49.9971 60.7249C49.005 60.693 48.989 60.1329 48.9565 59.3007C49.005 57.5719 49.0686 55.8265 49.1164 54.0977C49.133 53.8415 49.0368 53.7612 48.9246 53.7294C47.6438 53.6013 46.3796 53.3133 45.1306 52.929C43.786 52.4007 42.4255 51.6329 41.0644 50.7515C40.4406 50.4476 40.5202 49.0075 40.5368 48.4467C40.6483 47.422 41.4008 45.0369 42.6173 44.9254C44.074 44.8451 44.7629 45.6136 46.2037 46.3177C48.7329 47.5183 52.2701 48.2224 54.8955 46.99C56.1597 46.2215 56.4644 45.1809 55.8724 43.8689C54.8477 41.7233 49.9334 39.9626 47.7082 38.8902C42.3778 36.6165 39.3999 32.0068 40.3443 26.5158C41.0491 22.4655 44.8425 19.3921 48.8125 18.832V16.8948C43.9141 18.3197 40.1844 21.1369 36.8389 24.4186C31.9883 29.1571 29.1386 35.1438 28.8983 42.7957C29.2826 52.1605 34.1491 56.307 39.24 59.4129C30.4991 56.0349 25.5044 47.1022 27.506 36.6165C29.9549 23.7782 41.9935 13.2766 54.8796 12.4285C55.3919 12.7324 55.4238 12.7809 55.6965 13.4691C55.5837 15.0857 55.4874 16.703 55.376 18.3197C57.9211 18.832 60.3222 19.5521 62.2593 21.2013C62.3237 24.915 59.5384 26.4673 58.4812 25.9072C58.5296 25.7313 54.2876 24.5626 53.4069 24.3542C52.3345 24.1784 51.2779 24.2428 50.2214 24.7233C48.9731 25.3152 48.3805 26.1952 48.9731 27.5723C49.4848 28.597 50.3336 29.2692 51.262 29.8453C53.9359 31.2861 56.6091 32.7428 59.2822 34.1836C61.5871 35.4803 63.2363 37.1614 64.2928 39.1941C65.0606 41.2116 65.2365 43.2603 64.7892 45.3408C64.2603 47.0385 63.6205 48.5111 62.6436 49.4395C61.8273 50.3673 60.9307 51.088 59.9704 51.6004C58.6093 52.3211 57.2488 52.9608 55.8405 53.1852C55.7921 54.0499 55.7602 54.898 55.7125 55.7628C55.8246 55.8265 55.9368 55.7946 56.0642 55.7628C59.0898 54.7859 61.7477 53.073 64.3406 51.2002C67.7026 48.239 70.8404 45.1331 72.4889 41.1154C73.6098 38.8742 74.4738 36.3929 74.8899 33.4794C75.8025 25.3152 72.8246 17.6315 64.02 13.5971ZM56.9933 10.1714C71.7044 10.1714 81.3738 22.0016 78.5878 36.6165C75.8025 51.232 61.603 63.0623 46.8919 63.0623C32.1642 63.0623 22.4955 51.232 25.2808 36.6165C28.0821 22.0016 42.2656 10.1714 56.9933 10.1714ZM62.8354 72.7628L62.8679 80.4632C62.9316 81.1991 63.0279 81.6159 63.1719 81.9199C64.2125 84.1929 67.8141 83.9852 69.9112 82.624L68.9828 80.6868C68.2946 80.9437 67.4783 81.5197 66.5014 81.2151C65.6373 80.9596 65.701 79.9349 65.701 78.9261V72.6991L71.5126 72.715L76.1867 83.3766C76.283 83.8411 75.2423 85.6821 75.018 85.9861C73.4014 88.2591 71.8969 87.2981 70.5994 87.0107L69.959 89.3156C72.4252 90.2599 75.0021 89.9082 76.4429 88.3394C77.723 86.9464 78.4597 84.9939 79.2601 82.8165L83.7424 70.4261H80.7645L77.6116 79.9508C77.291 79.5984 74.8581 73.4995 74.4094 72.4596C73.8016 71.0499 72.9209 70.4421 71.0474 70.4261C69.2867 70.4095 67.5102 70.4261 65.701 70.4261V66.6002C65.0772 66.7442 63.3 67.2725 62.8354 67.5127V70.3777L60.5312 70.4095L60.5465 72.6991" fill="#000102"/>
</g>
</svg>
