<svg width="100" height="100" viewBox="0 0 100 100" fill="none" xmlns="http://www.w3.org/2000/svg">
<mask id="mask0_1125_30855" style="mask-type:alpha" maskUnits="userSpaceOnUse" x="0" y="0" width="100" height="100">
<circle cx="50" cy="50" r="50" fill="white"/>
</mask>
<g mask="url(#mask0_1125_30855)">
<path d="M62.5 41.25C62.5 42.2446 62.1049 43.1984 61.4016 43.9017C60.6984 44.6049 59.7446 45 58.75 45C57.7554 45 56.8016 44.6049 56.0984 43.9017C55.3951 43.1984 55 42.2446 55 41.25C55 40.2554 55.3951 39.3016 56.0984 38.5983C56.8016 37.8951 57.7554 37.5 58.75 37.5C59.7446 37.5 60.6984 37.8951 61.4016 38.5983C62.1049 39.3016 62.5 40.2554 62.5 41.25ZM82.5 27.5V67.5V72.5C82.5 73.8261 81.9732 75.0979 81.0355 76.0355C80.0979 76.9732 78.8261 77.5 77.5 77.5H22.5C21.1739 77.5 19.9021 76.9732 18.9645 76.0355C18.0268 75.0979 17.5 73.8261 17.5 72.5V62.5V27.5C17.5 26.1739 18.0268 24.9021 18.9645 23.9645C19.9021 23.0268 21.1739 22.5 22.5 22.5H77.5C78.8261 22.5 80.0979 23.0268 81.0355 23.9645C81.9732 24.9021 82.5 26.1739 82.5 27.5ZM77.5 61.4688V27.5H22.5V56.4688L33.9688 45C34.9101 44.0725 36.1785 43.5526 37.5 43.5526C38.8215 43.5526 40.0899 44.0725 41.0312 45L55 58.9688L61.4688 52.5C62.4101 51.5725 63.6785 51.0526 65 51.0526C66.3215 51.0526 67.5899 51.5725 68.5312 52.5L77.5 61.4688Z" fill="#BFC2C7"/>
</g>
</svg>
