<svg width="100" height="100" viewBox="0 0 100 100" fill="none" xmlns="http://www.w3.org/2000/svg">
<mask id="mask0_1605_27577" style="mask-type:alpha" maskUnits="userSpaceOnUse" x="0" y="0" width="100" height="100">
<circle cx="50" cy="50" r="50" fill="white"/>
</mask>
<g mask="url(#mask0_1605_27577)">
<path d="M47.2759 69.8365C44.8886 70.3152 42.2652 70.6304 39.9566 70.6304C27.8626 70.6304 20.228 63.6321 20.228 49.393C20.228 36.3478 27.3051 28.9496 40.3505 28.9496C45.9187 28.9496 50.2935 29.9069 54.1894 31.1793C54.9832 28.7133 55.6194 25.7685 55.7831 23.1449C51.6445 21.715 46.4762 21 40.3505 21C21.7368 21 11 31.3429 11 49.7142C11 66.5769 20.7855 78.5919 39.3204 78.5919C45.2886 78.5919 51.6506 77.4771 56.183 75.6471V47.3269H47.2759V69.8365ZM84.5344 44.1459H89V39.6803H84.5344V44.1459ZM84.5344 35.2147H89V30.7491H84.5344V35.2147ZM75.6039 26.2836H80.0696V21.818H75.6039V26.2836ZM66.673 44.1459H71.1383V39.6803H66.673V44.1459ZM75.6039 35.2147H80.0696V30.7491H75.6039V35.2147ZM84.5344 21.818V26.2836H89V21.818H84.5344ZM66.673 35.2147H71.1383V30.7491H66.673V35.2147ZM66.673 26.2836H71.1383V21.818H66.673V26.2836ZM75.6039 44.1459H80.0696V39.6803H75.6039V44.1459Z" fill="#EC0000"/>
</g>
</svg>
