<svg width="100" height="100" viewBox="0 0 100 100" fill="none" xmlns="http://www.w3.org/2000/svg">
<mask id="mask0_1125_30780" style="mask-type:alpha" maskUnits="userSpaceOnUse" x="0" y="0" width="100" height="100">
<circle cx="50" cy="50" r="50" fill="white"/>
</mask>
<g mask="url(#mask0_1125_30780)">
<path d="M47.9027 50.0378V60.8567H44.3412V34.1002H53.6009C55.8565 34.1002 57.9934 34.9146 59.6554 36.4269C61.3174 37.8229 62.1484 39.9169 62.1484 42.1272C62.1484 44.3375 61.3174 46.3151 59.6554 47.8275C57.9934 49.3398 55.9752 50.1541 53.6009 50.1541L47.9027 50.0378ZM47.9027 37.3575V46.6641H53.8384C55.1442 46.6641 56.4501 46.1988 57.2811 45.2682C59.1805 43.5232 59.1805 40.6149 57.3998 38.8699L57.2811 38.7535C56.3314 37.8229 55.1442 37.2412 53.8384 37.3575H47.9027Z" fill="#5F6368"/>
<path d="M70.3396 42.0108C72.9513 42.0108 74.9695 42.7088 76.5128 44.1048C78.056 45.5008 78.7683 47.3621 78.7683 49.6888V60.8567H75.4443V58.2974H75.3256C73.9011 60.3914 71.8829 61.4384 69.5086 61.4384C67.4905 61.4384 65.7098 60.8567 64.2852 59.6934C62.9794 58.5301 62.1484 56.9014 62.1484 55.1564C62.1484 53.2951 62.8606 51.7828 64.2852 50.6194C65.7098 49.4561 67.7279 48.9908 70.1022 48.9908C72.2391 48.9908 73.9011 49.3398 75.2069 50.1541V49.3398C75.2069 48.1765 74.732 47.0131 73.7823 46.3151C72.8326 45.5008 71.6455 45.0355 70.3396 45.0355C68.3215 45.0355 66.7782 45.8498 65.7098 47.4785L62.6232 45.6171C64.5226 43.1742 67.0156 42.0108 70.3396 42.0108ZM65.8285 55.2727C65.8285 56.2034 66.3034 57.0177 67.0156 57.4831C67.8466 58.0647 68.7963 58.4137 69.7461 58.4137C71.1706 58.4137 72.5952 57.8321 73.6636 56.7851C74.8508 55.7381 75.4443 54.4584 75.4443 53.0624C74.3759 52.2481 72.8326 51.7828 70.8145 51.7828C69.3899 51.7828 68.2028 52.1318 67.2531 52.8298C66.3033 53.4114 65.8285 54.2258 65.8285 55.2727Z" fill="#5F6368"/>
<path d="M98 42.5925L86.2473 69H82.6859L87.0783 59.8097L79.3619 42.7088H83.1607L88.7403 55.8544H88.859L94.3199 42.7088H98V42.5925Z" fill="#5F6368"/>
<path d="M33.7738 47.7111C33.7738 46.6641 33.6551 45.6172 33.5364 44.5702H18.6972V50.5031H27.1259C26.7697 52.3644 25.7013 54.1094 24.0393 55.1564V58.9954H29.144C32.1118 56.3198 33.7738 52.3644 33.7738 47.7111Z" fill="#4285F4"/>
<path d="M18.6962 62.7181C22.9699 62.7181 26.5323 61.3221 29.144 58.9954L24.0393 55.1564C22.6147 56.0871 20.8331 56.6688 18.6962 56.6688C14.6599 56.6688 11.0985 53.9931 9.91139 50.2705H4.68797V54.2258C7.41839 59.4608 12.7605 62.7181 18.6962 62.7181Z" fill="#34A853"/>
<path d="M9.91509 50.2705C9.20281 48.4092 9.20281 46.3152 9.91509 44.3375V40.3822H4.69168C2.43611 44.6865 2.43611 49.8052 4.69168 54.2258L9.91509 50.2705Z" fill="#FBBC04"/>
<path d="M18.6981 38.0556C20.9536 38.0556 23.0905 38.8699 24.7525 40.3822L29.2636 35.9616C26.4145 33.4023 22.6156 31.8899 18.8168 32.0063C12.8811 32.0063 7.42024 35.2636 4.80853 40.4985L10.032 44.4539C11.1004 40.7312 14.6618 38.0556 18.6981 38.0556Z" fill="#EA4335"/>
</g>
</svg>
