<?xml version="1.0" encoding="UTF-8"?>
<svg id="Layer_1" data-name="Layer 1" xmlns="http://www.w3.org/2000/svg" xmlns:xlink="http://www.w3.org/1999/xlink" viewBox="0 0 99.21 99.21">
  <defs>
    <style>
      .cls-1 {
        fill: #fff;
      }

      .cls-2 {
        fill: #e64442;
      }

      .cls-3 {
        fill: #2ad2c9;
      }

      .cls-4 {
        mask: url(#mask);
      }
    </style>
    <mask id="mask" width="99.21" height="99.21" maskUnits="userSpaceOnUse"/>
  </defs>
  <g class="cls-4">
    <g>
      <circle class="cls-2" cx="49.61" cy="49.61" r="49.61"/>
      <path class="cls-1" d="M11.66,42.32H7.52v15.18h4.13v-15.18Z"/>
      <path class="cls-1" d="M11.41,35.49c-.25-.25-.51-.42-.84-.59s-.67-.17-1.01-.17-.67,.08-1.01,.17c-.34,.17-.59,.34-.84,.59-.25,.25-.42,.51-.59,.84s-.17,.67-.17,1.01,.08,.67,.17,1.01c.17,.34,.34,.59,.59,.84,.25,.25,.51,.42,.84,.59,.34,.17,.67,.17,1.01,.17s.67-.08,1.01-.17c.34-.17,.59-.34,.84-.59s.42-.51,.59-.84c.17-.34,.17-.67,.17-1.01s-.08-.67-.17-1.01c-.17-.34-.42-.59-.59-.84Z"/>
      <path class="cls-1" d="M35.78,35.49c-.25-.25-.51-.42-.84-.59s-.67-.17-1.01-.17-.67,.08-1.01,.17c-.34,.17-.59,.34-.84,.59-.25,.25-.42,.51-.59,.84-.17,.34-.17,.67-.17,1.01s.08,.67,.17,1.01c.17,.34,.34,.59,.59,.84,.25,.25,.51,.42,.84,.59,.34,.17,.67,.17,1.01,.17s.67-.08,1.01-.17c.34-.17,.59-.34,.84-.59s.42-.51,.59-.84c.17-.34,.17-.67,.17-1.01s-.08-.67-.17-1.01c-.17-.34-.34-.59-.59-.84Z"/>
      <path class="cls-1" d="M36.04,42.32h-4.13v15.18h4.13v-15.18Z"/>
      <path class="cls-3" d="M53.33,44.25c-.67-.67-1.43-1.26-2.36-1.69-.93-.42-1.86-.59-2.95-.59-1.01,0-1.94,.17-2.7,.59-.76,.42-1.35,.93-1.86,1.52v-1.69h-3.96v21.5h4.05v-7.84c.51,.59,1.1,1.1,1.86,1.43,.76,.34,1.6,.51,2.61,.51s2.02-.17,2.95-.59c.93-.42,1.69-.93,2.36-1.69,.67-.67,1.18-1.52,1.52-2.53,.34-1.01,.59-2.02,.59-3.2s-.17-2.19-.59-3.2c-.34-1.01-.84-1.86-1.52-2.53Zm-2.36,7.34c-.17,.51-.42,.93-.76,1.35-.34,.34-.76,.67-1.26,.93-.51,.25-1.01,.34-1.6,.34s-1.1-.08-1.6-.34c-.51-.17-.93-.51-1.26-.84s-.59-.84-.76-1.35c-.17-.51-.25-1.1-.25-1.69s.08-1.18,.25-1.69c.17-.51,.42-.93,.76-1.35,.34-.34,.76-.67,1.26-.84,.51-.17,1.01-.34,1.6-.34s1.18,.08,1.6,.34c.51,.25,.93,.51,1.26,.93,.34,.34,.59,.84,.76,1.35,.17,.51,.25,1.1,.25,1.6s-.08,1.1-.25,1.6Z"/>
      <path class="cls-3" d="M69.61,44c-.51-.59-1.1-1.1-1.86-1.52-.76-.42-1.6-.59-2.7-.59-1.01,0-2.02,.17-2.95,.59-.93,.42-1.69,.93-2.36,1.69-.67,.67-1.18,1.52-1.52,2.53-.34,1.01-.59,2.02-.59,3.2s.17,2.19,.59,3.2c.34,1.01,.93,1.86,1.52,2.53,.67,.67,1.43,1.26,2.36,1.69,.93,.42,1.86,.59,2.95,.59,1.01,0,1.94-.17,2.7-.59,.76-.42,1.35-.84,1.86-1.52v1.69h3.96v-15.18h-3.96v1.69Zm-.17,7.59c-.17,.51-.42,.93-.76,1.35-.34,.34-.76,.67-1.26,.84s-1.01,.34-1.6,.34-1.1-.08-1.6-.34c-.51-.25-.93-.51-1.26-.93-.34-.34-.59-.84-.76-1.35s-.25-1.1-.25-1.6c0-.59,.08-1.1,.25-1.6s.42-.93,.76-1.35c.34-.34,.76-.67,1.26-.93,.51-.25,1.01-.34,1.6-.34s1.1,.08,1.6,.34c.51,.17,.93,.51,1.26,.84,.34,.34,.59,.84,.76,1.35s.25,1.1,.25,1.69-.08,1.18-.25,1.69Z"/>
      <path class="cls-3" d="M88.33,42.32l-4.05,7.84-4.22-7.84h-4.64l6.58,11.97-5.31,9.61h4.47l11.64-21.59h-4.47Z"/>
      <path class="cls-1" d="M19.76,54.12l1.6-1.52-1.77-2.95-4.72,4.47,.84,3.37,12.9,.08-.84-3.46h-8.01Z"/>
      <path class="cls-1" d="M28.62,45.86l-.84-3.46H15.21l.93,3.37,7.59,.08-1.6,1.43,1.69,3.04,4.81-4.47Z"/>
    </g>
  </g>
</svg>