<svg width="100" height="100" viewBox="0 0 100 100" fill="none" xmlns="http://www.w3.org/2000/svg">
<mask id="mask0_1125_29943" style="mask-type:alpha" maskUnits="userSpaceOnUse" x="0" y="0" width="100" height="100">
<circle cx="50" cy="50" r="50" fill="white"/>
</mask>
<g mask="url(#mask0_1125_29943)">
<path d="M97.5 50.0224C97.5 67.7941 76.2175 82.2 50 82.2C23.7825 82.2 2.5 67.7941 2.5 50.0224C2.5 32.2507 23.7825 17.8 50 17.8C76.2175 17.8449 97.5 32.2507 97.5 50.0224Z" fill="#00BCFF"/>
<path d="M97.4104 49.9011C84.1973 47.8094 67.7145 54.6944 65.7438 55.4352L64.6688 55.8709L65.1167 54.8251C65.8781 52.7335 66.326 46.8944 66.0573 42.5804C65.7438 38.2228 67.4458 34.0396 68.2072 32.1222L68.3416 31.6865C68.9687 30.0306 69.7301 30.0306 70.6259 30.2049C70.9394 30.2049 71.2529 30.3792 71.5665 30.3792C72.955 30.3792 74.657 29.7692 75.8663 29.1591C76.4934 28.8541 77.0757 28.549 77.8371 28.549C78.285 28.4183 78.7777 28.4183 79.0912 28.244C79.5391 28.1133 80.0318 27.939 80.4797 27.939C82.1818 27.8082 83.3911 27.5032 83.3911 26.2831C83.3911 26.1524 83.3911 25.8474 83.0776 25.6731C82.764 25.5423 82.3161 25.368 80.9276 25.6731H80.7933C80.1662 25.8474 78.7777 26.1088 80.0318 25.063C80.0318 24.8887 80.1662 24.8887 80.1662 24.8887C80.6141 24.5837 81.1068 23.8429 81.4203 23.4071C81.5547 23.2764 81.7338 22.9714 81.5547 22.6663C81.4203 21.7512 80.0318 20.8797 78.4642 19.9646C78.1506 19.8339 77.8371 19.5289 77.5236 19.3546C76.7621 18.7445 74.9257 17.3937 74.1195 18.1345C73.0446 19.0496 68.8791 22.9278 66.4156 25.6295C64.1761 28.1133 62.3397 30.9021 60.8616 33.8653L60.2346 35.2161C58.8461 38.2228 56.6961 42.8418 54.5462 47.7659L53.6056 49.9882C53.4712 50.2933 53.4712 50.424 53.2921 50.729C51.4557 54.7815 48.9922 59.8363 50.6943 62.538C51.4557 63.7145 52.9786 64.4989 55.3076 64.6296C69.5957 65.8062 73.1341 65.5447 81.4651 64.4553C82.988 64.3246 84.3765 64.0196 85.9441 63.7145C86.5712 63.5838 87.1535 63.4095 87.7805 63.4095C88.2284 63.4095 88.542 63.4095 89.0347 63.5402C89.7961 63.8453 90.1096 64.281 90.4231 64.8911L90.7367 65.3268L91.1846 64.8911C93.7824 62.0587 95.6188 58.9212 96.7386 55.6095C97.1865 53.6486 97.3656 51.7312 97.5 50.8162V49.7703H97.4104V49.9011ZM45.2746 49.9011C44.9611 49.1603 44.5132 48.4195 44.334 47.6787C42.1841 42.5804 40.0342 37.9614 38.6457 34.9546L38.0186 33.7345C36.3166 30.2921 34.6594 27.5904 32.4646 25.4987C30.0012 22.9714 25.8805 18.9188 24.7607 18.0037C23.8201 17.263 21.9837 18.7445 21.4015 19.2239C21.0879 19.3546 20.7744 19.6596 20.4609 19.8339C18.938 20.749 17.5495 21.6205 17.3703 22.5356C17.3703 22.8406 17.3703 23.1457 17.5047 23.2764C17.6391 23.5814 17.9526 24.0172 18.2661 24.3222C18.4005 24.4529 18.5797 24.4529 18.7141 24.6272H18.8932C20.1025 25.673 19.9682 25.9781 19.8338 25.8474C19.2067 25.5423 18.7588 25.4116 18.3109 25.4116H18.1766C16.6537 25.1066 16.161 25.2809 15.8923 25.4116C15.5787 25.5423 15.5787 25.8474 15.5787 26.0217C15.5787 27.1982 16.9672 27.5032 18.6693 27.6775C19.1172 27.6775 19.6099 27.8083 20.0578 27.9826C20.5057 28.1569 20.8192 28.2876 21.3119 28.2876C21.9389 28.4183 22.7004 28.5926 23.2826 28.8976C24.5368 29.5077 26.194 30.2485 27.5825 30.0742C27.896 30.0742 28.2096 30.0742 28.5231 29.9435C29.4637 29.8127 30.2251 29.8127 30.8074 31.425L30.9418 31.8608C31.7032 33.7781 33.4052 38.0049 33.0917 42.3189C32.7782 46.6329 33.2261 52.472 34.0323 54.5637L34.4802 55.6095L33.4052 55.1737C31.7032 54.4329 15.8923 47.6787 2.81353 49.7703H2.5V51.9927C2.9479 56.176 4.7843 60.3592 8.18835 64.1067L8.50188 64.5425L8.81542 64.1067C9.12895 63.671 9.44248 63.4967 9.89038 63.1916C10.9653 62.8866 11.5924 63.0173 12.9809 63.3224C14.5038 63.6274 16.0714 63.9324 17.4599 64.0631C22.0733 64.6732 25.1638 64.9782 29.2845 64.9782C32.823 64.9782 37.1228 64.6732 43.5726 64.2374C45.8569 64.1067 47.4246 63.3223 48.186 62.1458C49.888 59.3134 47.5589 54.3894 45.5882 50.1625C45.4538 50.3368 45.4538 50.0754 45.2746 49.9011Z" fill="white"/>
<path d="M88.2507 65.7434C87.9481 65.8768 87.8185 66.1881 87.5159 66.366L87.343 66.4994C87.0405 66.6328 86.9108 66.9441 86.6083 67.122C86.3057 67.4333 86.0032 67.5668 85.7006 67.8781C85.3981 68.0115 85.0955 68.3228 84.9659 68.5007L84.8362 68.6786C84.5337 68.812 84.2311 69.1233 84.1015 69.3012C84.1015 69.3012 83.9718 69.3012 83.9718 69.4791C83.6692 69.6125 83.3667 69.9238 83.0641 70.1017C82.7616 70.2796 82.4591 70.5464 82.1565 70.7243L82.0268 70.8577L81.1192 71.3025C81.1192 71.3025 80.9895 71.3025 80.9895 71.4359C80.2548 71.8806 79.6497 72.1919 78.9149 72.6811C78.7853 72.6811 78.7853 72.8145 78.7853 72.8145L77.8776 73.2592C77.7047 73.2592 77.7047 73.3927 77.7047 73.3927C76.97 73.704 76.2352 74.1487 75.5005 74.46C75.3708 74.46 75.3708 74.5934 75.1979 74.5934C74.8954 74.7713 74.5928 74.9047 74.2903 74.9047C74.1606 74.9047 74.1606 75.0381 73.9877 75.0381C73.6852 75.1716 73.253 75.3495 72.8207 75.4829C72.3885 75.6163 72.086 75.7942 71.6105 75.9276C71.4809 75.9276 71.4809 75.9276 71.308 76.061C71.0055 76.2389 70.7029 76.2389 70.4004 76.3723C70.2275 76.3723 70.2275 76.5057 70.0978 76.5057C69.7953 76.6392 69.3631 76.6392 69.0605 76.8171H68.9308C68.4986 76.9949 68.1961 77.1284 67.7206 77.1284C67.591 77.1284 67.591 77.1284 67.4181 77.2618C67.1156 77.3952 66.813 77.3952 66.3808 77.5731C66.2511 77.5731 66.0783 77.5731 66.0783 77.751C65.7757 77.8844 65.3435 77.8844 65.0409 78.0623H64.7384C64.3062 78.1957 63.8308 78.1957 63.3985 78.3736H63.096C62.7934 78.5515 62.3612 78.5515 62.0587 78.5515C61.929 78.5515 61.7561 78.5515 61.6265 78.6849C61.3239 78.6849 60.8917 78.8183 60.5892 78.8183H60.2866C59.8544 78.9517 59.379 78.9517 58.9468 78.9517H58.6442C58.3417 78.9517 57.9095 79.0852 57.434 79.0852H57.0018C56.6993 79.0852 56.2671 79.263 55.9645 79.263H55.5323C55.1001 79.263 54.6247 79.3965 54.1925 79.3965H46.1965C45.7643 79.3965 45.2889 79.3965 44.8567 79.263H44.727C44.2948 79.263 43.8194 79.263 43.3872 79.0852H42.955C42.6524 79.0852 42.2202 79.0851 41.9177 78.9517H41.4854C41.0532 78.9517 40.5778 78.8183 40.1456 78.8183H40.0159C39.5837 78.8183 39.2812 78.6849 38.8057 78.6849H38.3735C38.071 78.6849 37.6388 78.5515 37.3362 78.5515H37.0769C36.6447 78.3736 36.1692 78.3736 35.737 78.2402H35.6074C35.3048 78.1068 34.8726 78.1068 34.5701 77.9289C34.4404 77.9289 34.2675 77.9289 34.1379 77.7955C33.8353 77.6176 33.5328 77.6176 33.2302 77.4841C33.1005 77.4841 33.1005 77.4841 32.9277 77.3507C32.4955 77.2173 32.02 77.2173 31.7175 77.0394H31.4149C31.1124 76.8615 30.6802 76.8615 30.3776 76.7281C30.2047 76.7281 30.0751 76.5947 30.0751 76.5947C29.7725 76.4613 29.47 76.4613 29.1674 76.2834C29.0378 76.2834 29.0378 76.2834 28.8649 76.1055C28.4327 75.9721 28.1301 75.7942 27.6547 75.6608C27.525 75.6608 27.525 75.6608 27.3521 75.5273C27.0496 75.3495 26.747 75.216 26.4445 75.216C26.3148 75.216 26.1419 75.0826 26.1419 75.0826C25.8394 74.9492 25.5369 74.7713 25.2343 74.7713C25.1046 74.7713 25.1046 74.7713 24.9318 74.5934C24.6292 74.46 24.197 74.2821 23.7648 74.1487C23.6351 74.1487 23.6351 74.0153 23.4622 74.0153L22.5546 73.5706C22.4249 73.5706 22.4249 73.4371 22.252 73.4371L21.3444 72.9924C21.3444 72.9924 21.1715 72.9924 21.1715 72.859C20.869 72.7256 20.4368 72.5477 20.1342 72.2364C20.0045 72.2364 20.0045 72.103 19.8317 72.103C19.5291 71.9695 19.2266 71.7917 19.0969 71.6582C18.924 71.6582 18.924 71.5248 18.7944 71.5248L17.8867 71.0801C17.8867 71.0801 17.7571 71.0801 17.7571 70.9022C17.4545 70.7688 17.152 70.4575 16.8494 70.2796C16.6765 70.2796 16.6765 70.1017 16.5469 70.1017C16.2443 69.9683 16.1146 69.7904 15.8121 69.657C15.6824 69.657 15.6824 69.5236 15.5096 69.5236C15.207 69.3457 14.9045 69.2122 14.7748 68.9009C14.7748 68.9009 14.6451 68.9009 14.6451 68.7675C14.3426 68.5896 14.04 68.3228 13.7375 68.1449C13.6078 68.1449 13.6078 68.0115 13.6078 68.0115C13.4782 67.8336 13.1756 67.7002 13.0027 67.3889C12.8731 67.3889 12.8731 67.2555 12.7002 67.2555C12.3976 67.0776 12.268 66.8107 11.9654 66.6328C11.6629 66.3215 11.3603 66.1881 11.2307 65.8768C11.101 65.8768 11.101 65.7434 11.101 65.7434L10.3662 64.9873L10.2366 64.8095C10.5391 64.3647 10.6688 64.1868 10.8417 64.0534C11.4468 63.7421 11.7493 63.92 13.046 64.2313C14.5155 64.5426 16.0282 64.8539 17.4977 64.9873C25.4936 66.0547 29.081 66.366 43.0414 65.1208C45.7211 64.8095 47.4932 63.8755 48.4008 62.2301C48.5305 62.0966 48.5305 61.9187 48.7034 61.6074C48.8763 61.7408 48.8763 61.9188 49.0059 62.2301C49.9136 63.92 51.8153 64.8095 54.3653 65.1208C68.3258 66.3215 71.8699 66.0547 79.8658 64.9873C81.3353 64.8095 82.848 64.5426 84.3176 64.2313C85.6574 63.92 85.96 63.92 86.5218 64.0534C86.8244 64.2313 86.954 64.3647 87.4295 65.2987C88.4236 65.5655 88.4236 65.5655 88.2507 65.7434C88.2507 65.5655 88.2507 65.5655 88.2507 65.7434ZM89.4609 34.4347L89.7634 34.746C90.066 35.0573 90.1956 35.3686 90.4982 35.6799C90.6278 35.8578 90.6278 35.8578 90.6278 35.9912C90.7575 36.1247 90.9304 36.3025 90.9304 36.436C91.0601 36.6139 91.0601 36.6138 91.0601 36.7473C91.2329 36.8807 91.3626 37.0586 91.3626 37.192C91.4923 37.3699 91.4923 37.3699 91.4923 37.5033C91.7948 38.1259 92.227 38.5706 92.5296 39.1933C92.5296 39.3267 92.7025 39.3267 92.7025 39.5046C92.8321 39.6825 92.8321 39.8159 93.005 39.9493C93.005 40.0827 93.1347 40.0827 93.1347 40.2606C93.2643 40.4385 93.2643 40.5719 93.4372 40.7053C93.4372 40.8387 93.5669 40.8387 93.5669 41.0166C93.6965 41.3279 93.8694 41.7727 93.9991 42.084C93.9991 42.2174 93.9991 42.2174 94.172 42.2174C94.172 42.3508 94.3016 42.5287 94.3016 42.6621C94.3016 42.7955 94.4313 42.9734 94.4313 42.9734C94.4313 43.1068 94.561 43.2847 94.561 43.4182C94.561 43.5516 94.6906 43.7295 94.6906 43.7295C94.6906 43.8629 94.8635 44.0408 94.8635 44.1742C94.8635 44.3076 94.8635 44.4855 94.9932 44.4855C95.1228 44.7968 95.1228 45.1081 95.1228 45.4194C95.1228 45.5528 95.1228 45.7307 95.2525 45.7307C95.2525 45.8642 95.2525 46.042 95.3822 46.1755V47.1094C91.2329 46.4868 84.7066 46.4868 75.3708 49.1106C72.1292 50.4893 69.1469 51.3787 66.035 52.7574C66.6401 49.6888 66.7698 44.9747 66.4672 41.4614C66.1647 37.5033 67.6774 33.5452 68.5419 31.3661L68.6715 30.9214C68.8444 30.6101 68.8444 30.2988 69.1037 30.1653H69.5359C69.8385 30.1653 70.2707 30.2987 70.5732 30.2987C72.5182 30.4766 74.7225 29.2314 75.3276 28.9201C75.7598 28.6088 76.3649 28.4754 76.97 28.2975C77.4022 28.1641 77.8776 27.9862 78.4395 27.8528C78.742 27.7193 79.0446 27.7193 79.4768 27.7193C79.909 27.7193 80.5141 27.5859 81.1192 27.408C84.404 29.5427 87.2134 31.8553 89.4609 34.4347ZM73.7284 16.7346C74.1606 16.4233 75.1979 16.868 76.5378 17.9354C76.8403 18.2467 77.1429 18.3801 77.4454 18.558C78.353 19.1806 80.1251 20.2479 80.2548 21.004C80.2548 21.1374 80.2548 21.3153 80.1251 21.4487V21.5821C79.8226 22.0269 79.3904 22.8274 79.0878 22.9608L78.7853 23.2721C78.1802 23.8947 77.3157 24.5173 77.0132 24.5173C76.1055 24.3839 75.5437 24.206 74.8089 23.8947C75.2411 22.0713 75.8462 22.516 77.0132 23.1387C77.0132 22.8274 76.8835 22.6939 76.8835 22.3826L77.7912 21.9379L76.7539 21.8045C76.6242 21.0485 76.6242 20.4258 76.6242 19.6698C76.3217 20.1145 76.3217 20.6037 76.192 20.915C76.0623 21.2263 75.7598 21.5377 75.5869 21.6711L74.9818 21.0485C74.6793 20.7371 74.247 20.4258 73.9445 20.2924C73.9445 20.4258 73.8148 20.4258 73.8148 20.4258C74.8521 21.9379 74.8521 22.2492 73.6852 23.6279C72.6479 24.8286 71.6106 25.7625 70.5732 26.8299C71.308 27.2746 72.2157 26.9633 73.253 25.896C74.5928 24.3839 74.5928 24.3839 76.3649 25.1399L76.6674 25.2734C77.4022 25.5847 77.8344 25.1399 78.5692 24.8286C79.0014 24.6952 79.6065 24.3839 80.0387 24.3839H80.2116C81.2489 24.206 81.854 24.206 81.9836 24.3839C81.9836 24.3839 82.1133 24.5173 82.1133 24.6952C82.1133 25.4512 81.5082 25.7625 79.6065 25.9404C79.1742 25.9404 78.6988 26.0738 78.1369 26.2517C77.7047 26.3852 77.4022 26.5631 76.9268 26.5631C76.192 26.7409 75.5869 26.8744 75.025 27.3191C73.8148 27.9417 72.3453 28.5643 71.1783 28.5643C70.8758 28.5643 70.5732 28.5643 70.4436 28.4309C69.4063 28.2975 68.5419 28.2975 67.7639 30.2543L67.6342 30.699C66.8995 32.8337 65.2571 37.1031 65.4299 41.5503C65.7325 45.9976 65.2571 51.9569 64.5223 53.9137L63.485 55.9149L65.4299 54.981C65.5596 54.8031 82.5023 47.1983 95.6847 49.333V49.9556C95.5551 51.2009 95.3822 53.0242 94.95 54.8476C94.0423 58.2275 92.2702 61.4296 89.7634 64.1868C89.4609 63.4308 89.0287 62.9416 88.121 62.6748C87.6888 62.4969 87.2134 62.3635 86.7812 62.3635C86.1761 62.3635 85.4413 62.4969 84.8794 62.6748C83.4099 62.9861 82.0701 63.2974 80.5573 63.4308C72.6911 64.4981 69.1469 64.8095 55.3162 63.5642C53.2416 63.4308 51.9017 62.6303 51.167 61.563C49.6975 58.9836 51.9017 53.9137 53.6738 49.8222C54.106 48.7549 54.5814 47.6875 55.0136 46.7536C57.2179 41.1056 59.4654 36.0802 60.8053 33.145L61.1078 32.5224C62.7502 29.009 64.3494 26.4296 66.2944 24.1171C68.6715 21.6266 72.6911 17.6241 73.7284 16.7346ZM50 19.4919C55.9213 19.4919 61.5833 20.2479 66.5969 21.6266C65.9918 22.2492 65.5596 22.6939 65.1274 23.3166C62.8367 25.9404 60.9782 28.9201 59.6383 32.1666L59.3358 32.7892C57.9959 35.8578 55.6187 40.8832 53.5441 46.5312C53.2416 47.4652 52.8094 48.3546 52.3339 49.422C51.2966 51.6901 50.2593 54.1805 49.6542 56.582C49.0491 54.136 47.8822 51.6901 46.9745 49.422L45.7643 46.5312C43.5601 40.8832 41.3126 35.8578 39.9727 32.7892L39.6702 32.1666C38.0278 28.5198 36.2557 25.7626 34.1811 23.3166C33.7489 22.8718 33.2734 22.3826 32.8412 21.8045C37.9845 20.248 43.7329 19.4919 50 19.4919ZM17.3248 24.5173C17.4545 24.3839 18.2325 24.3839 19.0969 24.5173H19.3995L20.7393 24.962C21.4741 25.4068 21.9063 25.7181 22.641 25.4068C22.7707 25.4068 22.9436 25.2734 22.9436 25.2734C24.7157 24.6507 24.7157 24.6507 26.0555 26.0294C27.0928 27.2301 27.9572 27.408 28.7352 26.9633C27.6979 25.896 26.5309 24.8286 25.6233 23.7613C24.4563 22.3826 24.4563 21.9379 25.4936 20.5593C25.4936 20.3814 25.364 20.3814 25.364 20.3814C25.0614 20.6927 24.6292 20.8261 24.3267 21.1374L23.7216 21.76C23.419 21.4487 23.1165 21.3153 23.1165 21.004C22.9868 20.6927 22.9868 20.248 22.6843 19.8032C22.6843 20.4258 22.5546 21.1819 22.5546 21.9379L21.5173 22.2492L22.4249 22.6939L22.2953 23.3166C23.3326 22.5605 24.0673 22.1158 24.4995 24.0726C23.7648 24.3839 23.03 24.3839 22.2953 24.6952C21.9927 24.8286 21.0851 24.0726 20.3503 23.45C20.3503 23.3166 20.2207 23.3166 20.2207 23.3166L19.7884 22.8718C19.4859 22.5605 19.3562 22.1158 19.1833 21.9379V21.8045C19.0537 21.6711 19.0537 21.4932 19.0537 21.3598C19.1833 20.6037 20.9986 19.3585 21.8631 18.9138C22.1656 18.7804 22.4682 18.469 22.7707 18.2912C23.9809 17.2238 25.1479 16.6012 25.5801 17.0459C26.6174 17.9799 30.4641 21.9379 33.0141 24.5173C34.9591 26.652 36.5582 29.4093 38.2006 32.9226L38.5032 33.5452C39.843 36.6139 42.2202 41.6393 44.2948 47.1094C44.5974 48.0433 45.0296 49.1106 45.6347 50.178C47.4067 54.3139 49.6542 59.3393 48.1415 61.9187C47.5364 63.1195 46.0669 63.7421 43.9923 63.92C30.2047 65.1652 26.7903 64.8539 18.7511 63.7866C17.2816 63.6532 15.9418 63.3419 14.429 63.0306C13.0892 62.7192 12.3544 62.5858 11.1874 62.8971C10.5823 63.0306 10.2798 63.5198 9.97725 63.9645C6.995 60.3177 5.09327 56.1818 4.61783 51.7345V49.7333C17.8435 47.4652 33.8353 55.07 34.0082 55.2479L35.9531 56.1818L35.2184 54.1805C34.4836 52.1793 34.0082 46.2199 34.3107 41.8171C34.6133 37.4144 32.9709 33.1005 32.1065 30.9658L31.9768 30.5211C31.242 28.5198 30.3344 28.5198 29.2971 28.6977C28.9945 28.6977 28.692 28.8312 28.5623 28.8312C27.3521 28.8312 25.753 28.2085 24.7157 27.6304C24.1106 27.3191 23.3758 27.0078 22.7707 26.8744C22.3385 26.7409 22.0359 26.7409 21.6037 26.5631C21.1715 26.4296 20.6961 26.2517 20.1342 26.2517C18.1893 25.9404 17.6274 25.6291 17.6274 25.0065C17.1952 24.6507 17.1952 24.5173 17.3248 24.5173ZM18.535 27.5415C18.8376 27.6749 19.2698 27.6749 19.5723 27.6749C19.8749 27.6749 20.3071 27.8083 20.6096 27.8083C21.0419 27.9417 21.5173 28.1196 22.0792 28.253C22.6843 28.3864 23.1165 28.5643 23.7216 28.8756C24.3267 29.1869 26.5309 30.3877 28.4759 30.2543C28.7784 30.2543 29.2106 30.2543 29.5132 30.1209H29.9454C29.9454 30.1209 30.0751 30.2543 30.3776 30.8769L30.5073 31.3216C31.242 33.4563 32.8844 37.4144 32.5819 41.4169C32.2793 44.9302 32.409 49.6443 33.0141 52.7129C28.5623 50.7117 15.8121 45.9976 4.53139 47.8209C4.66106 46.6202 4.83394 45.5528 5.13649 44.3076V44.1742C5.13649 43.9963 5.26615 43.8629 5.26615 43.7295C5.26615 43.5961 5.39581 43.4182 5.39581 43.2847V43.1513C5.69836 42.2174 6.13057 41.1945 6.60601 40.2606C6.60601 40.2606 6.60601 40.1272 6.73567 40.1272C6.73567 40.1272 6.73567 39.9938 6.86533 39.9938C6.995 39.8604 6.995 39.6825 7.16788 39.549C9.32894 34.8794 13.3485 30.9214 18.535 27.5415ZM83.0641 26.4741C83.3667 26.0294 83.6692 25.5402 83.6692 24.962C83.6692 24.3394 83.3667 23.7613 82.9345 23.2721C82.5023 22.9608 82.0268 22.8274 81.465 22.8274C81.465 22.8274 81.465 22.6495 81.6379 22.6495C81.9404 22.2047 82.0701 21.5821 81.9404 20.9595C81.6379 19.4474 79.7361 18.2022 78.3963 17.3128C78.0937 17.1793 77.7912 17.0014 77.6615 16.868C74.9818 14.5999 73.5123 14.8668 72.7775 15.4894C72.0428 16.112 70.2707 17.9354 68.3258 19.9366C62.6638 18.4246 56.4399 17.4907 50.0864 17.4907C43.4304 17.4907 37.0337 18.4246 31.242 20.0701C29.2971 18.0688 27.3954 16.2454 26.6174 15.4894C25.8826 14.8668 24.2402 14.422 21.7334 16.868C21.6037 17.0014 21.3012 17.1793 20.9986 17.3128C19.6588 18.0688 17.7138 19.314 17.4545 20.9595C17.3248 21.5821 17.4545 22.2047 17.7571 22.6495C17.7571 22.6495 17.7571 22.8274 17.9299 22.8274C17.3248 22.8274 16.8926 22.9608 16.4604 23.2721C16.0282 23.7168 15.7257 24.206 15.7257 24.962C15.7257 25.896 16.0282 26.3407 16.4604 26.7854C7.85942 32.4334 2.5 40.5274 2.5 49.2441V51.2453C2.5 69.8793 21.0419 85 50 85C79.0878 85 97.5 69.8793 97.5 51.2453V49.422C97.4568 40.394 91.9677 32.3 83.0641 26.4741Z" fill="#0A0080"/>
</g>
</svg>
