<svg width="100" height="100" viewBox="0 0 100 100" fill="none" xmlns="http://www.w3.org/2000/svg">
<mask id="mask0_1125_30038" style="mask-type:alpha" maskUnits="userSpaceOnUse" x="0" y="0" width="100" height="100">
<circle cx="50" cy="50" r="50" fill="white"/>
</mask>
<g mask="url(#mask0_1125_30038)">
<path fill-rule="evenodd" clip-rule="evenodd" d="M14.8538 25.9514L55.2622 5.65388C57.7006 4.42933 60.7248 4.96318 62.5155 6.93329L97.2458 45.1588C99.3486 47.4735 99.3071 50.8778 97.1485 53.1475L59.6089 92.6095C55.9702 96.0792 49.8773 95.7233 46.7303 91.8576L10.3465 43.8498C5.78571 37.8312 7.89684 29.4457 14.8538 25.9514Z" fill="#FF2F73"/>
<g style="mix-blend-mode:multiply">
<path fill-rule="evenodd" clip-rule="evenodd" d="M7.37707 44.671L33.6734 9.5825C35.2598 7.46539 38.2176 6.672 40.7668 7.68062L90.2207 27.2382C93.2155 28.4227 94.8207 31.4809 93.9876 34.4132L79.4985 85.4124C77.9226 90.0384 72.3093 92.2779 67.6347 90.1467L11.9854 62.5469C5.00884 59.0864 2.85021 50.7122 7.37707 44.671Z" fill="#2FCAD7"/>
</g>
<path fill-rule="evenodd" clip-rule="evenodd" d="M25.3512 20.6753L46.6122 9.99573L75.7681 21.5261L92.4299 39.8647L85.0425 65.8671L63.7665 88.2326L32.0591 72.507L10.3405 43.8497C9.92458 43.3008 9.56415 42.7322 9.25781 42.1495L25.3512 20.6753Z" fill="#1A1446"/>
</g>
</svg>
