<svg width="100" height="100" viewBox="0 0 100 100" fill="none" xmlns="http://www.w3.org/2000/svg">
<mask id="mask0_1125_30013" style="mask-type:alpha" maskUnits="userSpaceOnUse" x="0" y="0" width="100" height="100">
<circle cx="50" cy="50" r="50" fill="white"/>
</mask>
<g mask="url(#mask0_1125_30013)">
<path d="M21.7912 29.637C24.5582 26.7099 28.2285 25 32.5404 25C40.9406 25 46.51 31.1758 47.5755 40.4276C47.921 43.4321 47.9178 47.6679 47.9144 52.5742C47.9137 53.0773 47.9137 53.5876 47.9137 54.1042V72.4839H36.3619V58.8897C36.3619 58.8897 36.3383 47.255 36.2677 45.0806C35.9577 35.6102 30.3898 29.6594 21.7901 29.653C19.1955 32.4133 17.8053 35.7883 17.6002 40.9486C17.5721 41.6684 17.5792 44.2196 17.5885 47.582C17.5933 49.3241 17.5988 51.284 17.6002 53.3198C17.6088 62.1806 17.6002 72.4859 17.6002 72.4859H6.04839V51.5646C6.04839 50.8477 6.03541 50.1248 6.0224 49.399C5.9962 47.9389 5.96979 46.4677 6.04839 45.0109C6.17891 42.5823 6.59613 40.1948 7.72156 37.977C10.2977 32.896 15.5761 29.6246 21.2033 29.6246C21.3999 29.6246 21.5966 29.6291 21.7912 29.6367V29.637Z" fill="#820AD1"/>
<path d="M93.4462 53.6006C93.5248 52.1437 93.4984 50.6723 93.4723 49.2125C93.4591 48.4866 93.4462 47.7637 93.4462 47.0468V26.1255H81.8945C81.8945 26.1255 81.8859 36.4308 81.8945 45.2915C81.8958 47.3273 81.9013 49.2871 81.9061 51.0292C81.9155 54.3917 81.9226 56.9429 81.8945 57.6626C81.6895 62.8232 80.2991 66.198 77.7046 68.9584C69.105 68.9523 63.5373 63.0011 63.2271 53.5308C63.1565 51.3564 63.1266 45.9604 63.1266 39.7108V26.1166L51.5834 26.1273V44.507C51.5834 45.0236 51.5828 45.5337 51.5828 46.037C51.5791 50.9432 51.5761 55.179 51.9216 58.1836C52.9849 67.4354 58.5543 73.6112 66.9544 73.6112C71.2665 73.6112 74.9368 71.9013 77.7038 68.9741C77.8983 68.9817 78.0948 68.9863 78.2914 68.9863C83.9186 68.9863 89.1971 65.7149 91.7732 60.6339C92.8986 58.4159 93.3158 56.0286 93.4463 53.6L93.4462 53.6006Z" fill="#820AD1"/>
</g>
</svg>
