<svg width="100" height="100" viewBox="0 0 100 100" fill="none" xmlns="http://www.w3.org/2000/svg">
<mask id="mask0_1627_27642" style="mask-type:alpha" maskUnits="userSpaceOnUse" x="0" y="0" width="100" height="101">
<circle cx="50" cy="50.0001" r="50" fill="white"/>
</mask>
<g mask="url(#mask0_1627_27642)">
<path d="M6 33.4301C6 30.4928 8.35908 28.1094 11.2722 28.1094H88.6194C91.53 28.1094 93.8915 30.4928 93.8915 33.4301V67.0867C93.8915 70.024 91.5301 72.4049 88.6194 72.4049H11.2722C8.35908 72.4049 6 70.024 6 67.0867V33.4301Z" fill="white"/>
<path d="M6.0625 32.8932C6.0625 30.1916 8.23452 28 10.9119 28H89.0585C91.7358 28 93.9055 30.1916 93.9055 32.8932V33.0487H6.0625V32.8932ZM93.9055 67.5314V67.6528C93.9055 70.3545 91.7358 72.546 89.0585 72.546H10.9119C8.23462 72.546 6.0625 70.3545 6.0625 67.6528V67.5314H93.9055Z" fill="#FBB110"/>
<path d="M66.8572 50.2206C66.8572 57.0598 72.3505 62.6041 79.1289 62.6041C85.905 62.6041 91.4006 57.0599 91.4006 50.2207C91.4006 43.379 85.905 37.8348 79.1289 37.8348C72.3505 37.8348 66.8572 43.379 66.8572 50.2206ZM8.34874 50.2206C8.34874 57.0598 13.8443 62.6041 20.6228 62.6041C27.3989 62.6041 32.8945 57.0599 32.8945 50.2207C32.8945 43.379 27.3989 37.8348 20.6228 37.8348C13.8444 37.8348 8.34864 43.379 8.34864 50.2206H8.34874ZM93.9055 65.1867H33.3975C34.4883 64.4141 35.5039 63.3573 36.6116 61.9311L42.7755 53.9938L45.4674 57.4267L48.4631 53.4057L45.844 50.0408L52.1172 41.9602C54.1094 39.397 50.2998 36.3843 48.3076 38.9475L42.7634 46.0903L37.1268 38.8527C35.1322 36.2969 31.3298 39.3169 33.3245 41.8751L39.6948 50.0433L32.8022 58.9185C30.3532 62.0721 27.9091 64.9632 23.0572 65.1867H6.0625V35.3931H66.2523C65.2173 36.156 64.2406 37.1788 63.1813 38.5442L57.0199 46.4791L54.3256 43.0486L51.3324 47.0696L53.9515 50.432L47.676 58.5127C45.6861 61.0759 49.4956 64.0886 51.4855 61.5254L57.0321 54.3849L62.6687 61.6201C64.6634 64.1784 68.4656 61.1585 66.4709 58.6002L60.1007 50.4296L66.9933 41.5569C69.2431 38.656 71.4904 35.9786 75.606 35.3931H93.9055V65.1867ZM71.782 50.2206C71.782 46.1245 75.0716 42.8056 79.1289 42.8056C83.1863 42.8056 86.4735 46.1245 86.4735 50.2206C86.4735 54.3144 83.1863 57.6332 79.1289 57.6332C75.0716 57.6332 71.782 54.3144 71.782 50.2206ZM13.2759 50.2206C13.2759 46.1245 16.5655 42.8056 20.6228 42.8056C24.6777 42.8056 27.9674 46.1245 27.9674 50.2206C27.9674 54.3144 24.6778 57.6332 20.6228 57.6332C16.5655 57.6332 13.2759 54.3144 13.2759 50.2206Z" fill="#E70020"/>
</g>
</svg>
