<svg width="100" height="100" viewBox="0 0 100 100" fill="none" xmlns="http://www.w3.org/2000/svg">
<mask id="mask0_1125_30783" style="mask-type:alpha" maskUnits="userSpaceOnUse" x="0" y="0" width="100" height="100">
<circle cx="50" cy="50" r="50" fill="#F3D031"/>
</mask>
<g mask="url(#mask0_1125_30783)">
<circle cx="50" cy="50" r="50" fill="#F3D031"/>
<path fill-rule="evenodd" clip-rule="evenodd" d="M89.9588 14.0505C89.9749 14.0486 89.9892 14.0524 90.002 14.0621C90.002 20.8303 90.002 27.5984 90.002 34.3668C89.917 34.2528 89.9528 34.1207 89.9528 33.9969C89.9509 27.5344 89.951 21.072 89.9514 14.6092C89.9514 14.4231 89.9562 14.2368 89.9588 14.0505Z" fill="#F6D967"/>
<path fill-rule="evenodd" clip-rule="evenodd" d="M79.4288 89.8944C79.4237 89.9089 79.4206 89.9238 79.4194 89.9392C74.8564 89.9392 70.2935 89.9392 65.7305 89.9392C65.8348 89.8539 65.9585 89.8901 66.0735 89.89C70.339 89.8881 74.6044 89.8882 78.8697 89.8886C79.0562 89.8886 79.2425 89.8924 79.4288 89.8944Z" fill="#F6D967"/>
<path fill-rule="evenodd" clip-rule="evenodd" d="M74.4676 28.3206C74.6063 28.2857 74.6545 28.2005 74.7175 28.1374C75.8942 26.9633 77.0664 25.7844 78.2462 24.6134C78.8052 24.0586 79.4557 23.6491 80.2477 23.5331C81.5822 23.3376 82.7191 24.0041 83.2328 25.256C83.445 25.7732 83.5329 26.3157 83.535 26.8697C83.5412 28.532 83.5393 30.1944 83.5367 31.8567C83.5339 33.6122 83.5243 35.3675 83.5219 37.1229C83.5146 42.8727 83.5094 48.6227 83.503 54.3725C83.5008 56.4079 83.4963 58.4434 83.4949 60.4787C83.4913 65.9405 83.4966 71.4025 83.4789 76.8642C83.4759 77.718 83.5455 78.578 83.4005 79.428C83.012 81.7022 81.0283 83.3918 78.727 83.3998C76.5475 83.4074 74.3678 83.4036 72.1881 83.4006C70.8398 83.3987 69.4917 83.3849 68.1435 83.3837C62.071 83.3794 55.9985 83.3778 49.926 83.3744C46.2198 83.3723 42.5136 83.3701 38.8073 83.3659C35.0843 83.362 31.3614 83.3594 27.6383 83.3466C27.0642 83.3445 26.4863 83.3538 25.9205 83.2052C23.7881 82.6447 23.0163 80.4735 24.2985 78.6336C24.665 78.1077 25.1364 77.6779 25.5915 77.2352C25.7507 77.0803 25.7538 77.0047 25.5931 76.8441C21.204 72.4654 16.8208 68.0807 12.4376 63.6963C11.6458 62.9043 11.5626 61.7925 12.2291 60.9592C12.2871 60.8867 12.3529 60.8199 12.4186 60.7541C13.6775 59.4944 14.9347 58.2327 16.1996 56.9789C16.3398 56.8397 16.3712 56.7701 16.2113 56.6113C14.6228 55.0333 13.0452 53.4447 11.4631 51.8605C9.51327 49.908 9.51137 46.9044 11.463 44.9545C13.9892 42.4304 16.5164 39.9074 19.0444 37.3849C22.8086 33.6289 26.5738 29.8742 30.3384 26.1187C32.2237 24.2377 34.1079 22.356 35.9929 20.4749C37.8718 18.5998 39.7505 16.7243 41.6301 14.8501C42.7831 13.7003 43.937 12.5516 45.0921 11.4041C46.9812 9.52724 50.0021 9.53259 51.8841 11.4165C53.4725 13.0065 55.0606 14.5966 56.6427 16.193C56.7843 16.336 56.8784 16.3629 57.0675 16.2597C61.5163 13.8253 67.0371 14.57 70.6981 18.0759C72.6032 19.9004 73.8561 22.0787 74.3559 24.6775C74.5609 25.7417 74.5963 26.8143 74.5032 27.8926C74.4915 28.0271 74.4808 28.1616 74.4676 28.3206ZM32.7948 64.6375C32.1458 65.8546 31.355 66.8976 30.4098 67.8224C30.2938 67.9358 30.3627 67.9842 30.437 68.0582C31.1217 68.7411 31.8049 69.4252 32.4885 70.1091C33.4281 71.0493 33.4302 72.1975 32.4935 73.1342C30.4546 75.1733 28.4151 77.2116 26.3772 79.2517C26.1007 79.5285 25.8374 79.8165 25.7141 80.201C25.577 80.6291 25.7229 80.9796 26.127 81.1717C26.4075 81.305 26.7083 81.3468 27.017 81.3479C28.0938 81.3515 29.1708 81.3606 30.2475 81.3627C33.9876 81.3701 37.7276 81.3767 41.4676 81.381C45.1655 81.3853 48.8634 81.3874 52.5613 81.3896C58.0572 81.3929 63.5532 81.394 69.0492 81.3986C72.2294 81.4014 75.4097 81.4109 78.5901 81.4131C80.263 81.4143 81.4798 80.1941 81.4834 78.5278C81.4867 77.0778 81.4986 75.6277 81.5005 74.1777C81.5053 70.4291 81.5072 66.6802 81.5095 62.9316C81.5128 56.9183 81.5141 50.905 81.5186 44.8917C81.5197 43.4076 81.5309 41.9238 81.5335 40.4398C81.5407 35.9618 81.5466 31.484 81.5513 27.006C81.5514 26.7176 81.5292 26.4295 81.4447 26.1515C81.2512 25.5138 80.7669 25.3134 80.1769 25.6259C79.8885 25.7785 79.6551 26.0013 79.427 26.2299C77.6536 28.0067 75.8814 29.7846 74.1066 31.5603C73.7896 31.8775 73.4938 32.219 73.1022 32.4541C73.0482 32.4866 73.0086 32.551 72.9755 32.6082C72.4079 33.5811 71.7182 34.4574 70.9027 35.2342C69.1538 36.8998 67.0958 37.95 64.7079 38.3426C63.8425 38.4849 62.9728 38.5277 62.098 38.4636C62.0282 38.4585 61.9048 38.3941 61.95 38.5641C62.0826 39.063 61.9857 39.559 61.925 40.0535C61.514 43.3988 60.0647 46.2188 57.6074 48.5186C56.2444 49.7944 54.6745 50.7244 52.8842 51.2719C52.7711 51.3064 52.6635 51.3223 52.7131 51.5045C52.9241 52.2811 52.6939 52.9363 52.1345 53.4947C50.742 54.8852 49.3517 56.2779 47.9594 57.6687C47.3052 58.3222 46.5056 58.4753 45.6498 58.1121C45.065 57.8638 44.4804 57.6163 43.8992 57.3598C43.7706 57.303 43.6888 57.3156 43.5884 57.4169C42.8008 58.2124 42.0096 59.0047 41.213 59.7912C41.1021 59.9005 41.0928 59.986 41.1541 60.122C41.415 60.7008 41.6657 61.284 41.9184 61.8666C42.2731 62.6836 42.1208 63.501 41.4927 64.135C41.0092 64.623 40.5216 65.1069 40.0357 65.5926C39.1301 66.4982 38.2276 67.4071 37.318 68.3084C36.2746 69.3427 34.6508 69.0303 34.0577 67.6848C33.9416 67.4215 33.8367 67.1533 33.7265 66.8872C33.4224 66.1526 33.1184 65.4184 32.7948 64.6375ZM51.0132 27.9548C51.0132 27.8964 51.0188 27.8455 51.0124 27.7962C50.9081 27.0023 50.9017 26.206 50.9872 25.412C51.3204 22.3132 52.6924 19.7531 55.0276 17.7042C55.1937 17.5584 55.1595 17.4977 55.0295 17.3682C53.5208 15.8667 52.0169 14.3604 50.5118 12.855C49.3595 11.7021 47.613 11.6983 46.4603 12.8472C43.5413 15.7565 40.6221 18.6657 37.7038 21.5758C35.8363 23.4381 33.9694 25.3009 32.103 27.1645C29.2825 29.9808 26.4635 32.7984 23.6422 35.6139C20.0469 39.2018 16.4487 42.7873 12.8538 46.3759C11.7014 47.5263 11.7018 49.2795 12.8481 50.4296C14.4283 52.0154 16.0112 53.5983 17.585 55.1908C17.7508 55.3584 17.8354 55.3843 18.0119 55.1986C18.774 54.3955 19.6311 53.7047 20.5859 53.1416C22.7393 51.8719 25.0143 51.4104 27.4627 52.1243C27.5055 52.1369 27.5592 52.1673 27.607 52.102C27.1344 50.9581 26.6582 49.8093 26.1857 48.659C25.8274 47.7869 25.9835 47.0249 26.6524 46.3559C27.8154 45.1923 28.9792 44.0291 30.1424 42.8658C30.9278 42.0804 31.6356 41.9402 32.6569 42.3634C34.6585 43.193 36.6607 44.0213 38.6633 44.8487C38.7413 44.881 38.8161 44.9423 38.9278 44.9162C38.8742 44.8005 38.8283 44.7014 38.7826 44.6023C37.5394 41.9019 37.3225 39.1265 38.2161 36.2857C39.5274 32.1157 43.5152 28.6413 47.838 27.9225C48.8859 27.7477 49.9559 27.4763 51.0132 27.9548ZM62.286 36.5134C65.5895 36.5134 68.1587 35.3718 70.0035 33.3396C72.7814 30.2793 73.3638 26.075 71.4742 22.3603C69.5438 18.5657 65.3837 16.2291 61.0133 16.9514C56.8553 17.6387 53.4212 21.2254 52.9697 25.4297C52.7067 27.8796 53.2777 30.1348 54.7046 32.1377C56.6938 34.9299 59.4077 36.4224 62.286 36.5134ZM39.6649 39.7011C39.6514 40.3512 39.7212 40.9907 39.8572 41.6218C40.4144 44.2047 41.813 46.254 43.9075 47.8195C46.3419 49.639 49.0575 50.242 52.0238 49.471C54.0084 48.9553 55.6371 47.8416 57.0029 46.3329C58.8115 44.3352 59.7962 41.9794 60.0267 39.3011C60.0391 39.1555 60.0345 39.0329 59.9126 38.9115C57.941 36.9494 55.9743 34.9821 54.0105 33.0122C53.8989 32.9005 53.838 32.8796 53.7138 33.0041C51.7572 34.9693 49.7961 36.9301 47.8314 38.887C47.7185 38.9994 47.724 39.0531 47.8335 39.1615C48.7856 40.1043 49.7338 41.0512 50.6757 42.0041C50.8041 42.1341 50.8703 42.1224 50.9923 41.998C51.6818 41.2965 52.3862 40.6095 53.0721 39.9043C53.2262 39.746 53.3045 39.7605 53.4431 39.9119C53.7061 40.1996 53.9841 40.4748 54.2702 40.7393C54.4016 40.8607 54.4249 40.9719 54.3705 41.1365C54.1419 41.8273 53.7339 42.4014 53.2451 42.9285C52.0028 44.2691 50.2181 44.703 48.559 44.0316C47.2687 43.5095 46.3003 42.6129 45.6683 41.3727C45.2092 40.4717 45.0431 39.5145 45.2525 38.5134C45.5601 37.0438 46.5375 36.1291 47.8207 35.4937C48.6222 35.0966 49.494 34.9655 50.381 34.9227C50.4797 34.9179 50.6258 34.9771 50.5992 34.7564C50.4037 33.1417 50.2142 31.5263 50.037 29.9095C50.014 29.6995 49.9286 29.6736 49.7545 29.6831C49.0425 29.7218 48.337 29.804 47.6417 29.9649C45.7856 30.3946 44.2081 31.3279 42.8375 32.6318C40.815 34.556 39.703 36.8885 39.6649 39.7011ZM35.881 66.9406C35.924 66.9057 35.9587 66.8822 35.9877 66.8532C37.3312 65.5106 38.6724 64.1656 40.0204 62.8274C40.1316 62.7171 40.1062 62.6365 40.0556 62.5217C39.6435 61.5851 39.2405 60.6447 38.8214 59.7116C38.7447 59.5408 38.7753 59.4455 38.9012 59.3205C40.3085 57.9216 41.7121 56.5191 43.1095 55.1103C43.2419 54.9769 43.3431 54.9719 43.5037 55.0423C44.4255 55.4467 45.3541 55.836 46.2752 56.242C46.4508 56.3193 46.5542 56.2953 46.6893 56.1591C47.9967 54.8401 49.3122 53.5296 50.6253 52.2162C50.8228 52.0186 50.823 52.0166 50.5635 51.9093C44.3357 49.3318 38.1071 46.7554 31.8814 44.1724C31.7205 44.1057 31.6406 44.1503 31.5363 44.2551C30.3997 45.3969 29.2627 46.5384 28.1167 47.6708C27.9869 47.7991 27.9964 47.8915 28.0578 48.0396C29.9437 52.5858 31.8252 57.1332 33.7072 61.681C34.4306 63.4293 35.1529 65.1784 35.881 66.9406ZM31.8676 60.6731C31.8839 60.1446 31.8343 59.6237 31.7086 59.1104C31.3294 57.5604 30.4466 56.3312 29.2466 55.3203C27.6847 54.0044 25.9003 53.4725 23.8765 53.9119C22.2279 54.27 20.8622 55.1512 19.6789 56.3155C17.7511 58.2125 15.8513 60.1381 13.9338 62.0455C13.7923 62.1862 13.7979 62.2551 13.9363 62.3932C18.305 66.7538 22.6696 71.118 27.0305 75.4863C27.1622 75.6184 27.2248 75.6255 27.3594 75.4893C28.5765 74.2604 29.799 73.0366 31.029 71.8207C31.1858 71.6657 31.1922 71.59 31.0307 71.4308C29.9076 70.3239 28.7982 69.2028 27.6783 68.0926C27.5526 67.9679 27.5488 67.9006 27.6789 67.7778C28.0237 67.4517 28.3515 67.1076 28.6896 66.7742C29.4336 66.0405 30.1279 65.267 30.679 64.3731C31.3799 63.2365 31.8296 62.0209 31.8676 60.6731Z" fill="#FEFDFD"/>
<path fill-rule="evenodd" clip-rule="evenodd" d="M32.7832 64.6375C33.1068 65.4185 33.4108 66.1526 33.7149 66.8866C33.825 67.1527 33.93 67.4208 34.0461 67.6841C34.6391 69.0297 36.263 69.3422 37.3064 68.3078C38.2162 67.4063 39.1185 66.4976 40.0241 65.592C40.5098 65.1063 40.9976 64.6223 41.481 64.1344C42.1092 63.5004 42.2615 62.6831 41.9068 61.8659C41.6541 61.2836 41.4033 60.7001 41.1425 60.1214C41.0812 59.9853 41.0905 59.8998 41.2013 59.7905C41.998 59.0041 42.7891 58.2117 43.5768 57.4163C43.6771 57.3149 43.759 57.3023 43.8876 57.3591C44.4686 57.6157 45.0534 57.8633 45.6382 58.1114C46.4939 58.4747 47.2935 58.3215 47.9478 57.668C49.3399 56.2772 50.7302 54.8845 52.1229 53.4941C52.6821 52.9359 52.9123 52.2804 52.7015 51.5038C52.6519 51.3218 52.7595 51.3058 52.8726 51.2712C54.6629 50.7239 56.2329 49.7938 57.5958 48.518C60.0529 46.2179 61.5024 43.3982 61.9133 40.0529C61.9741 39.5584 62.0708 39.0623 61.9384 38.5635C61.8931 38.3934 62.0166 38.458 62.0863 38.463C62.9612 38.5271 63.8309 38.4844 64.6963 38.342C67.0842 37.9495 69.1422 36.8992 70.8911 35.2335C71.7065 34.4567 72.3963 33.5805 72.9639 32.6075C72.997 32.5504 73.0367 32.4858 73.0906 32.4535C73.4824 32.2185 73.778 31.8768 74.095 31.5596C75.8698 29.784 77.642 28.0061 79.4154 26.2292C79.6433 26.0008 79.8769 25.778 80.1653 25.6252C80.7552 25.3127 81.2396 25.5132 81.4331 26.1508C81.5175 26.4288 81.5398 26.717 81.5396 27.0053C81.5352 31.4833 81.5291 35.9613 81.5219 40.4391C81.5193 41.9231 81.508 43.407 81.507 44.891C81.5027 50.9043 81.5011 56.9176 81.4979 62.9309C81.4956 66.6796 81.4939 70.4284 81.4889 74.1771C81.487 75.6271 81.4751 77.0771 81.4718 78.5271C81.4682 80.1935 80.2516 81.4137 78.5785 81.4125C75.3981 81.4102 72.2178 81.4007 69.0375 81.398C63.5415 81.3935 58.0455 81.3923 52.5497 81.389C48.8518 81.3867 45.1539 81.3848 41.456 81.3804C37.716 81.376 33.976 81.3695 30.2359 81.3621C29.1592 81.36 28.0821 81.351 27.0054 81.3472C26.6967 81.3462 26.3959 81.3046 26.1153 81.1711C25.7113 80.9789 25.5654 80.6282 25.7025 80.2004C25.8258 79.8157 26.0891 79.5277 26.3655 79.2511C28.4035 77.2111 30.4429 75.1726 32.4819 73.1335C33.4186 72.1968 33.4165 71.0488 32.4769 70.1085C31.7933 69.4246 31.1101 68.7405 30.4253 68.0576C30.3509 67.9833 30.2822 67.9352 30.3982 67.8217C31.3436 66.8977 32.1343 65.8546 32.7832 64.6375ZM70.4016 57.4099C70.4903 57.5233 70.5416 57.5881 70.592 57.6533C70.8878 58.037 71.2013 58.4051 71.5755 58.7143C71.9623 59.0339 72.4044 59.1781 72.9022 59.041C73.3638 58.9138 73.6336 58.5766 73.8199 58.1549C74.3056 57.0561 74.5076 55.891 74.6261 54.7072C74.6693 54.2766 74.6893 53.8434 74.7236 53.3566C74.8184 53.4675 74.873 53.5291 74.9253 53.5928C75.2157 53.9473 75.5105 54.2977 75.8806 54.5743C76.6133 55.1218 77.5256 54.9173 77.9503 54.1093C78.0926 53.8391 78.2043 53.5549 78.2955 53.2639C78.9414 51.2016 78.9946 49.0819 78.9052 46.9481C78.8998 46.816 78.8347 46.7687 78.7189 46.7572C78.482 46.7333 78.2446 46.7275 78.0087 46.7594C77.6396 46.8093 77.5653 46.8974 77.5862 47.2777C77.6333 48.1455 77.543 49.0044 77.4144 49.8595C77.3718 50.1432 77.3125 50.4269 77.187 50.6901C77.024 51.0316 76.8163 51.0614 76.5746 50.7676C76.4786 50.6509 76.3955 50.5195 76.328 50.3841C76.0518 49.8302 75.8185 49.2592 75.6431 48.6644C74.69 45.4309 74.0788 42.1291 73.6621 38.7886C73.636 38.5797 73.5457 38.497 73.3408 38.4804C72.9257 38.4469 72.5132 38.4409 72.0978 38.4842C71.4912 38.5476 71.3317 38.7249 71.3667 39.3367C71.3705 39.4043 71.3771 39.472 71.3859 39.5392C71.4634 40.1271 71.5434 40.7147 71.6199 41.3026C71.912 43.5465 72.2857 45.7768 72.8273 47.9743C73.2892 49.8482 73.572 51.7283 73.256 53.6576C73.1863 54.0839 73.1212 54.5123 72.9419 54.9097C72.7864 55.2551 72.6116 55.2741 72.3611 54.9836C72.2213 54.8217 72.1237 54.634 72.0341 54.4413C71.8196 53.9805 71.6347 53.5084 71.4688 53.0275C70.9695 51.5803 70.663 50.0895 70.4584 48.5765C70.423 48.3154 70.3147 48.2136 70.0547 48.2006C69.6557 48.1806 69.2586 48.178 68.8613 48.2132C68.2809 48.265 68.0826 48.5009 68.1566 49.0845C68.2939 50.1686 68.5182 51.2384 68.7014 52.315C68.9001 53.4832 69.1645 54.6437 69.1769 55.8364C69.1903 57.1359 69.1354 58.4315 68.7675 59.689C68.5524 60.4249 68.1842 61.0807 67.5898 61.5838C67.0371 62.0517 66.4675 62.0205 65.9623 61.5082C65.6389 61.1801 65.3719 60.8091 65.1521 60.4049C64.1376 58.54 63.8389 56.5442 64.0671 54.4525C64.0885 54.2557 64.1478 54.0708 64.2729 53.9135C64.4484 53.693 64.6445 53.6911 64.8182 53.914C64.9929 54.1379 65.0979 54.3969 65.1632 54.6713C65.316 55.3138 65.4683 55.9562 65.6135 56.6004C65.6392 56.7151 65.6599 56.7551 65.7925 56.7118C66.4868 56.4848 66.8965 56.003 67.0436 55.3034C67.1823 54.6454 67.0889 53.9976 66.8233 53.3888C66.5384 52.7361 66.0255 52.339 65.307 52.2635C64.3976 52.168 63.6954 52.5798 63.1334 53.247C62.6211 53.8549 62.3371 54.5831 62.1568 55.3488C61.7213 57.1989 61.8943 59.0129 62.4838 60.8056C62.963 62.2634 62.98 63.735 62.5325 65.2054C62.4778 65.3853 62.4356 65.6243 62.2112 65.6531C61.9777 65.683 61.865 65.4652 61.7604 65.2953C61.4791 64.8392 61.2854 64.341 61.1034 63.8398C60.5371 62.2807 60.1928 60.668 59.9724 59.0274C59.9427 58.8055 59.8556 58.7005 59.6216 58.6865C59.1972 58.661 58.7745 58.6555 58.3518 58.6978C57.8055 58.7523 57.618 58.9735 57.6738 59.5176C57.708 59.852 57.771 60.1832 57.8245 60.5385C57.6322 60.4641 57.4632 60.3909 57.2891 60.3329C56.6497 60.1205 56.0896 60.2388 55.6171 60.7352C55.3399 61.0266 55.1182 61.3543 54.9328 61.7092C54.3062 62.9069 54.0643 64.1983 54.0286 65.5326C53.9838 67.201 54.3504 68.7943 54.9628 70.3381C55.3603 71.3399 55.8747 72.2709 56.6418 73.0387C57.4025 73.7998 58.4601 73.7556 59.1772 72.9567C59.389 72.7205 59.546 72.4515 59.6727 72.1626C60.1025 71.1848 60.1068 70.1535 60.0524 69.1158C60.0322 68.727 60.0042 68.3387 59.9389 67.9505C60.2953 68.3713 60.6286 68.7988 61.0421 69.1533C61.8811 69.8721 62.8742 69.6561 63.3304 68.6505C63.8232 67.5643 64.0191 66.4054 64.1421 65.2311C64.1849 64.8209 64.2047 64.4082 64.2374 63.965C64.5375 64.1489 64.8077 64.3205 65.0977 64.4566C66.194 64.9704 67.2814 64.8074 68.1304 64.0014C68.4831 63.6666 68.7815 63.289 69.0358 62.8753C69.8 61.632 70.092 60.2469 70.251 58.8223C70.3016 58.3707 70.3475 57.9196 70.4016 57.4099ZM49.4042 70.0104C49.1875 68.6338 48.8762 67.3333 48.7377 66.0029C48.6607 65.262 48.8069 64.6037 49.2508 63.9678C50.3039 62.4594 51.3623 60.9565 52.4984 59.5094C53.383 58.3828 54.2715 57.2591 55.1564 56.1325C55.2322 56.0357 55.3467 55.9355 55.2648 55.7957C55.1844 55.6581 55.0433 55.7064 54.9183 55.7157C53.4976 55.8212 52.3116 56.421 51.2712 57.379C49.986 58.5624 48.876 59.8947 47.8443 61.2951C45.9651 63.8464 44.4444 66.6174 42.9229 69.3871C42.6501 69.8838 42.3896 70.3896 42.2465 70.9433C42.108 71.4785 42.2782 71.7324 42.8197 71.8137C42.8863 71.8237 42.9547 71.827 43.0222 71.8256C43.5754 71.8152 43.9479 71.4879 44.2714 71.0923C45.185 69.9759 46.0055 68.7923 46.7977 67.588C46.8451 67.5154 46.8781 67.3828 46.9822 67.4055C47.0741 67.4253 47.0399 67.5508 47.0506 67.6311C47.2614 69.2177 47.4767 70.804 47.7749 72.3769C47.8186 72.6078 47.7855 72.7856 47.6539 72.9684C47.3604 73.3761 47.1235 73.8138 46.9751 74.2971C46.8943 74.5602 46.9791 74.7636 47.1889 74.9219C47.34 75.0357 47.5137 75.1048 47.7 75.1362C47.917 75.173 48.1354 75.2011 48.3525 75.2376C48.5559 75.2716 48.6726 75.3793 48.7232 75.5948C49.0357 76.9257 49.643 78.1183 50.4534 79.2121C50.6358 79.4581 50.8391 79.6846 51.0886 79.8668C51.6232 80.2572 52.5271 80.2757 53.0252 79.9048C53.2442 79.742 53.26 79.6455 53.0691 79.4569C52.8054 79.1971 52.615 78.8895 52.4456 78.5654C51.9229 77.5656 51.5196 76.5142 51.1083 75.4662C50.8209 74.7337 50.5056 74.0105 50.3745 73.2266C50.3051 72.8099 50.3497 72.4389 50.6371 72.0853C51.3318 71.2304 51.9937 70.349 52.6695 69.4786C52.9917 69.0634 53.3075 68.6433 53.5865 68.1975C53.7585 67.9227 53.7335 67.8388 53.4553 67.6689C53.163 67.4906 52.8481 67.422 52.5059 67.468C51.9457 67.5429 51.4866 67.825 51.0665 68.1762C50.446 68.6947 49.9278 69.3094 49.4042 70.0104ZM58.3493 54.7545C58.3672 53.9763 58.087 53.684 57.4114 53.679C57.027 53.6761 56.6561 53.7622 56.2846 53.8498C56.0822 53.8972 56.037 54.0045 56.0599 54.1968C56.2164 55.5075 56.1359 56.7999 55.7396 58.0651C55.7061 58.1722 55.6877 58.2801 55.6985 58.3909C55.7162 58.5738 55.8146 58.6846 55.9998 58.7143C56.3462 58.7698 56.8499 58.5279 57.0165 58.214C57.2306 57.8101 57.4424 57.4047 57.6441 56.9945C58.0082 56.2534 58.3 55.4888 58.3493 54.7545ZM69.77 44.0847C69.7693 43.4807 69.6439 43.0404 69.4136 42.7029C68.9687 42.0514 68.2131 41.9796 67.65 42.5352C66.8841 43.2911 66.8729 44.8216 67.6267 45.6835C68.08 46.2017 68.6817 46.202 69.1379 45.6811C69.57 45.1875 69.762 44.6044 69.77 44.0847Z" fill="#CA0488"/>
<path fill-rule="evenodd" clip-rule="evenodd" d="M51.0089 27.9547C49.9515 27.4763 48.8815 27.7477 47.8335 27.9219C43.5109 28.6407 39.5229 32.1152 38.2115 36.2852C37.318 39.126 37.5349 41.9013 38.778 44.6018C38.8238 44.7009 38.8697 44.8 38.9232 44.9157C38.8115 44.9416 38.7368 44.8804 38.6587 44.8481C36.6562 44.0207 34.654 43.1927 32.6523 42.3628C31.631 41.9397 30.9231 42.0799 30.1379 42.8653C28.9746 44.0287 27.8109 45.1917 26.6478 46.3553C25.9789 47.0244 25.8229 47.7865 26.1811 48.6584C26.6537 49.8087 27.1299 50.9574 27.6025 52.1015C27.5547 52.1668 27.501 52.1364 27.4581 52.1238C25.0098 51.4096 22.7348 51.8713 20.5814 53.1411C19.6265 53.7041 18.7694 54.395 18.0073 55.198C17.831 55.3838 17.7463 55.3579 17.5805 55.1902C16.0069 53.5978 14.4239 52.0148 12.8435 50.4291C11.6972 49.279 11.6969 47.5258 12.8492 46.3753C16.4442 42.7867 20.0423 39.2014 23.6377 35.6133C26.4589 32.7979 29.278 29.9802 32.0984 27.1639C33.9649 25.3006 35.8316 23.4375 37.6992 21.5752C40.6176 18.6652 43.5368 15.756 46.4558 12.8466C47.6085 11.6977 49.3549 11.7017 50.5073 12.8544C52.0124 14.3598 53.5163 15.8662 55.025 17.3676C55.155 17.4971 55.1892 17.5579 55.0231 17.7036C52.6878 19.7524 51.3157 22.3125 50.9826 25.4114C50.8973 26.2055 50.9037 27.0018 51.0078 27.7957C51.0144 27.8454 51.0089 27.8962 51.0089 27.9547Z" fill="#CA0288"/>
<path fill-rule="evenodd" clip-rule="evenodd" d="M62.2766 36.5129C59.3984 36.422 56.6846 34.9295 54.6954 32.1373C53.2686 30.1343 52.6976 27.8794 52.9605 25.4296C53.412 21.2252 56.846 17.6386 61.004 16.9514C65.3743 16.229 69.5343 18.5657 71.4646 22.3602C73.3541 26.0749 72.7718 30.279 69.9939 33.3392C68.1492 35.3713 65.5801 36.5129 62.2766 36.5129ZM63.2411 31.0081C64.3112 31.0079 65.3651 30.5644 66.0393 29.8256C67.1652 28.5918 67.4142 27.1786 66.8482 25.6276C66.1726 23.7764 64.2853 22.3619 62.4577 22.2994C60.0725 22.218 58.1786 24.1515 58.354 26.4895C58.5343 28.892 60.8234 31.0086 63.2411 31.0081Z" fill="#2F488A"/>
<path fill-rule="evenodd" clip-rule="evenodd" d="M39.6618 39.7009C39.7002 36.8883 40.8119 34.5559 42.8344 32.6319C44.205 31.328 45.7824 30.3948 47.6384 29.9651C48.3337 29.8042 49.0392 29.722 49.7512 29.6833C49.9253 29.6738 50.0107 29.6997 50.0337 29.9096C50.2107 31.5264 50.4004 33.1418 50.5959 34.7565C50.6225 34.9771 50.4766 34.9181 50.3776 34.9228C49.4907 34.9656 48.6188 35.0966 47.8175 35.4937C46.5343 36.1293 45.5569 37.0438 45.2494 38.5133C45.0399 39.5144 45.206 40.4716 45.6651 41.3725C46.2971 42.6127 47.2657 43.5092 48.5558 44.0315C50.2147 44.7029 51.9992 44.2689 53.2417 42.9284C53.7305 42.4011 54.1383 41.8271 54.3671 41.1363C54.4214 40.9718 54.3981 40.8606 54.2667 40.7392C53.9807 40.4747 53.7027 40.1995 53.4397 39.9119C53.3009 39.7604 53.2227 39.7459 53.0687 39.9043C52.3829 40.6094 51.6784 41.2964 50.989 41.9979C50.8669 42.122 50.8008 42.134 50.6724 42.0039C49.7305 41.0511 48.7823 40.1044 47.8303 39.1615C47.7208 39.0531 47.7153 38.9994 47.8282 38.887C49.7928 36.9301 51.7539 34.9694 53.7104 33.0042C53.8346 32.8797 53.8955 32.9004 54.0071 33.0123C55.9709 34.9821 57.9374 36.9494 59.909 38.9115C60.0309 39.0329 60.0356 39.1554 60.0231 39.301C59.7926 41.9793 58.808 44.335 56.9994 46.3326C55.6337 47.8413 54.005 48.955 52.0205 49.4707C49.0542 50.2416 46.3387 49.6387 43.9044 47.8192C41.8099 46.2537 40.4113 44.2045 39.8542 41.6217C39.7181 40.9904 39.6482 40.3509 39.6618 39.7009Z" fill="#2F488A"/>
<path fill-rule="evenodd" clip-rule="evenodd" d="M35.8743 66.9399C35.146 65.1778 34.4239 63.4288 33.7005 61.6803C31.8187 57.1326 29.9371 52.5852 28.0513 48.0393C27.9899 47.8913 27.9804 47.7988 28.1102 47.6705C29.2561 46.538 30.3931 45.3966 31.5297 44.2548C31.634 44.15 31.7139 44.1055 31.8748 44.1721C38.1005 46.7551 44.3288 49.3315 50.5564 51.9089C50.8159 52.0163 50.8157 52.0184 50.6182 52.2157C49.3053 53.5289 47.9896 54.8396 46.6823 56.1585C46.5472 56.2947 46.4437 56.3189 46.2682 56.2414C45.3471 55.8353 44.4186 55.4461 43.4967 55.0418C43.336 54.9713 43.2348 54.9761 43.1026 55.1098C41.7052 56.5185 40.3017 57.921 38.8944 59.3199C38.7685 59.4449 38.738 59.54 38.8146 59.7109C39.2338 60.644 39.6368 61.5846 40.0488 62.5209C40.0994 62.6357 40.1246 62.7166 40.0135 62.8267C38.6654 64.1648 37.3244 65.5098 35.981 66.8524C35.9521 66.8816 35.9173 66.9049 35.8743 66.9399ZM38.7597 52.8665C37.5031 52.3079 36.2826 51.7654 35.0067 51.1981C35.1358 51.4928 35.2372 51.7236 35.3387 51.9548C35.7494 52.8915 36.1585 53.829 36.5751 54.7633C36.6006 54.8206 36.5967 55.0267 36.7583 54.8662C37.4182 54.2092 38.0758 53.5502 38.7597 52.8665Z" fill="#2F488A"/>
<path fill-rule="evenodd" clip-rule="evenodd" d="M31.8613 60.673C31.8231 62.0209 31.3735 63.2364 30.6727 64.3727C30.1216 65.2665 29.4272 66.04 28.6834 66.7736C28.3453 67.107 28.0176 67.4511 27.6726 67.7773C27.5426 67.9001 27.5466 67.9676 27.6721 68.092C28.792 69.2022 29.9013 70.3233 31.0244 71.4302C31.186 71.5894 31.1795 71.6648 31.0227 71.8201C29.7927 73.0359 28.5703 74.2597 27.3532 75.4885C27.2185 75.6247 27.1559 75.6177 27.0243 75.4856C22.6635 71.1173 18.2991 66.7533 13.9305 62.3928C13.792 62.2547 13.7865 62.186 13.9279 62.0451C15.8454 60.1377 17.7452 58.2124 19.6729 56.3153C20.8561 55.151 22.2218 54.2698 23.8704 53.9117C25.8941 53.4723 27.6785 54.0042 29.2404 55.3201C30.4403 56.331 31.3231 57.5603 31.7023 59.1101C31.828 59.6236 31.8775 60.1445 31.8613 60.673ZM21.2719 61.7379C21.3497 61.7961 21.4178 61.8351 21.4715 61.8885C22.3474 62.7612 23.2236 63.6337 24.0934 64.5125C24.2062 64.6265 24.2561 64.5626 24.3327 64.4858C24.7922 64.023 25.2556 63.5641 25.7145 63.1009C25.8937 62.9201 26.0469 62.7167 26.1781 62.4985C26.9623 61.1916 26.2681 59.6337 24.781 59.381C24.1793 59.2786 23.6632 59.5201 23.2062 59.877C22.51 60.4204 21.9471 61.1044 21.2719 61.7379Z" fill="#2F488A"/>
<path fill-rule="evenodd" clip-rule="evenodd" d="M70.4071 57.4094C70.3531 57.9189 70.3072 58.3701 70.2569 58.8209C70.0979 60.2455 69.806 61.6304 69.0418 62.8739C68.7875 63.2875 68.4891 63.6651 68.1364 63.9999C67.2874 64.8059 66.1998 64.9687 65.1038 64.455C64.8136 64.319 64.5435 64.1475 64.2435 63.9635C64.211 64.4067 64.191 64.8194 64.1481 65.2296C64.0252 66.4038 63.8293 67.5627 63.3365 68.6489C62.8803 69.6544 61.8872 69.8704 61.0483 69.1517C60.6347 68.7972 60.3017 68.3697 59.9452 67.9489C60.0104 68.3371 60.0384 68.7254 60.0586 69.1142C60.1128 70.1519 60.1087 71.183 59.6789 72.1609C59.5522 72.4498 59.3951 72.7186 59.1834 72.955C58.4665 73.7539 57.409 73.7981 56.6481 73.037C55.8811 72.2693 55.3666 71.3382 54.9692 70.3364C54.3568 68.7927 53.9902 67.1994 54.0349 65.531C54.0707 64.1967 54.3126 62.9054 54.9391 61.7077C55.1246 61.3529 55.3461 61.0252 55.6234 60.7338C56.0958 60.2374 56.6559 60.1189 57.2954 60.3315C57.4694 60.3895 57.6383 60.4629 57.8308 60.5371C57.7773 60.1818 57.7143 59.8505 57.6801 59.5162C57.6243 58.9721 57.8118 58.751 58.3581 58.6964C58.7806 58.6541 59.2034 58.6595 59.6278 58.6852C59.8618 58.6992 59.949 58.804 59.9786 59.026C60.1988 60.6666 60.5432 62.2792 61.1096 63.8383C61.2915 64.3394 61.4853 64.8377 61.7665 65.2938C61.8711 65.4637 61.9841 65.6814 62.2173 65.6516C62.442 65.6227 62.4839 65.3838 62.5386 65.2039C62.9862 63.7333 62.9691 62.262 62.4899 60.8042C61.9007 59.0115 61.7275 57.1976 62.1629 55.3475C62.3432 54.5818 62.6272 53.8537 63.1395 53.2458C63.7015 52.5786 64.4037 52.1669 65.3131 52.2623C66.0315 52.3378 66.5445 52.7347 66.8293 53.3875C67.0949 53.9962 67.1883 54.6441 67.0497 55.3021C66.9024 56.0017 66.4927 56.4835 65.7986 56.7105C65.6658 56.754 65.6453 56.714 65.6195 56.5991C65.4742 55.9551 65.3219 55.3125 65.1692 54.67C65.104 54.3957 64.999 54.1367 64.8243 53.9128C64.6506 53.6899 64.4543 53.6918 64.279 53.9122C64.1537 54.0695 64.0946 54.2545 64.0732 54.4513C63.845 56.5427 64.1437 58.5386 65.1582 60.4035C65.378 60.8077 65.6449 61.1785 65.9683 61.5068C66.4735 62.0192 67.0431 62.0503 67.5958 61.5824C68.1902 61.0793 68.5583 60.4235 68.7735 59.6876C69.1414 58.4303 69.1963 57.1347 69.1828 55.8351C69.1704 54.6426 68.9061 53.482 68.7073 52.3138C68.524 51.2373 68.2999 50.1675 68.1626 49.0834C68.0885 48.4998 68.2869 48.2639 68.8672 48.2121C69.2645 48.1767 69.6618 48.1795 70.0606 48.1995C70.3207 48.2127 70.4289 48.3144 70.4643 48.5754C70.6689 50.0884 70.9754 51.5791 71.4747 53.0263C71.6406 53.5072 71.8255 53.9794 72.04 54.4401C72.1296 54.6326 72.2271 54.8204 72.367 54.9824C72.6175 55.273 72.7922 55.2538 72.9478 54.9085C73.127 54.511 73.1921 54.0827 73.2619 53.6564C73.5777 51.7271 73.2948 49.847 72.8332 47.9732C72.2915 45.7758 71.9179 43.5456 71.6258 41.3017C71.5493 40.7138 71.4693 40.1263 71.3918 39.5384C71.3828 39.4712 71.3764 39.4035 71.3727 39.3358C71.3378 38.7241 71.4973 38.5468 72.1037 38.4834C72.5191 38.4401 72.9316 38.446 73.3466 38.4796C73.5518 38.4962 73.6419 38.5787 73.668 38.7878C74.0846 42.1284 74.6958 45.4301 75.6489 48.6633C75.8243 49.2581 76.0575 49.8291 76.3338 50.383C76.4013 50.5183 76.4843 50.6497 76.5803 50.7664C76.8219 51.0603 77.0298 51.0304 77.1928 50.6889C77.3184 50.4258 77.3775 50.1421 77.4201 49.8584C77.5488 49.0031 77.6392 48.1445 77.5919 47.2767C77.571 46.8963 77.6455 46.8083 78.0144 46.7584C78.2503 46.7264 78.4877 46.7323 78.7246 46.7561C78.8404 46.7677 78.9055 46.8152 78.9109 46.9471C79.0003 49.0808 78.9471 51.2005 78.3012 53.2627C78.2101 53.5538 78.0983 53.8378 77.9561 54.108C77.5313 54.9163 76.619 55.1205 75.8864 54.573C75.5161 54.2964 75.2214 53.9461 74.9311 53.5916C74.8788 53.5279 74.8242 53.4661 74.7295 53.3554C74.6951 53.8421 74.6751 54.2753 74.6319 54.706C74.5135 55.8895 74.3115 57.0548 73.8258 58.1536C73.6395 58.575 73.3694 58.9124 72.9081 59.0396C72.4103 59.1767 71.9683 59.0326 71.5814 58.713C71.2072 58.4039 70.8937 58.0356 70.5979 57.652C70.5472 57.5878 70.4959 57.523 70.4071 57.4094ZM58.7984 67.9424C58.7253 65.9996 58.4189 64.0838 58.115 62.1684C58.0528 61.7763 57.7424 61.543 57.2985 61.4978C56.9787 61.4653 56.7367 61.6397 56.5785 62.0233C56.3917 62.4766 56.3321 62.9533 56.3216 63.4393C56.2757 65.5336 56.7532 67.5204 57.5552 69.44C57.6668 69.7071 57.817 69.9547 58.0228 70.161C58.2989 70.4374 58.4845 70.3957 58.6167 70.0324C58.6542 69.9295 58.6823 69.8224 58.7055 69.7152C58.8319 69.1297 58.8142 68.5361 58.7984 67.9424Z" fill="#FEFCFD"/>
<path fill-rule="evenodd" clip-rule="evenodd" d="M49.4067 70.0099C49.9304 69.3089 50.4485 68.6942 51.0689 68.1759C51.489 67.8249 51.9481 67.5426 52.5082 67.4677C52.8504 67.4218 53.1653 67.4903 53.4576 67.6686C53.7356 67.8384 53.7608 67.9225 53.5888 68.1972C53.31 68.643 52.9942 69.063 52.6718 69.4783C51.9961 70.3486 51.3341 71.23 50.6395 72.0849C50.3522 72.4387 50.3075 72.8095 50.3769 73.2261C50.5079 74.01 50.8232 74.7333 51.1107 75.4657C51.522 76.5137 51.9253 77.565 52.4479 78.5649C52.6173 78.889 52.8077 79.1965 53.0714 79.4563C53.2623 79.6448 53.2465 79.7412 53.0275 79.9042C52.5294 80.2751 51.6255 80.2566 51.091 79.8662C50.8417 79.684 50.6381 79.4575 50.4558 79.2115C49.6455 78.1177 49.0381 76.9252 48.7256 75.5943C48.675 75.3788 48.5581 75.2711 48.3549 75.2371C48.1379 75.2007 47.9195 75.1725 47.7024 75.1357C47.5161 75.1041 47.3424 75.0352 47.1914 74.9215C46.9816 74.7631 46.8968 74.5597 46.9776 74.2966C47.1258 73.8133 47.3626 73.3757 47.6563 72.968C47.7879 72.7852 47.821 72.6073 47.7774 72.3765C47.479 70.8036 47.2637 69.2174 47.0531 67.6308C47.0424 67.5505 47.0767 67.4252 46.9847 67.4052C46.8804 67.3826 46.8476 67.5152 46.8001 67.5877C46.008 68.792 45.1875 69.9755 44.274 71.0919C43.9504 71.4875 43.578 71.815 43.0248 71.8252C42.9573 71.8266 42.8889 71.8231 42.8223 71.8133C42.2806 71.732 42.1106 71.4782 42.249 70.9429C42.3922 70.3892 42.6527 69.8835 42.9255 69.3868C44.447 66.6172 45.9676 63.8462 47.8468 61.295C48.8784 59.8948 49.9882 58.5624 51.2735 57.379C52.3139 56.4211 53.5001 55.8214 54.9205 55.7158C55.0455 55.7064 55.1866 55.6581 55.2671 55.7957C55.3489 55.9357 55.2346 56.0359 55.1586 56.1326C54.2738 57.259 53.3853 58.3826 52.5007 59.5094C51.3647 60.9564 50.3063 62.4592 49.2532 63.9676C48.8095 64.6035 48.6631 65.2618 48.7401 66.0027C48.8789 67.3328 49.19 68.6333 49.4067 70.0099Z" fill="#FEFDFE"/>
<path fill-rule="evenodd" clip-rule="evenodd" d="M58.3571 54.7545C58.3078 55.4889 58.0161 56.2535 57.6517 56.9945C57.4501 57.4047 57.2382 57.8102 57.0241 58.214C56.8575 58.5279 56.3539 58.77 56.0075 58.7144C55.8223 58.6847 55.7237 58.5738 55.7062 58.391C55.6954 58.2801 55.7138 58.1722 55.7473 58.0652C56.1438 56.7999 56.2242 55.5076 56.0676 54.197C56.0447 54.0048 56.0899 53.8976 56.2922 53.8499C56.6638 53.7624 57.0348 53.6762 57.419 53.6792C58.0948 53.6838 58.3748 53.9763 58.3571 54.7545Z" fill="#FEFBFC"/>
<path fill-rule="evenodd" clip-rule="evenodd" d="M69.7757 44.0847C69.7678 44.6044 69.5758 45.1874 69.1436 45.6811C68.6875 46.202 68.0858 46.2018 67.6325 45.6835C66.8787 44.8216 66.8899 43.2911 67.6558 42.5353C68.2189 41.9796 68.9744 42.0515 69.4194 42.7029C69.6497 43.0404 69.775 43.4807 69.7757 44.0847Z" fill="#FEFBFC"/>
<path fill-rule="evenodd" clip-rule="evenodd" d="M63.246 31.0082C60.8283 31.0087 58.5392 28.8921 58.359 26.4894C58.1834 24.1514 60.0772 22.218 62.4627 22.2994C64.2903 22.3619 66.1776 23.7763 66.8532 25.6275C67.4191 27.1786 67.1703 28.5917 66.0443 29.8255C65.37 30.5645 64.3161 31.008 63.246 31.0082Z" fill="#FEFEFE"/>
<path fill-rule="evenodd" clip-rule="evenodd" d="M38.761 52.8666C38.0771 53.5504 37.4193 54.2094 36.7594 54.8663C36.5978 55.0271 36.602 54.8208 36.5762 54.7634C36.1596 53.8292 35.7506 52.8917 35.3398 51.955C35.2383 51.724 35.137 51.493 35.0078 51.1982C36.2841 51.7654 37.5044 52.3081 38.761 52.8666Z" fill="#FBFBFC"/>
<path fill-rule="evenodd" clip-rule="evenodd" d="M21.2695 61.738C21.9448 61.1046 22.5077 60.4205 23.2036 59.8771C23.6607 59.5203 24.1767 59.2787 24.7784 59.3811C26.2655 59.6339 26.9598 61.1916 26.1756 62.4986C26.0444 62.717 25.8914 62.9202 25.712 63.101C25.2531 63.5644 24.7897 64.0233 24.3302 64.4859C24.2537 64.5627 24.2038 64.6266 24.0909 64.5126C23.2213 63.6338 22.345 62.7612 21.469 61.8886C21.4154 61.8351 21.3474 61.7962 21.2695 61.738Z" fill="#FCFCFD"/>
<path fill-rule="evenodd" clip-rule="evenodd" d="M58.8003 67.9429C58.8162 68.5365 58.8336 69.1303 58.7072 69.7158C58.6841 69.823 58.6559 69.93 58.6185 70.0329C58.486 70.3962 58.3004 70.438 58.0245 70.1616C57.8187 69.9554 57.6685 69.7077 57.557 69.4406C56.755 67.521 56.2776 65.5342 56.3233 63.4399C56.334 62.9538 56.3934 62.4771 56.5802 62.0239C56.7384 61.6403 56.9805 61.4659 57.3002 61.4983C57.7441 61.5436 58.0546 61.7768 58.1167 62.1689C58.4208 64.0846 58.7272 66.0002 58.8003 67.9429Z" fill="#CA1089"/>
</g>
</svg>
