<?xml version="1.0" encoding="UTF-8"?>
<svg id="Layer_1" data-name="Layer 1" xmlns="http://www.w3.org/2000/svg" viewBox="0 0 98.82 99.21">
  <defs>
    <style>
      .cls-1 {
        fill: #a7dcda;
      }

      .cls-2 {
        fill: #dde460;
      }

      .cls-3 {
        fill: #f6df3f;
      }

      .cls-4 {
        fill: #010101;
      }
    </style>
  </defs>
  <path class="cls-4" d="M68.31,95.44c25.2-10.44,37.17-39.33,26.73-64.54C84.6,5.7,55.71-6.27,30.51,4.17,5.3,14.61-6.67,43.5,3.77,68.71c10.44,25.2,39.33,37.17,64.54,26.73Z"/>
  <path class="cls-4" d="M92.21,67.53c9.79-23.63-1.43-50.72-25.06-60.5C43.52-2.76,16.43,8.46,6.64,32.09c-9.79,23.63,1.43,50.72,25.06,60.51,23.63,9.79,50.72-1.43,60.51-25.06Z"/>
  <path class="cls-2" d="M49.42,84.19c22.68,0,41.07-18.39,41.07-41.07S72.1,2.04,49.42,2.04,8.34,20.43,8.34,43.11s18.39,41.07,41.07,41.07Z"/>
  <path class="cls-4" d="M49.4,85.27c-23.55,0-42.64-19.09-42.64-42.64S25.85,0,49.4,0s42.64,19.09,42.64,42.64-19.09,42.64-42.64,42.64Zm0-82.12c-7.82,0-15.47,2.32-21.97,6.66-6.5,4.35-11.57,10.52-14.56,17.75-2.99,7.23-3.77,15.18-2.24,22.85,1.53,7.67,5.3,14.72,10.83,20.24,5.53,5.53,12.58,9.29,20.26,10.81,7.67,1.52,15.62,.73,22.85-2.27,7.22-3,13.39-8.08,17.73-14.59,4.34-6.51,6.65-14.16,6.64-21.98-.01-21.83-17.7-39.53-39.53-39.55v.07Z"/>
  <path class="cls-1" d="M42.52,96.02c18.83,0,34.09-15.26,34.09-34.09S61.35,27.83,42.52,27.83,8.43,43.09,8.43,61.92s15.26,34.09,34.09,34.09Z"/>
  <path class="cls-4" d="M42.6,97.57c-2.54,0-5.06-.26-7.54-.79C15.81,92.65,3.56,73.71,7.69,54.46c4.12-19.24,23.07-31.5,42.31-27.38,19.24,4.12,31.51,23.06,27.39,42.31-1.71,7.96-6.08,15.09-12.4,20.21-6.32,5.13-14.2,7.94-22.34,7.97h-.05Zm-.08-68.2c-6.15,0-12.17,1.74-17.36,5.02-5.2,3.28-9.36,7.96-12.01,13.51-2.65,5.55-3.67,11.73-2.95,17.83,.72,6.1,3.15,11.88,7.02,16.66,3.86,4.78,9,8.37,14.82,10.35,5.82,1.98,12.08,2.28,18.05,.85,5.98-1.43,11.43-4.52,15.72-8.91,4.29-4.4,7.26-9.92,8.55-15.93,1.02-4.75,.96-9.66-.17-14.38-1.13-4.72-3.3-9.13-6.35-12.91-3.05-3.77-6.91-6.82-11.29-8.91-4.38-2.09-9.17-3.18-14.03-3.18Z"/>
  <path class="cls-3" d="M72.33,84.51c11.68,0,21.15-9.47,21.15-21.15s-9.47-21.15-21.15-21.15-21.15,9.47-21.15,21.15,9.47,21.15,21.15,21.15Z"/>
  <path class="cls-4" d="M72.31,86.06c-4.49,0-8.88-1.33-12.61-3.83-3.73-2.49-6.64-6.04-8.36-10.19-1.72-4.15-2.17-8.71-1.29-13.11s3.04-8.45,6.21-11.62c3.17-3.17,7.22-5.34,11.62-6.21,4.4-.88,8.97-.43,13.11,1.29,4.15,1.72,7.69,4.63,10.19,8.36,2.49,3.73,3.83,8.12,3.83,12.61,0,6.02-2.4,11.79-6.65,16.04-4.26,4.26-10.03,6.65-16.04,6.65h0Zm0-42.3c-2.58,0-5.13,.51-7.51,1.49s-4.54,2.43-6.36,4.25c-1.82,1.82-3.27,3.98-4.25,6.36-.99,2.38-1.49,4.93-1.5,7.5,0,2.58,.51,5.13,1.49,7.51,.98,2.38,2.43,4.54,4.25,6.36,1.82,1.82,3.98,3.27,6.36,4.25,2.38,.99,4.93,1.49,7.51,1.5,5.2,0,10.19-2.06,13.87-5.74,3.68-3.68,5.75-8.66,5.75-13.87,0-5.2-2.06-10.19-5.74-13.87-3.68-3.68-8.66-5.75-13.87-5.75Z"/>
</svg>