<svg width="100" height="100" viewBox="0 0 100 100" fill="none" xmlns="http://www.w3.org/2000/svg">
<mask id="mask0_1125_30795" style="mask-type:alpha" maskUnits="userSpaceOnUse" x="0" y="0" width="100" height="100">
<circle cx="50" cy="50" r="50" fill="white"/>
</mask>
<g mask="url(#mask0_1125_30795)">
<path d="M35.266 87.2881L36.6525 78.4814L33.5641 78.4099H18.8164L29.0653 13.4253C29.0971 13.2291 29.2005 13.0462 29.3516 12.9163C29.5027 12.7864 29.6962 12.7148 29.8977 12.7148H54.7643C63.0196 12.7148 68.7167 14.4326 71.6911 17.8233C73.0856 19.4139 73.9737 21.0761 74.4031 22.9053C74.8538 24.8247 74.8617 27.1178 74.4217 29.9146L74.3899 30.1188V31.9109L75.7843 32.7009C76.9587 33.3239 77.8919 34.037 78.6077 34.8535C79.8006 36.2135 80.5721 37.9419 80.8981 39.9912C81.2348 42.0988 81.1235 44.6066 80.5721 47.4459C79.9358 50.7119 78.9072 53.5565 77.5181 55.8841C76.2403 58.0288 74.6126 59.8076 72.68 61.1861C70.8348 62.4958 68.6424 63.4899 66.1637 64.1261C63.7619 64.7518 61.0234 65.0672 58.0198 65.0672H56.0845C54.7007 65.0672 53.3566 65.5656 52.3015 66.459C51.2438 67.371 50.5439 68.617 50.3292 69.9796L50.1833 70.7723L47.7338 86.294L47.6225 86.864C47.5933 87.0443 47.5429 87.1344 47.4687 87.1954C47.4024 87.251 47.307 87.2881 47.2142 87.2881H35.266Z" fill="#253B80"/>
<path d="M77.0978 30.3254C77.0235 30.7999 76.9387 31.2851 76.8433 31.7834C73.5639 48.6201 62.3448 54.4365 48.016 54.4365H40.7204C38.9681 54.4365 37.4914 55.709 37.2184 57.4374L33.4831 81.127L32.4253 87.842C32.2477 88.9767 33.1225 90 34.2678 90H47.2074C48.7397 90 50.0414 88.8866 50.2826 87.3755L50.4099 86.718L52.8462 71.2572L53.0026 70.4089C53.2412 68.8925 54.5455 67.7791 56.0778 67.7791H58.013C70.5497 67.7791 80.3638 62.6891 83.2322 47.96C84.4305 41.807 83.8102 36.6693 80.6395 33.0559C79.6799 31.9664 78.4896 31.0624 77.0978 30.3254Z" fill="#179BD7"/>
<path d="M73.6677 28.9576C73.1667 28.8118 72.6497 28.6792 72.1195 28.5599C71.5867 28.4433 71.0405 28.3399 70.4785 28.2497C68.5115 27.9316 66.3562 27.7805 64.0471 27.7805H44.5568C44.077 27.7805 43.621 27.8892 43.2127 28.0854C42.314 28.5175 41.646 29.3685 41.4843 30.4103L37.338 56.6714L37.2188 57.4375C37.4918 55.7091 38.9684 54.4366 40.7208 54.4366H48.0164C62.3452 54.4366 73.5643 48.6176 76.8436 31.7836C76.9417 31.2852 77.0239 30.8 77.0981 30.3255C76.2684 29.8854 75.3697 29.509 74.402 29.1882C74.1635 29.1087 73.9169 29.0318 73.6677 28.9576Z" fill="#222D65"/>
<path d="M41.4869 30.4103C41.6486 29.3684 42.3167 28.5174 43.2154 28.088C43.6263 27.8918 44.0796 27.7831 44.5595 27.7831H64.0498C66.3589 27.7831 68.5141 27.9342 70.4812 28.2523C71.0432 28.3425 71.5893 28.4458 72.1222 28.5625C72.6524 28.6818 73.1693 28.8143 73.6704 28.9601C73.9196 29.0344 74.1661 29.1112 74.4074 29.1881C75.375 29.5089 76.2737 29.888 77.1035 30.3254C78.0791 24.1035 77.0955 19.8671 73.7314 16.0311C70.0226 11.808 63.3287 10 54.7633 10H29.8967C28.147 10 26.6544 11.2725 26.384 13.0036L16.0265 78.6563C15.8224 79.9553 16.8244 81.127 18.134 81.127H33.4861L37.3407 56.6713L41.4869 30.4103Z" fill="#253B80"/>
</g>
</svg>
