<svg width="100" height="100" viewBox="0 0 100 100" fill="none" xmlns="http://www.w3.org/2000/svg">
<mask id="mask0_1439_27609" style="mask-type:alpha" maskUnits="userSpaceOnUse" x="0" y="0" width="100" height="100">
<circle cx="50" cy="50" r="50" fill="white"/>
</mask>
<g mask="url(#mask0_1439_27609)">
<path d="M78.8563 15H21.1437C17.7506 15 15 17.7506 15 21.1437V78.8563C15 82.2493 17.7506 85 21.1437 85H78.8563C82.2493 85 85 82.2493 85 78.8563V21.1437C85 17.7506 82.2493 15 78.8563 15Z" fill="#A6C316"/>
<path d="M62.781 44.5965C62.5621 44.5965 62.3453 44.5534 62.1431 44.4696C61.9409 44.3858 61.7571 44.2629 61.6024 44.1081C61.4477 43.9532 61.325 43.7694 61.2413 43.567C61.1577 43.3647 61.1147 43.1479 61.1149 42.929V35.5663H60.5C56.6823 35.5663 55.2725 36.1949 55.2725 39.6676V47.7911C55.2725 47.8075 55.2725 47.8252 55.2725 47.8429V49.6182C55.2725 49.6809 55.2725 49.7381 55.2725 49.8009V61.1517C55.2725 62.5383 54.9998 63.6427 54.4544 64.5003C53.4154 66.101 51.358 66.8291 48.0666 66.8332C44.7752 66.8373 42.7191 66.101 41.6788 64.5017C41.1334 63.6441 40.8607 62.5397 40.8607 61.1517V49.8009C40.8607 49.7381 40.8607 49.6809 40.8607 49.6182V47.8388C40.8607 47.8211 40.8607 47.8034 40.8607 47.787V39.6635C40.8607 36.1908 39.4427 35.5623 35.6318 35.5623H34.432C30.6143 35.5623 29.2031 36.1908 29.2031 39.6635V61.1517C29.2031 64.6094 29.9817 67.5354 31.4883 69.8955C34.3843 74.4672 40.0194 76.901 48.0311 76.901H48.0898C56.1014 76.901 61.7366 74.4658 64.6462 69.8942C66.1529 67.534 66.9314 64.608 66.9314 61.1503V44.5979L62.781 44.5965Z" fill="white"/>
<path d="M79.3744 25.1605H73.9996C73.413 25.1605 72.9375 25.6361 72.9375 26.2227V31.6642C72.9375 32.2508 73.413 32.7264 73.9996 32.7264H79.3744C79.961 32.7264 80.4365 32.2508 80.4365 31.6642V26.2227C80.4365 25.6361 79.961 25.1605 79.3744 25.1605Z" fill="white"/>
<path d="M72.2111 20.0203H68.5611C68.1628 20.0203 67.8398 20.3432 67.8398 20.7415V24.4379C67.8398 24.8362 68.1628 25.1591 68.5611 25.1591H72.2111C72.6094 25.1591 72.9324 24.8362 72.9324 24.4379V20.7415C72.9324 20.3432 72.6094 20.0203 72.2111 20.0203Z" fill="white"/>
<path d="M71.2259 32.725H62.7847C62.3427 32.725 61.9188 32.9005 61.6061 33.2129C61.2934 33.5253 61.1175 33.9491 61.1172 34.3911V35.5692H61.7021C65.5198 35.5692 66.931 36.1977 66.931 39.6704V44.6048H71.2218C71.4407 44.605 71.6575 44.562 71.8598 44.4784C72.0621 44.3947 72.246 44.272 72.4008 44.1173C72.5557 43.9625 72.6785 43.7788 72.7623 43.5766C72.8462 43.3743 72.8893 43.1576 72.8893 42.9386V34.3939C72.8897 33.9521 72.7147 33.5282 72.4028 33.2153C72.0909 32.9024 71.6677 32.7261 71.2259 32.725Z" fill="white"/>
</g>
</svg>
