<?xml version="1.0" encoding="UTF-8"?>
<svg id="Layer_1" data-name="Layer 1" xmlns="http://www.w3.org/2000/svg" viewBox="0 0 99.21 99.3">
  <defs>
    <style>
      .cls-1 {
        fill: #6630ff;
      }
    </style>
  </defs>
  <path class="cls-1" d="M72.25,26.8s.07,.04,.07,.07c.04,.04,.04,.07,.07,.07,3.31,3.31,8.71,3.35,12.02,.04l1.22-1.22c3.31-3.31,3.31-8.71,0-12.02-.04-.04-.07-.07-.11-.11-.04-.04-.07-.07-.11-.11-3.31-3.31-8.71-3.31-12.02,0l-1.22,1.22c-3.27,3.35-3.24,8.75,.07,12.06Z"/>
  <path class="cls-1" d="M50.38,9.81c-.68,4.64,2.48,8.96,7.13,9.68,2.77,.43,5.43-.54,7.31-2.41,1.22-1.22,2.09-2.77,2.38-4.64l.47-2.92c.68-4.64-2.52-8.75-7.2-9.43-4.64-.68-8.96,2.48-9.68,7.13l-.4,2.59Z"/>
  <path class="cls-1" d="M28.14,13.98l2.45,4.57c2.2,4.14,7.34,5.72,11.52,3.53,.76-.4,1.44-.9,2.02-1.51,2.59-2.59,3.27-6.62,1.48-10l-2.45-4.57c-2.2-4.14-7.34-5.72-11.52-3.53-4.1,2.23-5.69,7.38-3.49,11.52Z"/>
  <path class="cls-1" d="M7.95,21.87c-2.05,4.21-.29,9.32,3.92,11.37l7.59,3.74c3.35,1.62,7.23,.86,9.72-1.62,.65-.65,1.22-1.44,1.62-2.3,2.05-4.21,.29-9.32-3.92-11.37l-7.56-3.78c-4.25-2.05-9.32-.29-11.37,3.96Z"/>
  <path class="cls-1" d="M79.75,41.7c.68,4.64,5.04,7.85,9.68,7.13l2.56-.4c4.64-.68,7.85-5.04,7.13-9.68-.68-4.64-5.04-7.85-9.68-7.13l-2.91,.47c-1.87,.29-3.13,1.12-4.39,2.34-1.84,1.84-2.81,4.5-2.38,7.27Z"/>
  <path class="cls-1" d="M78.7,55.12c-.58,.58-1.08,1.26-1.51,2.02-2.2,4.14-.65,9.28,3.53,11.52l4.43,2.41c4.14,2.2,9.28,.65,11.52-3.53,2.2-4.14,.65-9.29-3.53-11.52l-4.43-2.41c-3.38-1.76-7.41-1.04-10,1.51Z"/>
  <path class="cls-1" d="M77.54,72.32c-2.05-4.21-7.13-5.97-11.37-3.92-.86,.43-1.66,.97-2.3,1.62-2.48,2.48-3.27,6.37-1.62,9.72l3.71,7.59c2.05,4.21,7.13,5.97,11.37,3.92,4.21-2.05,5.97-7.13,3.92-11.37l-3.71-7.56Z"/>
  <path class="cls-1" d="M60.31,42.24c.9,1.55,1.26,3.42,.97,5.15l-7.16,45.31c-.68,4.28-4.71,7.2-9,6.51-1.69-.29-3.17-1.08-4.28-2.2-1.73-1.73-2.63-4.21-2.2-6.8l3.24-20.44c.07-.4-.43-.65-.72-.36l-15.44,15.44c-1.48,1.48-3.45,2.3-5.54,2.3s-4.07-.83-5.51-2.27c-.86-.83-1.58-1.87-1.94-3.02-.97-2.99-.22-6.05,1.87-8.13l15.44-15.44c.29-.29,.04-.79-.36-.72l-20.59,3.02c-4.28,.68-8.31-2.23-9-6.51-.68-4.28,2.23-8.31,6.51-8.96l45.74-6.69c3.2-.5,6.33,.97,7.99,3.78"/>
</svg>