<svg width="100" height="100" viewBox="0 0 100 100" fill="none" xmlns="http://www.w3.org/2000/svg">
<mask id="mask0_1125_29968" style="mask-type:alpha" maskUnits="userSpaceOnUse" x="0" y="0" width="100" height="100">
<circle cx="50" cy="50" r="50" fill="white"/>
</mask>
<g mask="url(#mask0_1125_29968)">
<path d="M76.2568 74.9051C72.5741 74.9051 69.1101 73.4363 66.5058 70.7701L52.4264 56.3486C51.4378 55.3335 49.715 55.3365 48.7268 56.3486L34.5959 70.8228C31.9916 73.489 28.5277 74.9578 24.845 74.9578H22.0703L39.9025 93.2222C45.4713 98.9261 54.5006 98.9261 60.0699 93.2222L77.9527 74.9051H76.2568Z" fill="#32BCAD"/>
<path d="M24.8442 23.5268C28.527 23.5268 31.991 24.8968 34.5953 27.3838L48.7264 40.8869C49.7441 41.8596 51.4058 41.8632 52.4261 40.8857L66.5057 27.433C69.1101 24.946 72.574 23.576 76.2568 23.576H77.9527L60.07 6.49068C54.5003 1.16977 45.4709 1.16977 39.9019 6.49068L22.0703 23.5268L24.8442 23.5268Z" fill="#32BCAD"/>
<path d="M93.2731 39.2326L82.3364 27.693C82.0957 27.7948 81.8348 27.8583 81.5595 27.8583H76.5869C74.0161 27.8583 71.4996 28.9585 69.683 30.8766L55.4345 45.911C54.1011 47.3179 52.349 48.0218 50.5985 48.0218C48.8464 48.0218 47.0956 47.3179 45.7626 45.9123L31.4603 30.8217C29.6437 28.9032 27.1271 27.8034 24.5563 27.8034H18.442C18.1812 27.8034 17.9375 27.7385 17.7074 27.6471L6.72722 39.2326C1.09093 45.1796 1.09093 54.8209 6.72722 60.7679L17.707 72.353C17.9375 72.2616 18.1812 72.1967 18.442 72.1967H24.5563C27.1271 72.1967 29.6437 71.0969 31.4603 69.1789L45.7613 54.0895C48.3462 51.3644 52.8522 51.3635 55.4345 54.0908L69.683 69.1238C71.4996 71.0419 74.0161 72.1422 76.5869 72.1422H81.5595C81.8348 72.1422 82.0957 72.2056 82.3364 72.3074L93.2731 60.7679C98.909 54.8209 98.909 45.1796 93.2731 39.2325" fill="#32BCAD"/>
</g>
</svg>
