<?xml version="1.0" encoding="utf-8"?>
<!-- Generator: Adobe Illustrator 27.0.0, SVG Export Plug-In . SVG Version: 6.00 Build 0)  -->
<svg version="1.1" id="Layer_1" xmlns="http://www.w3.org/2000/svg" xmlns:xlink="http://www.w3.org/1999/xlink" x="0px" y="0px"
	 viewBox="0 0 48 46" style="enable-background:new 0 0 48 46;" xml:space="preserve">
<style type="text/css">
	.st0{fill:#F36E21;}
</style>
<path class="st0" d="M75.6,20.9c-2-3.5-6.5-4.7-9.9-2.6c-3.5,2-4.7,6.3-2.6,9.8c2,3.5,6.5,4.5,9.9,2.6
	C76.3,28.8,77.5,24.3,75.6,20.9z M50.3,18.9c-0.7,0.4-1.4,1-1.9,1.7c-0.5,0.7-0.9,1.4-1.1,2.3c-0.2,0.8-0.3,1.7-0.2,2.5
	c0.1,0.8,0.4,1.7,0.8,2.4c1.8,3.1,5.7,4.2,8.9,2.4c3.1-1.8,4.2-5.7,2.4-8.9C57.4,18.1,53.4,17.1,50.3,18.9z M34.9,19.5
	c-2.8,1.6-3.7,5.1-2.2,7.9c1.6,2.8,5.1,3.7,7.9,2.2c2.8-1.6,3.7-5.1,2.2-7.9C41.2,18.8,37.6,17.9,34.9,19.5z M32.6,15.5
	c2.5-1.4,3.4-4.5,1.9-7.1c-1.4-2.5-4.7-3.4-7.1-1.9c-2.5,1.4-3.4,4.5-1.9,7.1C26.9,16.1,30.1,16.9,32.6,15.5z M12,7.2
	c-2.2,1.2-2.9,4-1.7,6c1.2,2.2,3.9,2.9,6.1,1.6c2.2-1.2,2.9-4,1.7-6C16.9,6.7,14.2,5.9,12,7.2z M4.6,21.3c-1.8,1-2.4,3.2-1.3,5
	c1.1,1.8,3.2,2.4,5,1.3c1.8-1,2.4-3.2,1.3-5C8.7,20.9,6.4,20.3,4.6,21.3z M12.7,35.3c-1.4,0.8-1.9,2.6-1.1,4.1
	c0.8,1.4,2.6,1.9,4.1,1.1c1.4-0.8,1.9-2.6,1.1-4.1C16.1,35,14.2,34.5,12.7,35.3z M52.2,13.9c2.9-1.7,3.8-5.1,2.2-8
	c-1.7-2.8-5.3-3.7-8-2.2c-2.9,1.7-3.8,5.1-2.2,8C45.9,14.6,49.5,15.6,52.2,13.9z M33,0.3c1.6,2.6,5,3.6,7.7,2c2.6-1.6,3.6-4.9,2-7.5
	c-1.6-2.6-4.9-3.6-7.7-2C32.4-5.8,31.4-2.4,33,0.3z M26.5-9.2c-1.4-2.4-4.4-3.2-6.8-1.8c-2.4,1.3-3.2,4.4-1.8,6.8
	c1.4,2.4,4.4,3.2,6.8,1.8C27.1-3.7,27.9-6.8,26.5-9.2z M8.8,1.6c2.3-1.3,3.1-4.2,1.8-6.5c-1.3-2.3-4.2-3-6.5-1.7
	c-2.3,1.3-3,4.2-1.7,6.5C3.6,2.1,6.5,2.9,8.8,1.6z M-2.9,12.5c2-1.2,2.8-3.7,1.6-5.6c-1.2-2-3.7-2.6-5.7-1.6c-2,1.1-2.8,3.7-1.6,5.6
	C-7.5,13-5,13.7-2.9,12.5z M-6.3,22.8c-1-1.7-3.1-2.2-4.7-1.2c-1.7,1-2.2,3-1.3,4.7c1,1.7,3.1,2.2,4.7,1.3
	C-5.9,26.5-5.3,24.5-6.3,22.8z M-2.5,38.6c-0.8-1.4-2.6-1.9-4-1.1c-1.4,0.8-1.9,2.6-1.1,3.9c0.8,1.4,2.6,1.9,4,1.1
	C-2.2,41.8-1.7,39.9-2.5,38.6z M5.1,49.1c-1.3,0.7-1.7,2.4-1,3.6c0.7,1.3,2.4,1.7,3.7,1c1.3-0.7,1.7-2.4,1-3.6
	C8.1,48.9,6.4,48.4,5.1,49.1z M21,53.7c-1.1,0.6-1.4,2-0.8,3.1c0.6,1.1,2,1.4,3.1,0.8c1.1-0.6,1.4-2,0.8-3.1
	C23.5,53.4,22.1,53.1,21,53.7z M36.9,49.8c-1,0.5-1.2,1.7-0.7,2.6c0.5,1,1.7,1.2,2.6,0.7c1-0.5,1.2-1.7,0.7-2.6
	C39,49.6,37.8,49.2,36.9,49.8z M69.7,14c3.1-1.8,4.2-5.7,2.4-8.9c-1.8-3.1-5.9-4.2-9-2.4c-0.7,0.4-1.4,1-1.9,1.7
	c-0.5,0.7-0.9,1.4-1.1,2.3c-0.2,0.8-0.3,1.7-0.2,2.5c0.1,0.8,0.4,1.7,0.8,2.4C62.5,14.8,66.5,15.8,69.7,14z M61.2-0.3
	c3-1.7,4.1-5.5,2.3-8.5c-1.7-3-5.6-4-8.6-2.3c-3,1.7-4.1,5.5-2.3,8.5C54.4,0.4,58.2,1.5,61.2-0.3z M48.4-11.2c2.8-1.6,3.6-5,2-7.7
	c-1.6-2.6-5-3.6-7.7-2c-2.8,1.6-3.6,4.9-2,7.7C42.3-10.6,45.7-9.7,48.4-11.2z M33-17c2.5-1.4,3.5-4.7,1.9-7.2
	c-1.4-2.5-4.8-3.4-7.3-1.9c-2.5,1.4-3.5,4.7-1.9,7.2C27.1-16.4,30.3-15.5,33-17z M16.3-17.4c2.3-1.3,3-4.2,1.8-6.5
	c-1.3-2.3-4.2-3-6.5-1.7c-2.4,1.3-3.1,4.2-1.8,6.5C11.2-16.8,14.1-16.1,16.3-17.4z M2.5-18.2c-1.2-2.2-4-2.9-6.1-1.7s-2.9,4-1.7,6.1
	c1.2,2.2,3.9,2.9,6.1,1.7C2.9-13.4,3.6-16,2.5-18.2z M-11.9-2.2c1.9-1.1,2.5-3.5,1.4-5.4c-1.1-1.9-3.5-2.5-5.4-1.4
	c-1.9,1.1-2.5,3.5-1.4,5.4C-16.2-1.8-13.7-1.2-11.9-2.2z M-24,5.2c-1.8,1-2.4,3.2-1.3,5c1.1,1.8,3.2,2.4,5,1.3c1.8-1,2.4-3.2,1.3-5
	C-19.9,4.7-22.2,4.1-24,5.2z M-22.2,22.9c-0.8-1.6-2.9-2-4.4-1.2c-1.6,0.8-2,2.9-1.2,4.3c0.8,1.6,2.9,2,4.4,1.2
	C-21.8,26.4-21.4,24.5-22.2,22.9z M-23.6,37.9c-1.4,0.8-1.9,2.6-1.1,4.1c0.8,1.3,2.6,1.8,4.1,1c1.4-0.8,1.9-2.6,1.1-4
	C-20.4,37.5-22.2,37-23.6,37.9z M-15.3,52.2c-1.2,0.7-1.7,2.3-1,3.5c0.7,1.2,2.3,1.6,3.5,1c1.2-0.7,1.7-2.3,1-3.5
	C-12.5,52-14.1,51.5-15.3,52.2z M-2.6,62.9c-1.1,0.6-1.4,2-0.8,3.1c0.6,1.1,2,1.4,3.1,0.8c1.1-0.6,1.4-2,0.8-3.1
	C-0.2,62.6-1.5,62.3-2.6,62.9z M13,68.9c-1,0.5-1.2,1.7-0.7,2.6c0.5,1,1.7,1.2,2.6,0.7c1-0.5,1.2-1.7,0.7-2.6
	C15,68.6,13.9,68.3,13,68.9z M30,68.7c-1,0.5-1.2,1.7-0.7,2.6c0.6,1,1.7,1.2,2.6,0.7c1-0.6,1.2-1.7,0.7-2.6
	C32,68.5,30.8,68.1,30,68.7z M44.9,63.4c-0.8,0.5-1.2,1.6-0.6,2.4c0.5,0.8,1.6,1.1,2.4,0.6c0.8-0.5,1.2-1.6,0.7-2.4
	C46.9,63.1,45.8,62.9,44.9,63.4z M57.6,53.2c-0.7,0.4-1,1.3-0.5,2c0.4,0.7,1.3,1,2,0.5c0.7-0.4,1-1.3,0.5-1.9
	C59.2,52.9,58.3,52.7,57.6,53.2z"/>
</svg>
