<svg width="48" height="46" viewBox="0 0 48 46" fill="none" xmlns="http://www.w3.org/2000/svg">
<path d="M47.3689 21.9475C46.4499 20.3797 44.4497 19.8391 42.8819 20.7581C41.3142 21.6772 40.7736 23.6233 41.6926 25.1911C42.6116 26.7588 44.6118 27.2454 46.1796 26.3804C47.6933 25.5155 48.2339 23.5152 47.3689 21.9475ZM35.9622 21.0825C35.628 21.2737 35.3348 21.5289 35.0995 21.8336C34.8641 22.1383 34.6913 22.4865 34.5908 22.8582C34.4904 23.2299 34.4643 23.6177 34.5141 23.9995C34.5639 24.3813 34.6886 24.7495 34.881 25.083C35.6919 26.4885 37.4759 26.9751 38.8814 26.1642C40.287 25.3533 40.7736 23.5693 39.9627 22.1637C39.1517 20.7041 37.3678 20.2716 35.9622 21.0825ZM28.9884 21.3528C27.745 22.0556 27.3125 23.6774 28.0153 24.9208C28.7181 26.1642 30.3399 26.5967 31.5833 25.8939C32.8267 25.1911 33.2592 23.5693 32.5564 22.3259C31.8536 21.0284 30.2318 20.596 28.9884 21.3528ZM27.9613 19.5148C29.0965 18.866 29.475 17.4605 28.8262 16.3252C28.1775 15.1899 26.7179 14.8115 25.6367 15.4602C24.5014 16.109 24.123 17.5145 24.7717 18.6498C25.3664 19.7851 26.826 20.1635 27.9613 19.5148ZM18.6629 15.7846C17.6898 16.3252 17.3655 17.5686 17.9061 18.4876C18.4467 19.4607 19.69 19.7851 20.6631 19.1904C21.6362 18.6498 21.9606 17.4064 21.42 16.4874C20.8794 15.5684 19.636 15.1899 18.6629 15.7846ZM15.3112 22.1637C14.5003 22.5962 14.23 23.6233 14.7165 24.4342C15.203 25.2452 16.1761 25.5155 16.987 25.0289C17.7979 24.5964 18.0682 23.5693 17.5817 22.7584C17.1492 21.9475 16.1221 21.6772 15.3112 22.1637ZM18.9873 28.4888C18.3385 28.8672 18.1223 29.6781 18.5007 30.3268C18.8791 30.9755 19.69 31.1918 20.3388 30.8134C20.9875 30.4349 21.2037 29.624 20.8253 28.9753C20.5009 28.3266 19.636 28.1103 18.9873 28.4888ZM36.8272 18.812C38.1246 18.0551 38.5571 16.4874 37.8002 15.1899C37.0434 13.9465 35.4216 13.5141 34.1782 14.2169C32.8808 14.9737 32.4483 16.5414 33.2051 17.8389C33.962 19.1363 35.5838 19.5688 36.8272 18.812ZM28.1235 12.6491C28.8262 13.8384 30.394 14.2709 31.5833 13.5681C32.7726 12.8653 33.2051 11.3517 32.5023 10.1623C31.7996 8.973 30.2859 8.54052 29.0425 9.2433C27.8531 9.89203 27.4207 11.4598 28.1235 12.6491ZM25.2042 8.37834C24.5555 7.29713 23.204 6.91871 22.1228 7.56743C21.0416 8.1621 20.6631 9.56766 21.3119 10.6489C21.9606 11.7301 23.3121 12.1085 24.3933 11.4598C25.4745 10.8651 25.8529 9.45954 25.2042 8.37834ZM17.2033 13.2438C18.2304 12.6491 18.6088 11.3517 18.0142 10.3245C17.4195 9.29736 16.1221 8.973 15.0949 9.56766C14.0678 10.1623 13.7434 11.4598 14.3381 12.4869C14.8787 13.46 16.1761 13.8384 17.2033 13.2438ZM11.9054 18.1633C12.8244 17.6226 13.1487 16.4874 12.6081 15.6224C12.0675 14.7034 10.9323 14.4331 10.0132 14.9196C9.09422 15.4062 8.76986 16.5955 9.31046 17.4605C9.85107 18.3795 10.9863 18.7039 11.9054 18.1633ZM10.3917 22.8124C9.95919 22.0556 8.9861 21.8394 8.28332 22.2718C7.52647 22.7043 7.31023 23.6233 7.68866 24.3802C8.12114 25.137 9.09422 25.3533 9.79701 24.9749C10.5539 24.4883 10.8242 23.5693 10.3917 22.8124ZM12.1216 29.9484C11.7432 29.2997 10.9323 29.0834 10.3376 29.4619C9.68889 29.8403 9.47265 30.6512 9.85107 31.2458C10.2295 31.8946 11.0404 32.1108 11.6351 31.7324C12.2297 31.408 12.446 30.5431 12.1216 29.9484ZM15.5274 34.7057C14.9327 35.0301 14.7706 35.7869 15.0949 36.3275C15.4193 36.9222 16.1761 37.0844 16.7708 36.76C17.3654 36.4356 17.5276 35.6788 17.2033 35.1382C16.8789 34.5976 16.1221 34.3813 15.5274 34.7057ZM22.7174 36.76C22.2309 37.0303 22.0687 37.679 22.339 38.1656C22.6093 38.6521 23.258 38.8143 23.7446 38.544C24.2311 38.2737 24.3933 37.625 24.123 37.1384C23.8527 36.6519 23.204 36.4897 22.7174 36.76ZM29.9074 35.0301C29.475 35.2463 29.3668 35.7869 29.5831 36.2194C29.7993 36.6519 30.3399 36.76 30.7724 36.5438C31.2049 36.3275 31.313 35.7869 31.0968 35.3544C30.8265 34.9219 30.2859 34.7598 29.9074 35.0301ZM44.72 18.866C46.1255 18.0551 46.6121 16.2711 45.8012 14.8656C44.9903 13.46 43.1522 12.9735 41.7466 13.7844C41.4124 13.9755 41.1193 14.2308 40.8839 14.5355C40.6486 14.8402 40.4757 15.1884 40.3753 15.5601C40.2748 15.9317 40.2487 16.3196 40.2985 16.7014C40.3483 17.0832 40.473 17.4513 40.6654 17.7848C41.4763 19.1904 43.2603 19.6769 44.72 18.866ZM40.8817 12.3788C42.2332 11.622 42.7197 9.89203 41.9088 8.54052C41.152 7.18901 39.368 6.75653 38.0165 7.51337C36.665 8.27022 36.1784 10.0001 36.9893 11.3517C37.8002 12.7032 39.5302 13.1897 40.8817 12.3788ZM35.0972 7.45931C36.3406 6.75653 36.719 5.18878 36.0163 3.99945C35.3135 2.81013 33.7457 2.37764 32.5564 3.08043C31.313 3.78321 30.9346 5.2969 31.6374 6.54029C32.3402 7.72961 33.8538 8.1621 35.0972 7.45931ZM28.1235 4.86442C29.2587 4.21569 29.6912 2.75607 28.9884 1.6208C28.3397 0.485533 26.826 0.107111 25.6907 0.755835C24.5555 1.40456 24.123 2.86419 24.8258 3.99945C25.4745 5.13472 26.9341 5.51314 28.1235 4.86442ZM20.6091 4.64818C21.6362 4.05351 21.9606 2.75607 21.42 1.72892C20.8253 0.701775 19.5279 0.377413 18.5007 0.972076C17.4195 1.56674 17.0951 2.86419 17.6898 3.89133C18.2845 4.91848 19.5819 5.24284 20.6091 4.64818ZM14.3381 4.32381C13.7975 3.35073 12.5541 3.02637 11.581 3.56697C10.6079 4.10757 10.2836 5.35096 10.8242 6.32405C11.3648 7.29713 12.6081 7.62149 13.5812 7.08089C14.5543 6.48623 14.8787 5.2969 14.3381 4.32381ZM7.85084 11.5138C8.7158 11.0273 8.9861 9.94609 8.49956 9.08112C8.01302 8.21616 6.93181 7.94586 6.06685 8.4324C5.20188 8.91894 4.93158 10.0001 5.41812 10.8651C5.90467 11.7301 7.03993 12.0004 7.85084 11.5138ZM2.39075 14.8656C1.57984 15.2981 1.30954 16.3252 1.79608 17.1361C2.28263 17.947 3.25571 18.2173 4.06662 17.7308C4.87752 17.2983 5.14782 16.2711 4.66128 15.4602C4.2288 14.6493 3.20165 14.379 2.39075 14.8656ZM3.20165 22.8665C2.82323 22.1637 1.9042 21.9475 1.20142 22.3259C0.498636 22.7043 0.282394 23.6233 0.660816 24.2721C1.03924 24.9748 1.95826 25.1911 2.66105 24.8127C3.36383 24.4342 3.58007 23.5693 3.20165 22.8665ZM2.55293 29.624C1.9042 30.0025 1.68796 30.8134 2.06638 31.4621C2.44481 32.0568 3.25571 32.273 3.90443 31.8946C4.55316 31.5161 4.7694 30.7052 4.39098 30.1106C4.01256 29.4619 3.20165 29.2456 2.55293 29.624ZM6.33715 36.1113C5.79655 36.4356 5.5803 37.1384 5.90467 37.679C6.22903 38.2196 6.93181 38.3818 7.47241 38.1115C8.01302 37.7871 8.22926 37.0844 7.9049 36.5438C7.58053 36.0032 6.87775 35.7869 6.33715 36.1113ZM12.0675 40.9226C11.581 41.1929 11.4188 41.8417 11.6891 42.3282C11.9594 42.8148 12.6081 42.9769 13.0947 42.7066C13.5812 42.4363 13.7434 41.7876 13.4731 41.3011C13.1487 40.8145 12.5541 40.6523 12.0675 40.9226ZM19.0954 43.6257C18.6629 43.8419 18.5548 44.3825 18.771 44.815C18.9873 45.2475 19.5279 45.3556 19.9603 45.1393C20.3928 44.9231 20.5009 44.3825 20.2847 43.95C20.0144 43.5175 19.5279 43.3554 19.0954 43.6257ZM26.7719 43.5716C26.3395 43.7878 26.2313 44.3284 26.4476 44.7609C26.7179 45.1934 27.2044 45.3015 27.6369 45.0853C28.0694 44.815 28.1775 44.3284 27.9613 43.896C27.691 43.4635 27.1504 43.3013 26.7719 43.5716ZM33.5295 41.1389C33.1511 41.3551 32.9889 41.8417 33.2592 42.2201C33.4754 42.5985 33.962 42.7066 34.3404 42.4904C34.7188 42.2742 34.881 41.7876 34.6647 41.4092C34.3944 41.0308 33.9079 40.9226 33.5295 41.1389ZM39.2599 36.5438C38.9355 36.7059 38.8274 37.1384 39.0436 37.4628C39.2058 37.7871 39.6383 37.8953 39.9627 37.679C40.287 37.5168 40.3951 37.0844 40.1789 36.8141C39.9627 36.4356 39.5842 36.3275 39.2599 36.5438Z" fill="#F36E21"/>
</svg>
