<svg width="89" height="89" viewBox="0 0 89 89" fill="none" xmlns="http://www.w3.org/2000/svg">
<mask id="mask0_1125_30774" style="mask-type:alpha" maskUnits="userSpaceOnUse" x="0" y="0" width="89" height="89">
<circle cx="44.5" cy="44.5" r="44.5" fill="white"/>
</mask>
<g mask="url(#mask0_1125_30774)">
<path d="M44.805 90.3823C69.7638 90.3823 89.9968 70.1495 89.9968 45.1911C89.9968 20.2328 69.7638 0 44.805 0C19.8463 0 -0.386719 20.2328 -0.386719 45.1911C-0.386719 70.1495 19.8463 90.3823 44.805 90.3823Z" fill="url(#paint0_radial_1125_30774)"/>
<path d="M19.2254 64.0669C19.0709 64.0665 18.9184 64.0322 18.7785 63.9663C18.6387 63.9004 18.515 63.8047 18.4162 63.6857C18.3173 63.5668 18.2458 63.4275 18.2065 63.2779C18.1673 63.1282 18.1613 62.9718 18.189 62.8195L20.6656 49.5384L22.3831 40.2984C22.6936 38.6342 23.5755 37.1313 24.876 36.0496C26.1765 34.9679 27.8138 34.3755 29.5045 34.3751H34.5294C35.2291 34.3756 35.9202 34.5304 36.5534 34.8284C37.1867 35.1264 37.7467 35.5603 38.1937 36.0994C38.6407 36.6385 38.9637 37.2694 39.1398 37.9476C39.3159 38.6257 39.3407 39.3343 39.2126 40.0231L37.4926 49.2595C37.1821 50.9237 36.3003 52.4268 34.9998 53.5087C33.6993 54.5906 32.062 55.1832 30.3713 55.1839H25.35C24.0999 55.1868 22.8988 54.6968 22.0066 53.82L20.2569 63.2113C20.2109 63.4517 20.0828 63.6685 19.8946 63.8246C19.7064 63.9807 19.4698 64.0664 19.2254 64.0669ZM22.7323 49.9191C22.6606 50.304 22.6745 50.7 22.773 51.0789C22.8714 51.4578 23.052 51.8103 23.3019 52.1115C23.5518 52.4126 23.8648 52.6549 24.2188 52.8212C24.5728 52.9874 24.959 53.0736 25.35 53.0735H30.375C31.5745 53.0729 32.736 52.6524 33.6586 51.8848C34.5812 51.1172 35.2068 50.0508 35.4272 48.8701L37.1459 39.635C37.2178 39.2502 37.2041 38.8542 37.1058 38.4753C37.0075 38.0964 36.827 37.7438 36.5772 37.4427C36.3274 37.1415 36.0144 36.8992 35.6605 36.7329C35.3066 36.5666 34.9204 36.4804 34.5294 36.4806H29.5045C28.305 36.4807 27.1434 36.9008 26.2207 37.6683C25.298 38.4357 24.6724 39.5021 24.4523 40.6827L22.7323 49.9191Z" fill="white"/>
<path d="M49.3493 55.1839H39.8689C39.5898 55.1839 39.3221 55.0729 39.1247 54.8752C38.9273 54.6776 38.8164 54.4095 38.8164 54.13C38.8164 53.8504 38.9273 53.5824 39.1247 53.3847C39.3221 53.1871 39.5898 53.076 39.8689 53.076H49.3493C50.4002 53.0746 51.4179 52.7071 52.2279 52.0365C53.0378 51.366 53.5896 50.4341 53.7885 49.4008L53.926 48.6816C53.9994 48.296 53.9869 47.8989 53.8895 47.5187C53.792 47.1385 53.612 46.7844 53.3622 46.4819C53.1125 46.1793 52.7991 45.9356 52.4445 45.7683C52.0899 45.6009 51.7027 45.5139 51.3107 45.5136H45.6034C44.9033 45.514 44.2116 45.36 43.5776 45.0623C42.9437 44.7647 42.383 44.3309 41.9355 43.7916C41.4881 43.2524 41.1648 42.621 40.9886 41.9425C40.8125 41.2639 40.7879 40.5548 40.9165 39.8656L40.9302 39.7925C41.2139 38.2705 42.0202 36.8959 43.2095 35.9065C44.3988 34.9172 45.8962 34.3754 47.4423 34.3751H56.3394C56.6185 34.3751 56.8862 34.4862 57.0836 34.6838C57.281 34.8815 57.3919 35.1496 57.3919 35.4291C57.3919 35.7086 57.281 35.9767 57.0836 36.1743C56.8862 36.372 56.6185 36.483 56.3394 36.483H47.4423C46.388 36.4829 45.3669 36.8517 44.5556 37.5258C43.7442 38.1999 43.1937 39.1368 42.9993 40.1744L42.9857 40.2475C42.9143 40.6324 42.9283 41.0283 43.0269 41.4071C43.1254 41.7859 43.306 42.1383 43.5559 42.4394C43.8057 42.7405 44.1187 42.9828 44.4725 43.1491C44.8264 43.3155 45.2125 43.4018 45.6034 43.4019H51.3107C52.0128 43.4018 52.7063 43.557 53.3416 43.8564C53.9768 44.1557 54.5383 44.5919 54.9857 45.1337C55.4331 45.6756 55.7554 46.3097 55.9297 46.9907C56.104 47.6718 56.1259 48.3829 55.9939 49.0735L55.8552 49.7926C55.565 51.3081 54.7569 52.6751 53.5697 53.6589C52.3825 54.6427 50.8903 55.1819 49.3493 55.1839Z" fill="white"/>
<path d="M72.7737 55.1839H62.5628C61.8262 55.1841 61.0986 55.0217 60.4318 54.7084C59.7649 54.3951 59.1752 53.9386 58.7044 53.3712C58.2337 52.8039 57.8936 52.1397 57.7082 51.4258C57.5229 50.7119 57.4969 49.9659 57.632 49.2409L58.4394 44.901L58.4468 44.8638L59.2975 40.2984C59.6081 38.6342 60.4899 37.1313 61.7904 36.0496C63.0909 34.9679 64.7282 34.3755 66.4189 34.3751H71.7088C72.4452 34.3752 73.1725 34.5377 73.8391 34.851C74.5057 35.1643 75.0952 35.6207 75.5658 36.1879C76.0364 36.7551 76.3764 37.4191 76.5618 38.1327C76.7472 38.8463 76.7733 39.5921 76.6384 40.3169L75.7159 45.2767C75.6708 45.5186 75.5426 45.7371 75.3535 45.8942C75.1645 46.0514 74.9264 46.1374 74.6807 46.1373H60.3525L59.7012 49.6314C59.623 50.0522 59.6383 50.485 59.746 50.8991C59.8537 51.3133 60.0511 51.6986 60.3242 52.0277C60.5974 52.3569 60.9396 52.6218 61.3265 52.8036C61.7133 52.9854 62.1355 53.0797 62.5628 53.0797H72.7737C73.0529 53.0797 73.3206 53.1908 73.518 53.3884C73.7154 53.5861 73.8263 53.8542 73.8263 54.1337C73.8263 54.4132 73.7154 54.6813 73.518 54.8789C73.3206 55.0766 73.0529 55.1876 72.7737 55.1876V55.1839ZM60.75 44.0244H73.8065L74.5693 39.9326C74.6474 39.512 74.6322 39.0794 74.5245 38.6654C74.4169 38.2514 74.2196 37.8662 73.9466 37.5371C73.6735 37.2081 73.3315 36.9433 72.9447 36.7616C72.558 36.5798 72.136 36.4856 71.7088 36.4855H66.4189C65.2194 36.4856 64.0578 36.9058 63.1351 37.6732C62.2124 38.4407 61.5868 39.507 61.3667 40.6877L60.75 44.0244Z" fill="white"/>
<path d="M4.31049 27.9583C5.47652 27.9583 6.42177 27.0118 6.42177 25.8442C6.42177 24.6766 5.47652 23.7301 4.31049 23.7301C3.14447 23.7301 2.19922 24.6766 2.19922 25.8442C2.19922 27.0118 3.14447 27.9583 4.31049 27.9583Z" fill="#FDB718"/>
<path d="M4.31049 53.0687C5.47652 53.0687 6.42177 52.1222 6.42177 50.9546C6.42177 49.787 5.47652 48.8405 4.31049 48.8405C3.14447 48.8405 2.19922 49.787 2.19922 50.9546C2.19922 52.1222 3.14447 53.0687 4.31049 53.0687Z" fill="#FDB718"/>
<path d="M4.31049 65.623C5.47652 65.623 6.42177 64.6765 6.42177 63.5089C6.42177 62.3413 5.47652 61.3948 4.31049 61.3948C3.14447 61.3948 2.19922 62.3413 2.19922 63.5089C2.19922 64.6765 3.14447 65.623 4.31049 65.623Z" fill="#FDB718"/>
<path d="M-0.0137243 34.2362C1.1523 34.2362 2.09755 33.2896 2.09755 32.122C2.09755 30.9545 1.1523 30.0079 -0.0137243 30.0079C-1.17975 30.0079 -2.125 30.9545 -2.125 32.122C-2.125 33.2896 -1.17975 34.2362 -0.0137243 34.2362Z" fill="#FDB718"/>
<path d="M-0.0137243 59.3465C1.1523 59.3465 2.09755 58.4 2.09755 57.2324C2.09755 56.0648 1.1523 55.1183 -0.0137243 55.1183C-1.17975 55.1183 -2.125 56.0648 -2.125 57.2324C-2.125 58.4 -1.17975 59.3465 -0.0137243 59.3465Z" fill="#FDB718"/>
<path d="M8.62299 34.2362C9.78902 34.2362 10.7343 33.2896 10.7343 32.122C10.7343 30.9545 9.78902 30.0079 8.62299 30.0079C7.45697 30.0079 6.51172 30.9545 6.51172 32.122C6.51172 33.2896 7.45697 34.2362 8.62299 34.2362Z" fill="#FDB718"/>
<path d="M8.62299 59.3465C9.78902 59.3465 10.7343 58.4 10.7343 57.2324C10.7343 56.0648 9.78902 55.1183 8.62299 55.1183C7.45697 55.1183 6.51172 56.0648 6.51172 57.2324C6.51172 58.4 7.45697 59.3465 8.62299 59.3465Z" fill="#FDB718"/>
<path d="M10.5833 44.1596L5.39734 37.78H-4V39.02H4.80916L8.98589 44.1596H-4V45.3995H12.8865L10.1486 50.3345H4.30518V51.5744H10.8768L14.3031 45.3995H20.1899L20.4475 44.1596H10.5833Z" fill="#FDB718"/>
<path d="M34.9117 28.3402C34.8072 28.2163 34.6769 28.1168 34.53 28.0485C34.3831 27.9802 34.223 27.9447 34.061 27.9447H33.3181C32.9961 27.9443 32.6815 28.0411 32.4154 28.2224L32.7175 26.4493C32.7266 26.3854 32.7104 26.3206 32.6725 26.2684C32.6346 26.2163 32.5779 26.181 32.5144 26.17C32.451 26.159 32.3857 26.1733 32.3325 26.2097C32.2794 26.2461 32.2424 26.3018 32.2296 26.365L31.7343 29.2851L31.5201 30.5436L31.2848 31.9212C31.2793 31.9534 31.2802 31.9863 31.2874 32.0181C31.2947 32.0499 31.3081 32.08 31.327 32.1066C31.3458 32.1332 31.3698 32.1558 31.3974 32.1732C31.425 32.1905 31.4557 32.2022 31.4879 32.2076C31.5019 32.2088 31.516 32.2088 31.53 32.2076C31.589 32.2085 31.6464 32.1882 31.6918 32.1505C31.7372 32.1127 31.7676 32.06 31.7776 32.0018L31.9981 30.7048L32.0117 30.623L32.2259 29.3644C32.2703 29.1049 32.4049 28.8695 32.6059 28.6998C32.8069 28.5301 33.0613 28.437 33.3243 28.4369H34.0672C34.1574 28.4369 34.2464 28.4566 34.3281 28.4946C34.4099 28.5326 34.4823 28.588 34.5405 28.657C34.5986 28.7259 34.641 28.8068 34.6647 28.8938C34.6884 28.9809 34.6928 29.0721 34.6777 29.1611L34.2072 31.9175C34.2017 31.9496 34.2025 31.9826 34.2098 32.0144C34.217 32.0462 34.2305 32.0763 34.2493 32.1029C34.2682 32.1295 34.2921 32.1521 34.3197 32.1695C34.3473 32.1868 34.3781 32.1985 34.4102 32.2039C34.4242 32.2051 34.4383 32.2051 34.4523 32.2039C34.5113 32.2048 34.5687 32.1845 34.6141 32.1468C34.6595 32.109 34.69 32.0563 34.7 31.9981L35.1693 29.2404C35.1941 29.0807 35.1839 28.9174 35.1394 28.762C35.0949 28.6065 35.0172 28.4626 34.9117 28.3402Z" fill="white"/>
<path d="M30.7814 32.2114H28.9735C28.8114 32.2113 28.6512 32.1758 28.5041 32.1074C28.3571 32.039 28.2267 31.9392 28.1221 31.8152C28.0176 31.6911 27.9413 31.5456 27.8986 31.389C27.856 31.2323 27.848 31.0682 27.8752 30.9082L28.1513 29.2851C28.2153 28.91 28.4098 28.5696 28.7004 28.3243C28.9909 28.079 29.3587 27.9445 29.7388 27.9447H31.3659C31.4316 27.9447 31.4946 27.9708 31.541 28.0173C31.5875 28.0638 31.6136 28.1269 31.6136 28.1927C31.6136 28.2585 31.5875 28.3215 31.541 28.368C31.4946 28.4146 31.4316 28.4407 31.3659 28.4407H29.7388C29.4757 28.4408 29.2211 28.534 29.0201 28.704C28.8191 28.874 28.6846 29.1097 28.6404 29.3694L28.3643 30.9913C28.3492 31.0801 28.3536 31.1712 28.3772 31.2582C28.4008 31.3452 28.4431 31.4259 28.5011 31.4949C28.5591 31.5638 28.6314 31.6192 28.713 31.6573C28.7946 31.6954 28.8835 31.7152 28.9735 31.7154H30.7814C30.814 31.7154 30.8462 31.7218 30.8762 31.7343C30.9062 31.7467 30.9336 31.765 30.9565 31.788C30.9795 31.811 30.9978 31.8384 31.0102 31.8685C31.0227 31.8986 31.0291 31.9308 31.0291 31.9634C31.0291 31.9959 31.0227 32.0282 31.0102 32.0583C30.9978 32.0884 30.9795 32.1157 30.9565 32.1387C30.9336 32.1618 30.9062 32.18 30.8762 32.1925C30.8462 32.2049 30.814 32.2114 30.7814 32.2114Z" fill="white"/>
<path d="M26.4417 32.2114H25.3681C25.2059 32.2113 25.0457 32.1758 24.8987 32.1074C24.7516 32.039 24.6213 31.9392 24.5167 31.8152C24.4121 31.6911 24.3358 31.5456 24.2932 31.389C24.2505 31.2323 24.2425 31.0682 24.2697 30.9082L24.2957 30.7495C24.3448 30.4608 24.4944 30.1989 24.7178 30.0101C24.9413 29.8213 25.2243 29.7178 25.5167 29.7178H27.3035L27.3989 29.1648C27.414 29.0759 27.4096 28.9847 27.3858 28.8976C27.3621 28.8105 27.3197 28.7297 27.2616 28.6607C27.2035 28.5918 27.131 28.5364 27.0493 28.4984C26.9675 28.4603 26.8785 28.4407 26.7884 28.4407H25.2195C25.1538 28.4407 25.0908 28.4146 25.0443 28.368C24.9979 28.3215 24.9718 28.2585 24.9718 28.1927C24.9718 28.1269 24.9979 28.0638 25.0443 28.0173C25.0908 27.9708 25.1538 27.9447 25.2195 27.9447H26.7834C26.9456 27.9447 27.1058 27.9802 27.2528 28.0487C27.3999 28.1171 27.5302 28.2168 27.6348 28.3409C27.7394 28.465 27.8157 28.6104 27.8583 28.7671C27.901 28.9237 27.909 29.0878 27.8818 29.2479L27.758 30.0018C27.758 30.0018 27.758 30.0105 27.758 30.0142L27.5413 31.2826C27.4971 31.5426 27.3624 31.7784 27.1611 31.9484C26.9599 32.1184 26.705 32.2116 26.4417 32.2114ZM25.5167 30.2138C25.3412 30.214 25.1715 30.2763 25.0375 30.3898C24.9036 30.5033 24.8141 30.6606 24.7848 30.8338L24.7576 30.9913C24.7424 31.0802 24.7469 31.1714 24.7706 31.2585C24.7943 31.3455 24.8367 31.4264 24.8948 31.4953C24.953 31.5643 25.0254 31.6197 25.1072 31.6577C25.1889 31.6957 25.2779 31.7154 25.3681 31.7154H26.4417C26.5878 31.7154 26.7293 31.6636 26.8411 31.5692C26.9528 31.4748 27.0276 31.3439 27.0521 31.1996L27.2193 30.2076L25.5167 30.2138Z" fill="white"/>
<path d="M26.4417 32.2114H25.3681C25.2059 32.2113 25.0457 32.1758 24.8987 32.1074C24.7516 32.039 24.6213 31.9392 24.5167 31.8152C24.4121 31.6911 24.3358 31.5456 24.2932 31.389C24.2505 31.2323 24.2425 31.0682 24.2697 30.9082L24.2957 30.7495C24.3448 30.4608 24.4944 30.1989 24.7178 30.0101C24.9413 29.8213 25.2243 29.7178 25.5167 29.7178H27.3035L27.3989 29.1648C27.414 29.0759 27.4096 28.9847 27.3858 28.8976C27.3621 28.8105 27.3197 28.7297 27.2616 28.6607C27.2035 28.5918 27.131 28.5364 27.0493 28.4984C26.9675 28.4603 26.8785 28.4407 26.7884 28.4407H25.2195C25.1538 28.4407 25.0908 28.4146 25.0443 28.368C24.9979 28.3215 24.9718 28.2585 24.9718 28.1927C24.9718 28.1269 24.9979 28.0638 25.0443 28.0173C25.0908 27.9708 25.1538 27.9447 25.2195 27.9447H26.7834C26.9456 27.9447 27.1058 27.9802 27.2528 28.0487C27.3999 28.1171 27.5302 28.2168 27.6348 28.3409C27.7394 28.465 27.8157 28.6104 27.8583 28.7671C27.901 28.9237 27.909 29.0878 27.8818 29.2479L27.758 30.0018C27.758 30.0018 27.758 30.0105 27.758 30.0142L27.5413 31.2826C27.4971 31.5426 27.3624 31.7784 27.1611 31.9484C26.9599 32.1184 26.705 32.2116 26.4417 32.2114ZM25.5167 30.2138C25.3412 30.214 25.1715 30.2763 25.0375 30.3898C24.9036 30.5033 24.8141 30.6606 24.7848 30.8338L24.7576 30.9913C24.7424 31.0802 24.7469 31.1714 24.7706 31.2585C24.7943 31.3455 24.8367 31.4264 24.8948 31.4953C24.953 31.5643 25.0254 31.6197 25.1072 31.6577C25.1889 31.6957 25.2779 31.7154 25.3681 31.7154H26.4417C26.5878 31.7154 26.7293 31.6636 26.8411 31.5692C26.9528 31.4748 27.0276 31.3439 27.0521 31.1996L27.2193 30.2076L25.5167 30.2138Z" fill="white"/>
</g>
<defs>
<radialGradient id="paint0_radial_1125_30774" cx="0" cy="0" r="1" gradientUnits="userSpaceOnUse" gradientTransform="translate(45.6135 45.0299) scale(45.1905 45.1924)">
<stop offset="0.32" stop-color="#2D5CA8"/>
<stop offset="0.53" stop-color="#224D8D"/>
<stop offset="0.73" stop-color="#1F4272"/>
<stop offset="1" stop-color="#1F4272"/>
</radialGradient>
</defs>
</svg>
