<svg width="100" height="100" viewBox="0 0 100 100" fill="none" xmlns="http://www.w3.org/2000/svg">
<mask id="mask0_1125_30786" style="mask-type:alpha" maskUnits="userSpaceOnUse" x="0" y="0" width="100" height="100">
<circle cx="50" cy="50" r="50" fill="white"/>
</mask>
<g mask="url(#mask0_1125_30786)">
<circle cx="50" cy="50" r="50" fill="#221551"/>
</g>
<g clip-path="url(#clip0_1125_30786)">
<path d="M43.4531 68.2964C38.6173 68.2703 34.2623 67.5983 30.1537 65.728C23.7659 62.8206 19.5371 57.9659 17.4887 51.3239C15.5701 45.1049 15.4737 38.7758 17.3875 32.5415C20.0465 23.881 25.957 18.4562 34.686 16.0727C38.9993 14.8874 43.3995 14.7535 47.8283 15.3272C53.0414 16.0016 57.7296 17.9027 61.7442 21.315C65.8028 24.764 68.307 29.1813 69.4746 34.3193C70.9172 40.6627 70.6648 46.9539 68.2594 53.046C65.5362 59.9452 60.4457 64.3899 53.4592 66.7568C50.0992 67.8934 46.625 68.2869 43.4531 68.2964ZM52.3011 41.49C52.2476 38.841 51.9726 36.2477 50.8871 33.7966C48.8269 29.1458 43.3448 27.2779 38.9851 29.7882C36.8427 31.0244 35.6299 32.999 34.9574 35.2936C33.7898 39.2795 33.8457 43.3188 34.7336 47.3439C35.2002 49.4631 36.1428 51.3736 37.8698 52.7876C42.0737 56.2248 48.5377 54.6769 50.8348 49.6835C52.0309 47.0772 52.2595 44.2931 52.3011 41.49Z" fill="#FDFDFD"/>
<path d="M44.5937 81.5568C44.5937 79.6213 44.5937 77.687 44.5937 75.7491C44.5937 74.507 44.9329 74.142 46.1528 74.0898C50.0055 73.9286 53.8118 73.4972 57.5146 72.3452C63.7512 70.4132 68.7656 66.8872 72.1624 61.2502C73.5371 58.9698 74.5333 56.5223 75.257 53.9646C75.645 52.5992 76.0437 52.3586 77.4053 52.6786L88.2814 55.2387C88.5314 55.298 88.7813 55.3572 89.0265 55.4402C89.8013 55.6855 90.1382 56.239 89.943 57.0355C89.4487 58.9883 88.8204 60.905 88.0624 62.772C85.9653 68.0522 82.9552 72.7434 78.8895 76.7353C74.5726 80.9725 69.5023 84.0197 63.7917 86.0204C59.695 87.4557 55.4733 88.296 51.1541 88.712C49.4949 88.872 47.8346 88.9396 46.1719 88.9941C45.0388 89.032 44.5925 88.5603 44.5901 87.4178C44.5889 85.4669 44.5925 83.5065 44.5937 81.5568Z" fill="#FB0049"/>
</g>
<defs>
<clipPath id="clip0_1125_30786">
<rect width="74" height="74" fill="white" transform="translate(16 15)"/>
</clipPath>
</defs>
</svg>
