<svg width="100" height="100" viewBox="0 0 100 100" fill="none" xmlns="http://www.w3.org/2000/svg">
<mask id="mask0_1284_27571" style="mask-type:alpha" maskUnits="userSpaceOnUse" x="0" y="0" width="100" height="100">
<circle cx="50" cy="50" r="50" fill="white"/>
</mask>
<g mask="url(#mask0_1284_27571)">
<path d="M18.7648 50.0233C18.7648 48.7198 18.5837 47.4525 18.2578 46.2214C16.5923 40.7177 12.9352 37.2779 7.35911 35.8658C6.52632 35.6485 5.69352 35.5399 4.86073 35.5037C4.67969 35.5037 4.67969 35.3951 4.67969 35.2864V30H4.82452C4.93315 30.0362 5.07798 30.0362 5.18661 30H5.47628C5.80215 30.0724 6.16423 30.0362 6.52632 30.0724C8.26432 30.2897 10.0023 30.688 11.6317 31.3397C13.7318 32.1725 15.7233 33.3674 17.4251 34.8519C19.5976 36.7348 21.3718 39.0521 22.5666 41.6953C23.4719 43.6506 24.0512 45.7145 24.2684 47.8145C24.3047 48.1404 24.2684 48.4663 24.3409 48.7922V49.0818C24.3047 49.1905 24.3047 49.3353 24.3409 49.4439V50.0595C24.2322 50.1319 24.1236 50.1681 24.015 50.1319H19.1631C18.982 50.1319 18.8372 50.1319 18.7648 50.0233Z" fill="#284F9B"/>
<path d="M18.7648 50.0233H24.3047V50.5664C24.2684 50.675 24.3046 50.7836 24.2684 50.856C24.2322 50.9285 24.2322 51.0733 24.3047 51.1457V51.2905C24.2322 51.6526 24.2684 52.0147 24.2322 52.3768C24.0874 53.5355 23.8339 54.6941 23.5081 55.8528C22.9649 57.6994 22.1321 59.4374 21.0459 61.0306C20.4666 61.9358 19.7786 62.7686 19.0544 63.5652C17.7509 64.9773 16.2664 66.2084 14.637 67.186C12.1386 68.7068 9.35057 69.6482 6.41769 69.9741C6.12803 70.0103 5.80215 69.9741 5.51248 70.0465H5.40386C5.29523 70.0103 5.18661 70.0465 5.11419 70.0103C5.00557 70.0103 4.89694 69.9741 4.82452 70.0465H4.67969V64.7601C4.67969 64.579 4.7159 64.5428 4.89694 64.5428C11.4145 64.2532 17.1354 59.4012 18.4751 53.0285C18.6561 52.0871 18.7648 51.0733 18.7648 50.0233Z" fill="#009BD0"/>
<path d="M5.15115 30C5.04252 30.0724 4.89769 30.0724 4.78906 30H5.15115Z" fill="#5673AF"/>
<path d="M24.3043 49.4439C24.2319 49.3353 24.2319 49.1905 24.3043 49.0818V49.4439Z" fill="#6A83B9"/>
<path d="M24.2317 50.8923C24.2317 50.7836 24.1955 50.675 24.2679 50.6026V50.8923C24.2679 50.9285 24.2679 50.9285 24.2317 50.8923Z" fill="#4CB4DC"/>
<path d="M24.2305 50.8922H24.2667V51.1819C24.1943 51.1095 24.2667 51.0008 24.2305 50.8922Z" fill="#77C5E5"/>
<path d="M4.78906 70.0827C4.89769 70.0103 5.00631 70.0465 5.07873 70.0465V70.0827H4.78906Z" fill="#40B0DB"/>
<path d="M5.07812 70.0827V70.0465C5.18675 70.0465 5.29538 69.9741 5.36779 70.0827H5.07812Z" fill="#87CDE8"/>
<path d="M0.0078125 50.0595V48.5025V42.1298V41.804L1.20269 42.7454C4.2442 45.1351 7.32191 47.5249 10.3634 49.9146C10.4358 49.9508 10.5083 49.9871 10.5083 50.0595C10.3996 50.1319 10.2548 50.1681 10.11 50.1319H0.369897C0.261271 50.1681 0.116438 50.1319 0.0078125 50.0595Z" fill="#284F9B"/>
<path d="M0.009051 50.0594H10.5095C10.1836 50.3491 9.85774 50.6388 9.49565 50.8922C6.45415 53.282 3.37643 55.6718 0.298719 58.0615C0.226303 58.1339 0.117678 58.1701 0.0452616 58.2426C-0.0271552 58.1701 0.009051 58.1339 0.009051 58.0977V50.1681C0.009051 50.0957 0.009051 50.0594 0.009051 50.0594Z" fill="#009BD0"/>
<path d="M28.7969 69.7569C29.0503 68.2723 29.3038 66.824 29.5935 65.3394C30.6073 59.9082 31.6211 54.5131 32.6712 49.0819C33.3229 45.5334 34.0109 42.0212 34.6626 38.4728C34.7351 38.1831 34.8075 38.0745 35.1333 38.0745C36.1472 38.1107 37.1972 38.1107 38.2111 38.0745C38.6094 38.0745 38.6456 38.2193 38.5731 38.5452C38.3921 39.7039 38.1024 40.8626 37.7766 41.985C38.03 41.9488 38.1024 41.7678 38.2111 41.6229C40.7094 38.3642 45.0907 37.1693 48.9288 38.6901C51.3547 39.6677 52.7306 41.5867 53.31 44.0489C54.4686 48.937 52.8755 55.4545 48.0235 58.9668C45.3803 60.8496 42.4837 61.61 39.2611 60.741C37.5593 60.3065 36.111 59.1478 35.3506 57.5546C35.3144 57.4822 35.242 57.4098 35.2058 57.3012H35.1696C34.4816 61.4289 33.6488 65.5567 32.8522 69.6845L28.7969 69.7569Z" fill="#009BD0"/>
<path d="M75.7558 69.7568C75.4661 69.612 75.1403 69.5034 74.8144 69.5034C74.054 69.2861 73.2936 68.9602 72.6057 68.5257C72.3884 68.3809 72.3522 68.2723 72.4971 68.055C73.004 67.2584 73.5471 66.4619 74.054 65.6291C74.1988 65.4118 74.2713 65.3756 74.5247 65.5204C76.1179 66.4619 78.1456 66.2808 79.5215 65.0135C80.2094 64.4342 80.7888 63.71 81.2595 62.9134C81.694 62.1893 82.1647 61.4289 82.6354 60.7047C82.7802 60.4875 82.8527 60.1978 82.744 59.9081C81.1147 52.8113 79.4491 45.6782 77.7835 38.5452C77.7111 38.1469 77.7111 38.0383 78.1818 38.0383C79.3404 38.0745 80.4991 38.0383 81.6216 38.0383C81.9112 38.0383 82.0561 38.0745 82.1285 38.4365C83.1423 43.5419 84.1562 48.6835 85.17 53.8251C85.3148 54.5493 85.3873 55.2735 85.4959 56.1425C86.1114 54.839 86.727 53.6803 87.3787 52.5216C89.9495 47.8507 92.5203 43.1799 95.0911 38.509C95.2359 38.1831 95.5256 38.0021 95.8877 38.0383C97.2636 38.0745 98.6395 38.0383 99.9792 38.0383C100.052 38.2193 99.9068 38.3279 99.8344 38.4365C94.6566 47.199 89.4426 55.9976 84.2648 64.7601C83.1423 66.6791 81.6578 68.2361 79.5577 69.1775C78.9784 69.431 78.3266 69.5034 77.7473 69.7568H75.7558Z" fill="#009BD0"/>
<path d="M68.7307 56.8666C68.4772 57.1925 68.26 57.4821 68.0427 57.7356C66.3409 59.6908 64.2408 60.9943 61.5614 61.1392C59.8596 61.284 58.1578 60.7771 56.7457 59.7633C54.8266 58.3511 54.1749 55.9252 55.0077 53.3182C55.6232 51.3629 56.9267 50.0232 58.6647 49.0818C60.5114 48.1042 62.539 47.4524 64.6029 47.1989C66.3409 46.9455 68.1151 46.8369 69.8893 46.8731C70.2514 46.8731 70.3963 46.7644 70.4325 46.4024C70.5411 45.6782 70.5411 44.954 70.4687 44.2299C70.2514 42.7815 69.2014 41.8763 67.6082 41.6953C65.0736 41.4056 62.8287 42.2022 60.6562 43.3971C60.0769 43.7229 60.0768 43.7229 59.8596 43.0712C59.6061 42.2746 59.3165 41.4418 59.063 40.6452C58.9906 40.428 58.9906 40.3193 59.2079 40.2107C62.5028 38.4727 65.9788 37.6037 69.7083 38.2917C72.4963 38.7986 74.1981 40.5004 74.705 43.1436C74.8861 44.5195 74.8499 45.9316 74.524 47.2714C73.655 51.7612 72.786 56.2148 71.917 60.7047C71.8446 61.0306 71.736 61.1392 71.4101 61.1392C70.3963 61.103 69.3462 61.1392 68.3324 61.1392C67.9703 61.1392 67.9341 61.0668 68.0065 60.7047C68.2237 59.4736 68.4772 58.2063 68.7307 56.8666Z" fill="#009BD0"/>
<path d="M36.3984 51.5802C36.5071 48.5025 37.5571 45.7506 39.9107 43.6143C41.2142 42.347 42.9884 41.6953 44.7988 41.7677C46.9713 41.8763 48.5283 43.1074 49.0714 45.1713C49.9404 48.3938 48.9628 53.3906 45.3419 55.9614C44.0746 56.939 42.5177 57.4097 40.9245 57.3373C38.6072 57.1925 36.9778 55.7079 36.5433 53.3182C36.4709 52.7389 36.3984 52.1595 36.3984 51.5802Z" fill="white"/>
<path d="M68.0454 49.9871H69.4938C69.711 49.9871 69.7835 50.0595 69.711 50.2767C69.2041 52.8475 67.7196 55.0924 65.5833 56.6132C64.497 57.3736 63.1573 57.7357 61.8176 57.5908C58.8847 57.3012 58.3778 54.7666 59.3916 52.9199C59.8623 52.1596 60.5141 51.5802 61.3107 51.2181C62.6866 50.6026 64.1711 50.2043 65.6557 50.0957C66.4885 50.0233 67.2851 49.9871 68.0454 49.9871Z" fill="white"/>
</g>
</svg>
