<?xml version="1.0" encoding="UTF-8"?>
<svg id="Layer_1" data-name="Layer 1" xmlns="http://www.w3.org/2000/svg" xmlns:xlink="http://www.w3.org/1999/xlink" viewBox="0 0 99.21 99.21">
  <defs>
    <style>
      .cls-1 {
        fill: #fff;
      }

      .cls-2 {
        fill: #d6006d;
      }

      .cls-3 {
        mask: url(#mask);
      }
    </style>
    <mask id="mask" width="99.21" height="99.21" maskUnits="userSpaceOnUse"/>
  </defs>
  <g class="cls-3">
    <g>
      <circle class="cls-2" cx="49.61" cy="49.61" r="49.61"/>
      <path class="cls-1" d="M8.01,47.73c.59,0,1.07-.48,1.07-1.08s-.48-1.08-1.07-1.08-1.07,.48-1.07,1.08,.48,1.08,1.07,1.08Z"/>
      <path class="cls-1" d="M90.75,56.15c.59,0,1.07-.48,1.07-1.07s-.48-1.08-1.07-1.08-1.07,.48-1.07,1.08,.48,1.07,1.07,1.07Z"/>
      <path class="cls-1" d="M40.13,49.64h0c0-1.2-.42-2.21-1.17-2.9l-.05-.05h-.01s0-.01,0-.01c-.71-.61-1.67-.93-2.82-.94,0,0-.01,0-.02,0s-.02,0-.03,0h0s-.06,0-.07,0c-.01,0-.03,0-.06,0h-.02s-.02,0-.03,0h0s0,0,0,0c0,0-.01,0-.02,0-1.14,.01-2.1,.33-2.81,.94h0l-.06,.06c-.75,.68-1.17,1.69-1.17,2.88h0s0,0,0,0v6.17c0,.08,.03,.16,.09,.22,.06,.06,.15,.09,.23,.09h1.1c.09,0,.17-.03,.23-.09,.06-.06,.1-.14,.1-.22v-5.96c0-.87,.23-1.49,.64-1.9,.39-.4,.99-.62,1.81-.64,.81,.02,1.41,.24,1.8,.64,.4,.41,.63,1.03,.63,1.9v5.96c0,.08,.03,.16,.1,.22,.06,.06,.15,.09,.23,.09h1.1c.09,0,.17-.03,.23-.09,.06-.06,.1-.14,.1-.22v-6.16Z"/>
      <path class="cls-1" d="M78.47,49.64h0c0-1.2-.42-2.21-1.17-2.9l-.05-.05h-.01s0-.01,0-.01c-.71-.61-1.67-.93-2.82-.94,0,0-.01,0-.02,0s-.02,0-.03,0h0s-.06,0-.07,0c-.01,0-.03,0-.06,0h-.02s-.02,0-.03,0h0s0,0,0,0c0,0-.01,0-.02,0-1.14,.01-2.1,.33-2.81,.94h0l-.06,.06c-.75,.68-1.17,1.69-1.17,2.88h0s0,0,0,0v6.17c0,.08,.03,.16,.09,.22,.06,.06,.15,.09,.23,.09h1.1c.09,0,.17-.03,.23-.09,.06-.06,.1-.14,.1-.22v-5.96c0-.87,.23-1.49,.64-1.9,.39-.4,.99-.62,1.81-.64,.81,.02,1.41,.24,1.8,.64,.4,.41,.63,1.03,.63,1.9v5.96c0,.08,.03,.16,.1,.22,.06,.06,.15,.09,.23,.09h1.1c.09,0,.17-.03,.23-.09,.06-.06,.1-.14,.1-.22v-6.16Z"/>
      <path class="cls-1" d="M57.92,50.95v.02h0v.03c0,.98-.11,1.94-.48,2.63-.37,.66-.96,1.1-2.11,1.12,0,0-.02,0-.04,0h-.02c-1.16-.01-1.76-.45-2.13-1.12-.38-.69-.48-1.66-.48-2.65v-.06c0-.98,.11-1.77,.48-2.46,.37-.67,.97-1.11,2.13-1.12h.04c1.16,.01,1.75,.45,2.13,1.12,.37,.69,.48,1.47,.48,2.46v.03Zm.33-4.16s-.01-.01-.02-.02c-.63-.58-1.63-.93-2.79-.94-.02,0-.04,0-.06,0-.95,0-1.9,.2-2.71,.9h0s0-.61,0-.61h0v-3.11c0-.08-.04-.16-.1-.22-.06-.06-.15-.09-.23-.09h-1.08c-.09,0-.17,.03-.23,.09-.06,.06-.1,.14-.1,.22v3.11h0v6.6h0v3.09c0,.08,.04,.16,.1,.22,.06,.06,.15,.09,.23,.09h1.08c.09,0,.17-.03,.23-.09,.06-.06,.1-.14,.1-.22v-.64c.72,.81,1.76,1.09,2.71,1.09h.07c1.16,0,2.16-.36,2.78-.94,1.17-1.1,1.43-2.8,1.44-4.37,0-1.56-.27-3.06-1.42-4.16Z"/>
      <path class="cls-1" d="M28.69,52.36c0,.83-.18,1.28-.43,1.49-.59,.54-1.31,.62-2.2,.62h-.03c-.85,0-1.41-.15-1.73-.38-.3-.22-.46-.53-.46-1.06v-.02c0-.53,.17-.86,.47-1.1,.32-.24,.86-.4,1.66-.4h2.71v.84Zm1.82-3.18h0c0-1.05-.35-1.95-1.08-2.55-.74-.6-1.79-.89-3.15-.89h-.07c-1.43,0-2.56,.31-3.42,1.22h0s-.05,.06-.05,.06c-.06,.07-.13,.15-.19,.23,0,0,0,0,0,0l-.09,.1c-.05,.06-.08,.15-.07,.23,0,.09,.05,.17,.12,.22l.05,.04s.04,.04,.06,.06l.19,.16,.51,.44c.07,.06,.15,.09,.24,.08,.08,0,.16-.04,.21-.1l.33-.39h0c.21-.22,.42-.38,.67-.49,.36-.16,.82-.23,1.49-.24h.03c.95,0,1.54,.19,1.88,.49,.34,.29,.51,.73,.51,1.42,0,0,0,.02,0,.03v.65h-2.82c-1.14,0-2.09,.26-2.78,.79-.68,.52-1.06,1.33-1.06,2.27v.04c0,.78,.3,1.55,.83,2.08,.72,.71,1.68,.97,3.14,.97h.75c1.33,0,2.29-.33,2.9-.99,.61-.66,.86-1.62,.86-2.81v-3.13Z"/>
      <path class="cls-1" d="M62.2,53.06v-.02c0-.53,.17-.86,.47-1.09,.32-.24,.86-.4,1.66-.4h2.71v.84c0,.82-.18,1.28-.43,1.49-.59,.54-1.31,.62-2.2,.62h-.03c-.85,0-1.41-.15-1.73-.38-.3-.22-.46-.53-.46-1.06Zm6.66-3.86h0c0-1.05-.35-1.95-1.08-2.55-.74-.6-1.79-.89-3.15-.89h-.07c-1.43,0-2.56,.31-3.42,1.22h0s-.05,.06-.05,.06c-.06,.07-.13,.15-.19,.22,0,0,0,0,0,0l-.09,.1c-.05,.06-.08,.15-.07,.23,0,.08,.05,.17,.12,.22l.05,.04s.04,.04,.06,.06l.19,.16,.51,.44c.07,.06,.15,.09,.24,.08,.08,0,.16-.04,.21-.1l.33-.39h0c.21-.22,.42-.38,.67-.49,.36-.16,.82-.23,1.49-.24h0s.02,0,.02,0c.95,0,1.54,.2,1.88,.49,.34,.29,.51,.73,.51,1.42,0,0,0,.02,0,.03v.65h-2.82c-1.14,0-2.09,.26-2.78,.79-.68,.52-1.06,1.33-1.06,2.27v.04c0,.78,.3,1.55,.83,2.08,.72,.71,1.68,.97,3.14,.97h.75c1.33,0,2.29-.33,2.9-.99,.61-.66,.86-1.62,.86-2.81v-3.13Z"/>
      <path class="cls-1" d="M13.57,45.78h-1.86v-1.88h0v-.91c0-.16-.14-.3-.32-.3h-1.12c-.08,0-.17,.03-.23,.09-.06,.06-.1,.13-.1,.21v1.68h0v8.82c0,.72,.21,1.36,.66,1.85,.43,.47,1.13,.77,1.94,.77h.54s.47,0,.47,0c.08,0,.16-.04,.22-.1,.06-.06,.09-.15,.09-.24v-1.09c0-.09-.03-.17-.09-.24-.06-.06-.14-.1-.22-.1h-.86c-.17,0-.32-.03-.44-.07-.08-.03-.13-.06-.17-.09-.05-.03-.08-.05-.13-.1-.17-.17-.26-.45-.26-.86v-5.68h1.86c.08,0,.16-.04,.22-.1,.06-.06,.09-.15,.09-.24v-1.09c0-.09-.03-.17-.09-.24-.06-.06-.14-.1-.22-.1Z"/>
      <path class="cls-1" d="M21.57,47.07l-.1-.11s-.01-.03-.02-.04l-.06-.06h0s-.09-.09-.09-.09l-.07-.08h0c-.63-.66-1.42-.94-2.26-.94-.02,0-.04,0-.07,0-.59,0-1.3,.27-1.72,.77l-.29,.34v-.77c0-.08-.04-.16-.1-.22-.06-.06-.15-.09-.24-.09h-1.08c-.09,0-.17,.03-.23,.09-.06,.06-.1,.14-.1,.22v9.71c0,.08,.04,.16,.1,.22,.06,.06,.15,.09,.23,.09h.19s.01,0,.02,0h.68s.01,0,.02,0h.18c.09,0,.17-.03,.23-.09,.06-.06,.1-.14,.1-.22v-.17s0,0,0,0v-5.76s0-.01,0-.02v-.47c.03-.54,.2-1.02,.48-1.37,.3-.37,.74-.62,1.33-.62,.31,0,.52,.04,.7,.11,.17,.07,.35,.2,.58,.44l.05,.05,.24,.26c.06,.06,.14,.1,.22,.1,.09,0,.17-.03,.24-.09l.81-.74c.06-.06,.11-.14,.11-.23,0-.09-.02-.17-.08-.23Z"/>
      <path class="cls-1" d="M48.86,50.81s0,0-.01,0h0c-.63-.44-1.43-.59-2.3-.67l-1.62-.14c-.67-.06-1.09-.2-1.33-.39-.21-.16-.33-.41-.34-.8h0s0,0,0,0v-.02c0-.46,.18-.79,.5-1.02,.34-.24,.88-.4,1.65-.4h0c.98,0,1.79,.23,2.46,.66h0s.41,.29,.41,.29c.07,.05,.15,.06,.23,.04,.08-.02,.16-.07,.2-.14l.6-.88c.05-.07,.07-.16,.06-.24,0-.05-.02-.09-.05-.13-.02-.04-.05-.08-.1-.11l-.07-.05c-.96-.69-2.31-1.07-3.76-1.07-1.16,0-2.15,.28-2.87,.81-.71,.52-1.13,1.32-1.13,2.22h0v.04c0,.8,.3,1.5,.89,1.98,.6,.49,1.44,.75,2.5,.83l1.66,.13c.61,.06,.99,.19,1.21,.38,.2,.16,.32,.41,.32,.81v.02h0c0,.51-.21,.86-.59,1.1-.41,.26-1.07,.42-1.99,.42h0s0,0-.02,0h0c-1.22,0-2.08-.28-2.75-.83l-.35-.3c-.06-.05-.15-.08-.23-.07-.08,.01-.16,.06-.22,.12l-.7,.84c-.06,.07-.09,.16-.08,.24,0,.08,.04,.16,.11,.22l.33,.28h0s.01,.01,.02,.02l.04,.04h0c1.02,.74,2.3,1.09,3.86,1.09h.03c1.29,0,2.37-.28,3.17-.83,.78-.54,1.25-1.37,1.25-2.33v-.05c0-.97-.37-1.7-.99-2.13Z"/>
      <path class="cls-1" d="M88.75,55.68l-1.36-1.91-2.72-3.96,2.11-2.24,1.23-1.3,.07-.08c.14-.14,.07-.29,.01-.35-.06-.06-.15-.09-.23-.09h-1.41c-.08,0-.19,.06-.25,.12,0,0,0,0,0,0l-4.74,5.05v-7.94c0-.08-.04-.16-.1-.22-.06-.06-.15-.09-.24-.09h-1.08c-.09,0-.17,.03-.23,.09-.06,.06-.1,.14-.1,.22v12.83c0,.08,.04,.16,.1,.22,.06,.06,.15,.09,.24,.09h1.08c.09,0,.17-.03,.23-.09,.06-.06,.1-.14,.1-.22v-2.59l2.05-2.22,1.38,2.07h0l1.94,2.9c.05,.06,.12,.17,.28,.17h1.41c.09,0,.17-.03,.23-.09,.06-.06,.1-.21-.01-.35Z"/>
      <path class="cls-1" d="M76.62,42.76h.19l.28,.84,.28-.84h.19v.99h-.13v-.59s0-.05,0-.1,0-.09,0-.15l-.28,.83h-.13l-.28-.83v.14c0,.05,0,.09,0,.11v.59h-.13v-.99Z"/>
      <path class="cls-1" d="M78.58,43.21c.06,0,.11-.01,.15-.04,.03-.02,.05-.07,.05-.14s-.02-.12-.08-.14c-.03-.01-.06-.02-.11-.02h-.32v.34h.3Zm-.44-.45h.45c.07,0,.14,.01,.18,.03,.09,.04,.14,.12,.14,.23,0,.06,0,.11-.04,.15-.03,.04-.06,.07-.11,.09,.04,.02,.07,.04,.09,.06,.02,.03,.03,.07,.03,.13v.13s.01,.07,.02,.09c0,.03,.02,.05,.04,.06v.02h-.16s0-.02-.01-.03c0-.01,0-.04,0-.08v-.17c-.01-.07-.04-.11-.08-.13-.02-.01-.07-.02-.12-.02h-.3v.42h-.13v-.99Z"/>
      <path class="cls-1" d="M77.86,43.74s-.06-.03-.06-.07,.03-.07,.07-.07c.04,0,.07,.03,.07,.07s-.03,.07-.07,.07Z"/>
      <path class="cls-1" d="M79.23,43.74s-.07-.03-.07-.07,.03-.07,.07-.07,.07,.03,.07,.07-.03,.07-.07,.07h0Z"/>
    </g>
  </g>
</svg>