<svg width="100" height="100" viewBox="0 0 100 100" fill="none" xmlns="http://www.w3.org/2000/svg">
<mask id="mask0_1125_30789" style="mask-type:alpha" maskUnits="userSpaceOnUse" x="0" y="0" width="100" height="100">
<circle cx="50" cy="50" r="50" fill="white"/>
</mask>
<g mask="url(#mask0_1125_30789)">
<circle cx="50" cy="50" r="50" fill="#507CDD"/>
<path d="M26.6814 44.1667L23.7756 53.0833L20.9023 44.1667H18.9543L16.0161 53.0333L13.1915 44.1667H11L14.7661 55.8333H17.0226L19.8796 47.2L22.688 55.8333H24.9282L28.6943 44.1667H26.6814Z" fill="white"/>
<path d="M31.8135 55.8333H33.9239V44.1667H31.8135V55.8333Z" fill="white"/>
<path d="M44.4908 49.7667C45.3674 49.2833 45.9518 48.4 45.9518 47.2C45.9518 45.35 44.4908 44.1667 41.7636 44.1667H36.4391V55.8333H42.0883C45.0103 55.8333 46.5362 54.6667 46.5362 52.6667C46.5362 51.15 45.7083 50.1667 44.4908 49.7667ZM41.5363 45.8667C42.9973 45.8667 43.8252 46.4 43.8252 47.4833C43.8252 48.55 42.9973 49.0833 41.5363 49.0833H38.5494V45.8667H41.5363ZM41.9584 54.1333H38.5494V50.7667H41.9584C43.5493 50.7667 44.4096 51.2833 44.4096 52.45C44.4096 53.6167 43.5493 54.1333 41.9584 54.1333Z" fill="white"/>
<path d="M55.4106 56C58.9332 56 61.5306 53.4667 61.5306 50C61.5306 46.5333 58.9332 44 55.4106 44C51.888 44 49.2906 46.55 49.2906 50C49.2906 53.45 51.888 56 55.4106 56ZM55.4106 54.1C53.1217 54.1 51.4172 52.3833 51.4172 50C51.4172 47.6167 53.1217 45.9 55.4106 45.9C57.6995 45.9 59.404 47.6167 59.404 50C59.404 52.3833 57.6995 54.1 55.4106 54.1Z" fill="white"/>
<path d="M72.7192 44.1667V52.0667L66.4531 44.1667H64.7162V55.8333H66.8103V47.9333L73.0763 55.8333H74.8133V44.1667H72.7192Z" fill="white"/>
<path d="M77.8315 55.8333H82.7989C86.4838 55.8333 89 53.5 89 50C89 46.5 86.4838 44.1667 82.7989 44.1667H77.8315V55.8333ZM79.9418 54V46H82.7015C85.2339 46 86.8734 47.5833 86.8734 50C86.8734 52.4167 85.2339 54 82.7015 54H79.9418Z" fill="white"/>
</g>
</svg>
