<svg width="100" height="100" viewBox="0 0 100 100" fill="none" xmlns="http://www.w3.org/2000/svg">
<mask id="mask0_1125_30452" style="mask-type:alpha" maskUnits="userSpaceOnUse" x="0" y="0" width="100" height="100">
<circle cx="50" cy="50" r="50" fill="white"/>
</mask>
<g mask="url(#mask0_1125_30452)">
<path d="M76.6283 25.8724V65.462C67.133 69.7553 56.6941 69.8421 56.6941 61.1687V22.9531C51.3052 21.3211 45.3161 21.4923 45.3161 25.788V48.631L45.4866 61.5978C45.4866 63.0586 45.6571 64.517 45.9141 65.2908C35.5615 69.9288 25.3819 70.2712 25.3819 61.0819V23.0375C19.993 21.4055 14.0039 21.5767 14.0039 25.8724V61.3398C14.0903 73.1905 21.5324 77.9996 31.712 77.9996C37.3578 77.9996 43.8609 76.5388 49.0792 72.7614C53.4425 76.7123 57.9764 77.9129 63.0242 77.9129C69.6978 77.9129 77.3103 76.1965 85.0958 72.7614C86.6351 72.0743 88.0039 70.9582 88.0039 68.9839V23.0375C82.6151 21.4055 76.6283 21.5791 76.6283 25.8724Z" fill="#1A4594"/>
</g>
</svg>
