<svg width="76" height="39" viewBox="0 0 76 39" fill="none" xmlns="http://www.w3.org/2000/svg">
<path d="M73.1851 10.9674C73.186 11.0311 73.1742 11.0942 73.1503 11.1532C73.1264 11.2122 73.0909 11.2658 73.0459 11.3108C73.0009 11.3558 72.9473 11.3913 72.8883 11.4152C72.8293 11.4392 72.7661 11.451 72.7025 11.45C72.6388 11.4512 72.5755 11.4396 72.5164 11.4158C72.4573 11.3919 72.4036 11.3564 72.3585 11.3114C72.3135 11.2663 72.278 11.2126 72.2541 11.1535C72.2303 11.0944 72.2187 11.0311 72.2199 10.9674C72.2199 10.6922 72.4272 10.4848 72.7025 10.4848C72.9742 10.4848 73.1851 10.6922 73.1851 10.9674ZM73.278 10.9674C73.2795 10.8914 73.2656 10.816 73.2372 10.7455C73.2088 10.675 73.1664 10.611 73.1127 10.5572C73.059 10.5035 72.9949 10.4611 72.9244 10.4327C72.8539 10.4043 72.7785 10.3904 72.7025 10.3919C72.6263 10.3899 72.5505 10.4035 72.4797 10.4317C72.4089 10.4599 72.3445 10.5022 72.2905 10.556C72.2365 10.6098 72.1941 10.674 72.1656 10.7448C72.1372 10.8155 72.1234 10.8912 72.1251 10.9674C72.1251 11.2945 72.3754 11.543 72.7025 11.543C73.026 11.543 73.278 11.2945 73.278 10.9674ZM72.9634 10.8316C72.9634 10.7011 72.8705 10.6421 72.7579 10.6421H72.4826V11.2713H72.5899V11.0282H72.7096L72.8347 11.2713H72.9599L72.8347 11.0175C72.9116 10.9924 72.9634 10.9317 72.9634 10.8316ZM72.8562 10.8352C72.8562 10.8959 72.8133 10.9245 72.7543 10.9245H72.5899V10.7458H72.7543C72.8133 10.7458 72.8562 10.7762 72.8562 10.8352Z" fill="#FF6600"/>
<path d="M76.002 32.9816H71.1511V37.8344H76.002V32.9816ZM61.3073 11.375L64.1976 33.0632L67.0822 11.375H71.5849L67.3736 37.8337H60.9711L56.8047 11.375H61.3073Z" fill="#FF6600"/>
<path d="M2.49699 11.3752H0V14.891H2.49699V37.834H6.88506V14.891H9.96832V11.3752H6.88685V5.9951C6.88685 5.21222 7.0495 4.61166 7.42843 4.20056C7.80914 3.79303 8.39005 3.6 9.18008 3.6H9.96832V0.00019455H8.38112C6.43285 0.00019455 4.55251 0.411285 3.65881 1.26208C2.76511 2.1111 2.49878 3.4284 2.49878 5.30516L2.49699 11.3752Z" fill="#FF6600"/>
<path d="M11.3359 37.8327H15.7347V11.374H11.3359V37.8327Z" fill="#FF6600"/>
<path d="M36.0491 26.1014H45.2184V17.9473C45.2077 13.0677 42.8627 11.0694 38.4192 11.0694C33.7988 11.0694 31.6324 13.0641 31.6324 17.9795V31.3796C31.6467 35.8481 34.3528 38.1628 38.4174 38.1628C42.4801 38.1628 45.2077 36.2592 45.2184 31.3796V29.2598H40.9698L40.9752 31.771C40.9752 33.562 40.3049 34.8007 38.5068 34.8007C36.7051 34.8007 36.0491 33.5495 36.0491 31.7692V26.1014ZM36.0491 17.0697C36.0491 15.5772 36.437 14.0311 38.4943 14.0311C40.5498 14.0311 40.9662 15.554 40.9662 17.0679V22.5356H36.0491V17.0697ZM25.6285 22.7912C22.2915 19.8938 22.0323 19.4738 22.0323 17.3146C22.0323 15.4736 22.1932 14.3565 23.8447 14.3565C25.4963 14.3565 25.7108 15.461 25.7108 17.336V19.7794H29.9505V15.7935C29.9362 12.6638 27.5286 11.073 23.7482 11.073C20.0269 11.073 17.6013 12.3117 17.5817 17.3146C17.5763 18.1654 17.5817 18.1654 17.5817 17.8365C17.587 19.4094 17.5942 21.9028 21.4818 25.2363L22.5971 26.1926C25.4623 28.6091 25.7751 28.9005 25.7626 31.7746C25.7626 33.5441 25.6518 34.8883 23.7929 34.8883C21.934 34.8883 21.8178 33.5352 21.8178 32.7005V29.3151H17.3672V32.8077C17.3672 37.1064 20.1645 38.1699 23.7875 38.1699C27.4159 38.1699 30.215 37.0957 30.215 31.5655V31.1061C30.2061 27.2418 29.5072 26.2051 25.6285 22.7912ZM51.1061 14.0973V11.3733H47.097V37.8303H51.4225V19.3915C51.4207 17.967 51.8854 17.0286 52.6916 16.4745C53.4584 15.9472 54.4003 15.7685 55.5997 15.7506V11.0694C53.3046 11.1177 52.3144 11.5699 51.149 14.0007L51.1061 14.0973Z" fill="#FF6600"/>
</svg>
