<?xml version="1.0" encoding="utf-8"?>
<!-- Generator: Adobe Illustrator 27.0.0, SVG Export Plug-In . SVG Version: 6.00 Build 0)  -->
<svg version="1.1" id="Camada_1" xmlns="http://www.w3.org/2000/svg" xmlns:xlink="http://www.w3.org/1999/xlink" x="0px" y="0px"
	 viewBox="0 0 1200 1200" style="enable-background:new 0 0 1200 1200;" xml:space="preserve">
<style type="text/css">
	.st0{clip-path:url(#SVGID_00000053523416319151730890000011557207532294940347_);}
	.st1{clip-path:url(#SVGID_00000023242099983995980110000018075800777775826828_);}
	.st2{clip-path:url(#SVGID_00000143611839760371048090000010729635472657661606_);}
	.st3{clip-path:url(#SVGID_00000106142707807421813200000018107803006794084013_);}
	.st4{clip-path:url(#SVGID_00000077318962770205488980000012641362725950711725_);}
	.st5{clip-path:url(#SVGID_00000143598856698620146460000004610859836943648414_);}
	.st6{clip-path:url(#SVGID_00000060001309032733028820000010601872003162660263_);}
	.st7{clip-path:url(#SVGID_00000030464598084006179230000014432841523604969404_);}
	.st8{clip-path:url(#SVGID_00000131365807780154750330000018134475527959531675_);}
	.st9{clip-path:url(#SVGID_00000121974395918199951820000002095857726854846368_);}
	.st10{fill:#E6E6E6;}
	.st11{fill:#FFFFFF;}
	.st12{fill:#CCCCCC;}
	.st13{clip-path:url(#SVGID_00000025410455488172142400000006032218935652270486_);}
	.st14{clip-path:url(#SVGID_00000084498669831079174450000017034311998055145865_);}
	.st15{clip-path:url(#SVGID_00000123413223190674490770000003830141449647957407_);}
	.st16{clip-path:url(#SVGID_00000160154457491406820980000012685995682305575563_);}
	.st17{clip-path:url(#SVGID_00000177462874909542611340000016901371548794499248_);}
	.st18{clip-path:url(#SVGID_00000176014613187881534250000014315770963000768958_);}
	.st19{clip-path:url(#SVGID_00000080168340002972581180000005545424644069092005_);}
	.st20{clip-path:url(#SVGID_00000073702568163886800340000014398262602416460173_);}
	.st21{clip-path:url(#SVGID_00000103238728570416546750000004494752997424783793_);}
	.st22{clip-path:url(#SVGID_00000083069950048787028360000011532370774923952770_);}
</style>
<g>
	
		<image style="overflow:visible;opacity:0.5;" width="1900" height="1883" xlink:href="970418C4.png"  transform="matrix(0.24 0 0 0.24 382.0916 366.4916)">
	</image>
	<g>
		<g>
			<defs>
				<path id="SVGID_1_" d="M829.9,590.9c0.1,66.1,0.4,146.4-54.3,191.2c-35.4,29-80.1,28.7-169.3,28c-88-0.7-132-1-166.6-30
					c-53.4-44.8-53.1-123-52.9-189.5c0.2-65.4,0.4-126.8,44.4-171.7c46.1-47.1,112-47.5,175.1-47.8c63.6-0.3,132-0.7,179.2,47.8
					C829.6,464.1,829.7,525.9,829.9,590.9z"/>
			</defs>
			<clipPath id="SVGID_00000077285934571294051870000005625204719388363396_">
				<use xlink:href="#SVGID_1_"  style="overflow:visible;"/>
			</clipPath>
			<g style="clip-path:url(#SVGID_00000077285934571294051870000005625204719388363396_);">
				<g>
					<defs>
						<rect id="SVGID_00000143591738065159583150000007843206881214280876_" x="381.7" y="366" width="453.2" height="449.3"/>
					</defs>
					<clipPath id="SVGID_00000017495011218762938380000012414939525258829214_">
						<use xlink:href="#SVGID_00000143591738065159583150000007843206881214280876_"  style="overflow:visible;"/>
					</clipPath>
					<g style="clip-path:url(#SVGID_00000017495011218762938380000012414939525258829214_);">
						<defs>
							<rect id="SVGID_00000155834405755024385360000004811389578317833659_" x="381.7" y="366" width="453.2" height="449.3"/>
						</defs>
						<clipPath id="SVGID_00000149343940656796182890000016689197231789909917_">
							<use xlink:href="#SVGID_00000155834405755024385360000004811389578317833659_"  style="overflow:visible;"/>
						</clipPath>
						<g style="clip-path:url(#SVGID_00000149343940656796182890000016689197231789909917_);">
							
								<image style="overflow:visible;" width="945" height="937" xlink:href="970418C4.jpg"  transform="matrix(0.48 0 0 0.48 381.6 365.76)">
							</image>
						</g>
					</g>
				</g>
			</g>
		</g>
	</g>
</g>
<g>
	<g>
		<defs>
			<circle id="SVGID_00000003073128100516024900000012517014192948406431_" cx="596.2" cy="527.6" r="6.8"/>
		</defs>
		<clipPath id="SVGID_00000080924343609177677610000008906232694237352360_">
			<use xlink:href="#SVGID_00000003073128100516024900000012517014192948406431_"  style="overflow:visible;"/>
		</clipPath>
		<g style="clip-path:url(#SVGID_00000080924343609177677610000008906232694237352360_);">
			<g>
				<defs>
					<rect id="SVGID_00000099623437853813940900000008236651593714997124_" x="584.4" y="515.8" width="23.6" height="23.6"/>
				</defs>
				<clipPath id="SVGID_00000113340401842553516490000014676420257872357028_">
					<use xlink:href="#SVGID_00000099623437853813940900000008236651593714997124_"  style="overflow:visible;"/>
				</clipPath>
				<g style="clip-path:url(#SVGID_00000113340401842553516490000014676420257872357028_);">
					<defs>
						<rect id="SVGID_00000165941548781869451820000004670453330192711599_" x="584.4" y="515.8" width="23.6" height="23.6"/>
					</defs>
					<clipPath id="SVGID_00000161603801992356176070000016258069380151046544_">
						<use xlink:href="#SVGID_00000165941548781869451820000004670453330192711599_"  style="overflow:visible;"/>
					</clipPath>
					<g style="clip-path:url(#SVGID_00000161603801992356176070000016258069380151046544_);">
						
							<image style="overflow:visible;" width="50" height="50" xlink:href="970418C3.jpg"  transform="matrix(0.48 0 0 0.48 584.16 515.52)">
						</image>
					</g>
				</g>
			</g>
		</g>
	</g>
</g>
<g>
	<g>
		<defs>
			<circle id="SVGID_00000018201671299000576610000002857191397327980985_" cx="621.5" cy="656" r="6.8"/>
		</defs>
		<clipPath id="SVGID_00000010293868812957180310000005907750686398910602_">
			<use xlink:href="#SVGID_00000018201671299000576610000002857191397327980985_"  style="overflow:visible;"/>
		</clipPath>
		<g style="clip-path:url(#SVGID_00000010293868812957180310000005907750686398910602_);">
			<g>
				<defs>
					<rect id="SVGID_00000165202493561694090070000006500319360718449327_" x="609.7" y="644.2" width="23.6" height="23.6"/>
				</defs>
				<clipPath id="SVGID_00000012470712106814737060000005036654713893507991_">
					<use xlink:href="#SVGID_00000165202493561694090070000006500319360718449327_"  style="overflow:visible;"/>
				</clipPath>
				<g style="clip-path:url(#SVGID_00000012470712106814737060000005036654713893507991_);">
					<defs>
						<rect id="SVGID_00000103971732110230864240000003603922079254855097_" x="609.7" y="644.2" width="23.6" height="23.6"/>
					</defs>
					<clipPath id="SVGID_00000147935069606179269170000000965383112094822794_">
						<use xlink:href="#SVGID_00000103971732110230864240000003603922079254855097_"  style="overflow:visible;"/>
					</clipPath>
					<g style="clip-path:url(#SVGID_00000147935069606179269170000000965383112094822794_);">
						
							<image style="overflow:visible;" width="50" height="50" xlink:href="970418CC.jpg"  transform="matrix(0.48 0 0 0.48 609.6 644.16)">
						</image>
					</g>
				</g>
			</g>
		</g>
	</g>
</g>
<g>
	<g>
		<defs>
			<circle id="SVGID_00000026861202222284360390000006729539890089199023_" cx="673.7" cy="576" r="6.8"/>
		</defs>
		<clipPath id="SVGID_00000063632116556125918190000012448172031722011539_">
			<use xlink:href="#SVGID_00000026861202222284360390000006729539890089199023_"  style="overflow:visible;"/>
		</clipPath>
		<g style="clip-path:url(#SVGID_00000063632116556125918190000012448172031722011539_);">
			<g>
				<defs>
					<rect id="SVGID_00000067926952965402040110000004173856104434664363_" x="661.9" y="564.2" width="23.6" height="23.6"/>
				</defs>
				<clipPath id="SVGID_00000147193702856383465720000016483741498472414136_">
					<use xlink:href="#SVGID_00000067926952965402040110000004173856104434664363_"  style="overflow:visible;"/>
				</clipPath>
				<g style="clip-path:url(#SVGID_00000147193702856383465720000016483741498472414136_);">
					<defs>
						<rect id="SVGID_00000046328024148155278260000007348040246052041885_" x="661.9" y="564.2" width="23.6" height="23.6"/>
					</defs>
					<clipPath id="SVGID_00000092454551141676038080000006701669548783521727_">
						<use xlink:href="#SVGID_00000046328024148155278260000007348040246052041885_"  style="overflow:visible;"/>
					</clipPath>
					<g style="clip-path:url(#SVGID_00000092454551141676038080000006701669548783521727_);">
						
							<image style="overflow:visible;" width="51" height="50" xlink:href="970418CF.jpg"  transform="matrix(0.48 0 0 0.48 661.44 564)">
						</image>
					</g>
				</g>
			</g>
		</g>
	</g>
</g>
<g>
	<g>
		<defs>
			<circle id="SVGID_00000039091939681511391070000003047417741170175657_" cx="552.8" cy="605.3" r="6.8"/>
		</defs>
		<clipPath id="SVGID_00000173861605819644120600000017624108310291696291_">
			<use xlink:href="#SVGID_00000039091939681511391070000003047417741170175657_"  style="overflow:visible;"/>
		</clipPath>
		<g style="clip-path:url(#SVGID_00000173861605819644120600000017624108310291696291_);">
			<g>
				<defs>
					<rect id="SVGID_00000125574768583272958380000001394428003333419162_" x="541" y="593.6" width="23.6" height="23.6"/>
				</defs>
				<clipPath id="SVGID_00000008136246414095110250000008449379193842669975_">
					<use xlink:href="#SVGID_00000125574768583272958380000001394428003333419162_"  style="overflow:visible;"/>
				</clipPath>
				<g style="clip-path:url(#SVGID_00000008136246414095110250000008449379193842669975_);">
					<defs>
						<rect id="SVGID_00000052782792723684621850000005345817192401837706_" x="541" y="593.6" width="23.6" height="23.6"/>
					</defs>
					<clipPath id="SVGID_00000111184200394629485450000014855036671018385292_">
						<use xlink:href="#SVGID_00000052782792723684621850000005345817192401837706_"  style="overflow:visible;"/>
					</clipPath>
					<g style="clip-path:url(#SVGID_00000111184200394629485450000014855036671018385292_);">
						
							<image style="overflow:visible;" width="50" height="50" xlink:href="970418CD.jpg"  transform="matrix(0.48 0 0 0.48 540.96 593.28)">
						</image>
					</g>
				</g>
			</g>
		</g>
	</g>
</g>
<path class="st10" d="M596.2,517.5c-5.6,0-10.1,4.5-10.1,10.1c0,4.4,2.8,8.2,6.8,9.5v20c0,1.8,1.5,3.3,3.3,3.3
	c1.8,0,3.3-1.5,3.3-3.3v-20c3.9-1.4,6.8-5.1,6.8-9.5C606.2,522,601.7,517.5,596.2,517.5z M596.2,531.1c-1.9,0-3.5-1.6-3.5-3.5
	c0-1.9,1.6-3.5,3.5-3.5c1.9,0,3.5,1.6,3.5,3.5C599.7,529.5,598.1,531.1,596.2,531.1z"/>
<path class="st10" d="M624.8,646.5v-24.1c0-1.8-1.5-3.3-3.3-3.3c-1.8,0-3.3,1.5-3.3,3.3v24.1c-3.9,1.4-6.8,5.1-6.8,9.5
	c0,5.6,4.5,10.1,10.1,10.1c5.6,0,10.1-4.5,10.1-10.1C631.6,651.6,628.7,647.8,624.8,646.5z M621.5,659.5c-1.9,0-3.5-1.6-3.5-3.5
	c0-1.9,1.6-3.5,3.5-3.5c1.9,0,3.5,1.6,3.5,3.5C625,657.9,623.4,659.5,621.5,659.5z"/>
<path class="st10" d="M664.2,572.7h-25.4c-1.8,0-3.3,1.5-3.3,3.3s1.5,3.3,3.3,3.3h25.4c1.4,3.9,5.1,6.8,9.5,6.8
	c5.6,0,10.1-4.5,10.1-10.1s-4.5-10.1-10.1-10.1C669.3,565.9,665.5,568.7,664.2,572.7z M677.2,576c0,1.9-1.6,3.5-3.5,3.5
	s-3.5-1.6-3.5-3.5c0-1.9,1.6-3.5,3.5-3.5S677.2,574,677.2,576z"/>
<path class="st10" d="M576.8,602h-14.5c-1.4-3.9-5.1-6.8-9.5-6.8c-5.6,0-10.1,4.5-10.1,10.1s4.5,10.1,10.1,10.1
	c4.4,0,8.2-2.8,9.5-6.8h14.5c1.8,0,3.3-1.5,3.3-3.3C580,603.5,578.6,602,576.8,602z M552.8,608.8c-1.9,0-3.5-1.6-3.5-3.5
	c0-1.9,1.6-3.5,3.5-3.5c1.9,0,3.5,1.6,3.5,3.5C556.3,607.3,554.7,608.8,552.8,608.8z"/>
<path class="st10" d="M580,584.1c0-1.8-1.5-3.3-3.3-3.3h-51.2v-53.3c0-1.8-1.5-3.3-3.3-3.3c-1.8,0-3.3,1.5-3.3,3.3v56.6
	c0,1.8,1.5,3.3,3.3,3.3h54.5C578.6,587.4,580,585.9,580,584.1z"/>
<path class="st10" d="M621.5,564.5c1.8,0,3.3-1.5,3.3-3.3v-52.2h52.3c1.8,0,3.3-1.5,3.3-3.3c0-1.8-1.5-3.3-3.3-3.3h-55.6
	c-1.8,0-3.3,1.5-3.3,3.3v55.5C618.2,563,619.7,564.5,621.5,564.5z"/>
<path class="st10" d="M692.7,590.9h-53.9c-1.8,0-3.3,1.5-3.3,3.3s1.5,3.3,3.3,3.3h50.6V649c0,1.8,1.5,3.3,3.3,3.3
	c1.8,0,3.3-1.5,3.3-3.3v-54.7C696,592.4,694.5,590.9,692.7,590.9z"/>
<path class="st10" d="M596.2,619c-1.8,0-3.3,1.5-3.3,3.3v49.4h-48.6c-1.8,0-3.3,1.5-3.3,3.3c0,1.8,1.5,3.3,3.3,3.3h51.9
	c1.8,0,3.3-1.5,3.3-3.3v-52.7C599.5,620.5,598,619,596.2,619z"/>
<path class="st11" d="M544,532.8h-43.4c-3,0-5.4-2.4-5.4-5.4v-43.4c0-3,2.4-5.4,5.4-5.4h43.4c3,0,5.4,2.4,5.4,5.4v43.4
	C549.4,530.3,546.9,532.8,544,532.8z"/>
<path class="st12" d="M544,478.5h-13.6c3,0,5.4,2.4,5.4,5.4v43.4c0,3-2.4,5.4-5.4,5.4h13.6c3,0,5.4-2.4,5.4-5.4v-43.4
	C549.4,481,546.9,478.5,544,478.5z"/>
<g>
	<g>
		<defs>
			<path id="SVGID_00000178911426335718321840000008291277277960864441_" d="M508.7,517.4v-23.5c0-1,0.8-1.8,1.8-1.8H534
				c1,0,1.8,0.8,1.8,1.8v23.5c0,1-0.8,1.8-1.8,1.8h-23.5C509.5,519.2,508.7,518.4,508.7,517.4z"/>
		</defs>
		<clipPath id="SVGID_00000155112214080276975560000015451504668843406988_">
			<use xlink:href="#SVGID_00000178911426335718321840000008291277277960864441_"  style="overflow:visible;"/>
		</clipPath>
		<g style="clip-path:url(#SVGID_00000155112214080276975560000015451504668843406988_);">
			<g>
				<defs>
					<rect id="SVGID_00000056393140544651968160000008146941788784575620_" x="503.7" y="487.1" width="37.1" height="37.1"/>
				</defs>
				<clipPath id="SVGID_00000124878716682500290950000009724320714588473254_">
					<use xlink:href="#SVGID_00000056393140544651968160000008146941788784575620_"  style="overflow:visible;"/>
				</clipPath>
				<g style="clip-path:url(#SVGID_00000124878716682500290950000009724320714588473254_);">
					<defs>
						<rect id="SVGID_00000015333756412841274770000013003429945247591579_" x="503.7" y="487.1" width="37.1" height="37.1"/>
					</defs>
					<clipPath id="SVGID_00000093884670056219042850000012707794580365945788_">
						<use xlink:href="#SVGID_00000015333756412841274770000013003429945247591579_"  style="overflow:visible;"/>
					</clipPath>
					<g style="clip-path:url(#SVGID_00000093884670056219042850000012707794580365945788_);">
						
							<image style="overflow:visible;" width="78" height="79" xlink:href="970418C2.jpg"  transform="matrix(0.48 0 0 0.48 503.52 486.72)">
						</image>
					</g>
				</g>
			</g>
		</g>
	</g>
</g>
<path class="st11" d="M637.3,627.9h-59.7c-4,0-7.2-3.2-7.2-7.2V561c0-4,3.2-7.2,7.2-7.2h59.7c4,0,7.2,3.2,7.2,7.2v59.7
	C644.5,624.7,641.3,627.9,637.3,627.9z"/>
<path class="st12" d="M637.3,553.8h-13.6c4,0,7.2,3.2,7.2,7.2v59.7c0,4-3.2,7.2-7.2,7.2h13.6c4,0,7.2-3.2,7.2-7.2V561
	C644.5,557,641.3,553.8,637.3,553.8z"/>
<g>
	<g>
		<defs>
			<path id="SVGID_00000046315087975461364720000002441800901414892934_" d="M584,612.6v-43.4c0-1,0.8-1.8,1.8-1.8h43.4
				c1,0,1.8,0.8,1.8,1.8v43.4c0,1-0.8,1.8-1.8,1.8h-43.4C584.8,614.4,584,613.6,584,612.6z"/>
		</defs>
		<clipPath id="SVGID_00000154390496666074818840000010501455712365063346_">
			<use xlink:href="#SVGID_00000046315087975461364720000002441800901414892934_"  style="overflow:visible;"/>
		</clipPath>
		<g style="clip-path:url(#SVGID_00000154390496666074818840000010501455712365063346_);">
			<g>
				<defs>
					<rect id="SVGID_00000103252918573182982780000000824255959099451320_" x="579" y="562.4" width="57" height="57"/>
				</defs>
				<clipPath id="SVGID_00000136407242252390041200000002642266778797227950_">
					<use xlink:href="#SVGID_00000103252918573182982780000000824255959099451320_"  style="overflow:visible;"/>
				</clipPath>
				<g style="clip-path:url(#SVGID_00000136407242252390041200000002642266778797227950_);">
					<defs>
						<rect id="SVGID_00000180347238556553594200000010814886875925009071_" x="579" y="562.4" width="57" height="57"/>
					</defs>
					<clipPath id="SVGID_00000054247597736204133600000014160225620018481590_">
						<use xlink:href="#SVGID_00000180347238556553594200000010814886875925009071_"  style="overflow:visible;"/>
					</clipPath>
					<g style="clip-path:url(#SVGID_00000054247597736204133600000014160225620018481590_);">
						
							<image style="overflow:visible;" width="119" height="120" xlink:href="970418C5.jpg"  transform="matrix(0.48 0 0 0.48 578.88 562.08)">
						</image>
					</g>
				</g>
			</g>
		</g>
	</g>
</g>
<path class="st11" d="M544,703.2h-43.4c-3,0-5.4-2.4-5.4-5.4v-43.4c0-3,2.4-5.4,5.4-5.4h43.4c3,0,5.4,2.4,5.4,5.4v43.4
	C549.4,700.8,546.9,703.2,544,703.2z"/>
<path class="st12" d="M544,649h-13.6c3,0,5.4,2.4,5.4,5.4v43.4c0,3-2.4,5.4-5.4,5.4h13.6c3,0,5.4-2.4,5.4-5.4v-43.4
	C549.4,651.4,546.9,649,544,649z"/>
<g>
	<g>
		<defs>
			<path id="SVGID_00000157989673244529176020000005798391501758923188_" d="M508.7,687.8v-23.5c0-1,0.8-1.8,1.8-1.8H534
				c1,0,1.8,0.8,1.8,1.8v23.5c0,1-0.8,1.8-1.8,1.8h-23.5C509.5,689.7,508.7,688.8,508.7,687.8z"/>
		</defs>
		<clipPath id="SVGID_00000046323596044414001170000003480199239519719612_">
			<use xlink:href="#SVGID_00000157989673244529176020000005798391501758923188_"  style="overflow:visible;"/>
		</clipPath>
		<g style="clip-path:url(#SVGID_00000046323596044414001170000003480199239519719612_);">
			<g>
				<defs>
					<rect id="SVGID_00000106868211526436788520000015139807441776850846_" x="503.7" y="657.5" width="37.1" height="37.1"/>
				</defs>
				<clipPath id="SVGID_00000076592092208795206740000014243791112842464930_">
					<use xlink:href="#SVGID_00000106868211526436788520000015139807441776850846_"  style="overflow:visible;"/>
				</clipPath>
				<g style="clip-path:url(#SVGID_00000076592092208795206740000014243791112842464930_);">
					<defs>
						<rect id="SVGID_00000065042334404238426460000005433160997077446803_" x="503.7" y="657.5" width="37.1" height="37.1"/>
					</defs>
					<clipPath id="SVGID_00000009585211213791348890000018410752126759059848_">
						<use xlink:href="#SVGID_00000065042334404238426460000005433160997077446803_"  style="overflow:visible;"/>
					</clipPath>
					<g style="clip-path:url(#SVGID_00000009585211213791348890000018410752126759059848_);">
						
							<image style="overflow:visible;" width="78" height="79" xlink:href="970418C7.jpg"  transform="matrix(0.48 0 0 0.48 503.52 657.12)">
						</image>
					</g>
				</g>
			</g>
		</g>
	</g>
</g>
<path class="st11" d="M714.4,532.8H671c-3,0-5.4-2.4-5.4-5.4v-43.4c0-3,2.4-5.4,5.4-5.4h43.4c3,0,5.4,2.4,5.4,5.4v43.4
	C719.8,530.3,717.4,532.8,714.4,532.8z"/>
<path class="st12" d="M714.4,478.5h-13.6c3,0,5.4,2.4,5.4,5.4v43.4c0,3-2.4,5.4-5.4,5.4h13.6c3,0,5.4-2.4,5.4-5.4v-43.4
	C719.8,481,717.4,478.5,714.4,478.5z"/>
<g>
	<g>
		<defs>
			<path id="SVGID_00000139293559538122865300000011629495098866830769_" d="M679.1,517.4v-23.5c0-1,0.8-1.8,1.8-1.8h23.5
				c1,0,1.8,0.8,1.8,1.8v23.5c0,1-0.8,1.8-1.8,1.8h-23.5C679.9,519.2,679.1,518.4,679.1,517.4z"/>
		</defs>
		<clipPath id="SVGID_00000055705639461125448240000014319731753777228690_">
			<use xlink:href="#SVGID_00000139293559538122865300000011629495098866830769_"  style="overflow:visible;"/>
		</clipPath>
		<g style="clip-path:url(#SVGID_00000055705639461125448240000014319731753777228690_);">
			<g>
				<defs>
					<rect id="SVGID_00000152957270754635416790000003690591807688320916_" x="674.1" y="487.1" width="37.1" height="37.1"/>
				</defs>
				<clipPath id="SVGID_00000119112677980121746270000012126470565099261110_">
					<use xlink:href="#SVGID_00000152957270754635416790000003690591807688320916_"  style="overflow:visible;"/>
				</clipPath>
				<g style="clip-path:url(#SVGID_00000119112677980121746270000012126470565099261110_);">
					<defs>
						<rect id="SVGID_00000060738466708735302490000015603883209237927574_" x="674.1" y="487.1" width="37.1" height="37.1"/>
					</defs>
					<clipPath id="SVGID_00000157301792641686244870000017674085002314346922_">
						<use xlink:href="#SVGID_00000060738466708735302490000015603883209237927574_"  style="overflow:visible;"/>
					</clipPath>
					<g style="clip-path:url(#SVGID_00000157301792641686244870000017674085002314346922_);">
						
							<image style="overflow:visible;" width="78" height="79" xlink:href="D39794A3.jpg"  transform="matrix(0.48 0 0 0.48 673.92 486.72)">
						</image>
					</g>
				</g>
			</g>
		</g>
	</g>
</g>
<path class="st11" d="M714.4,703.2H671c-3,0-5.4-2.4-5.4-5.4v-43.4c0-3,2.4-5.4,5.4-5.4h43.4c3,0,5.4,2.4,5.4,5.4v43.4
	C719.8,700.8,717.4,703.2,714.4,703.2z"/>
<path class="st12" d="M714.4,649h-13.6c3,0,5.4,2.4,5.4,5.4v43.4c0,3-2.4,5.4-5.4,5.4h13.6c3,0,5.4-2.4,5.4-5.4v-43.4
	C719.8,651.4,717.4,649,714.4,649z"/>
<g>
	<g>
		<defs>
			<path id="SVGID_00000051364729275242077970000012595292599346426798_" d="M679.1,687.8v-23.5c0-1,0.8-1.8,1.8-1.8h23.5
				c1,0,1.8,0.8,1.8,1.8v23.5c0,1-0.8,1.8-1.8,1.8h-23.5C679.9,689.7,679.1,688.8,679.1,687.8z"/>
		</defs>
		<clipPath id="SVGID_00000106146156276457322000000000371178693415331499_">
			<use xlink:href="#SVGID_00000051364729275242077970000012595292599346426798_"  style="overflow:visible;"/>
		</clipPath>
		<g style="clip-path:url(#SVGID_00000106146156276457322000000000371178693415331499_);">
			<g>
				<defs>
					<rect id="SVGID_00000072247134278890472230000015967833693745600143_" x="674.1" y="657.5" width="37.1" height="37.1"/>
				</defs>
				<clipPath id="SVGID_00000114057533031797640370000006970779658238801317_">
					<use xlink:href="#SVGID_00000072247134278890472230000015967833693745600143_"  style="overflow:visible;"/>
				</clipPath>
				<g style="clip-path:url(#SVGID_00000114057533031797640370000006970779658238801317_);">
					<defs>
						<rect id="SVGID_00000112596484719585127810000005360468634741983130_" x="674.1" y="657.5" width="37.1" height="37.1"/>
					</defs>
					<clipPath id="SVGID_00000063632218234539491550000009290157067836672656_">
						<use xlink:href="#SVGID_00000112596484719585127810000005360468634741983130_"  style="overflow:visible;"/>
					</clipPath>
					<g style="clip-path:url(#SVGID_00000063632218234539491550000009290157067836672656_);">
						
							<image style="overflow:visible;" width="78" height="79" xlink:href="D39794A1.jpg"  transform="matrix(0.48 0 0 0.48 673.92 657.12)">
						</image>
					</g>
				</g>
			</g>
		</g>
	</g>
</g>
</svg>
