<?xml version="1.0" encoding="utf-8"?>
<!-- Generator: Adobe Illustrator 27.0.0, SVG Export Plug-In . SVG Version: 6.00 Build 0)  -->
<svg version="1.1" id="Camada_1" xmlns="http://www.w3.org/2000/svg" xmlns:xlink="http://www.w3.org/1999/xlink" x="0px" y="0px"
	 viewBox="0 0 1200 1200" style="enable-background:new 0 0 1200 1200;" xml:space="preserve">
<style type="text/css">
	.st0{clip-path:url(#SVGID_00000052070133663904970130000001396075144865591437_);}
	.st1{clip-path:url(#SVGID_00000029768473059565173360000015154302671361325201_);}
	.st2{fill:#FFFFFF;}
</style>
<g>
	
		<image style="overflow:visible;opacity:0.5;" width="2131" height="2112" xlink:href="C29D6113.png"  transform="matrix(0.24 0 0 0.24 346.0916 348.4916)">
	</image>
	<g>
		<g>
			<defs>
				<path id="SVGID_1_" d="M849.4,600.5c0.2,74.4,0.4,164.7-61.1,215.1c-39.9,32.7-90.1,32.3-190.6,31.5
					c-99-0.8-148.5-1.2-187.5-33.8c-60.1-50.4-59.8-138.4-59.5-213.2c0.2-73.6,0.4-142.7,49.9-193.2c51.9-53,126-53.4,197.1-53.8
					c71.6-0.4,148.6-0.7,201.7,53.8C849.2,457.8,849.3,527.3,849.4,600.5z"/>
			</defs>
			<clipPath id="SVGID_00000036960853961513256370000010116283486440039340_">
				<use xlink:href="#SVGID_1_"  style="overflow:visible;"/>
			</clipPath>
			<g style="clip-path:url(#SVGID_00000036960853961513256370000010116283486440039340_);">
				<g>
					<defs>
						<rect id="SVGID_00000057862977726787700560000016370927862357287840_" x="345.7" y="348" width="508.7" height="504.3"/>
					</defs>
					<clipPath id="SVGID_00000146494869507937975940000009231731376056731802_">
						<use xlink:href="#SVGID_00000057862977726787700560000016370927862357287840_"  style="overflow:visible;"/>
					</clipPath>
					<g style="clip-path:url(#SVGID_00000146494869507937975940000009231731376056731802_);">
						<defs>
							<rect id="SVGID_00000181808275576803113020000006112358444856141699_" x="345.7" y="348" width="508.7" height="504.3"/>
						</defs>
						<clipPath id="SVGID_00000136392088698332664320000015057505558289947521_">
							<use xlink:href="#SVGID_00000181808275576803113020000006112358444856141699_"  style="overflow:visible;"/>
						</clipPath>
						<g style="clip-path:url(#SVGID_00000136392088698332664320000015057505558289947521_);">
							
								<image style="overflow:visible;" width="1061" height="1051" xlink:href="C29D6111.jpg"  transform="matrix(0.48 0 0 0.48 345.6 348)">
							</image>
						</g>
					</g>
				</g>
			</g>
		</g>
	</g>
</g>
<path class="st2" d="M704.6,637.3c-5.5,0-10.6,2.1-14.5,5.5l-41.7-23.6c2.3-5.9,3.7-12.3,3.7-19c0-13.1-5-24.9-13-34l42.2-49.2
	c2.5,1,5.2,1.5,8,1.5c12.3,0,22.3-10,22.3-22.3c0-12.3-10-22.8-22.3-22.8s-22.3,10.5-22.3,22.8c0,4,1.2,7.8,3,11l-42.1,49.1
	c-8.1-5.1-17.5-8.2-27.8-8.2c-8,0-15.5,2-22.3,5.2l-19.4-29.1c2.8-3.7,4.5-8.3,4.5-13.3c0-12.3-10-22.3-22.3-22.3
	s-22.3,10-22.3,22.3c0,12.3,10,22.3,22.3,22.3c1.9,0,3.7-0.3,5.4-0.7l19.4,29.1c-10.6,9.5-17.4,23.2-17.4,38.5c0,4.6,0.8,9.1,2,13.4
	L512,629.7c-4.1-4.4-9.8-7.2-16.3-7.2c-12.3,0-22.3,10-22.3,22.3s10,22.3,22.3,22.3c12.3,0,22.3-10,22.3-22.3c0-0.5-0.1-0.9-0.1-1.4
	l38.1-16.1c9.1,14.9,25.4,24.9,44.1,25l4.6,32.9c-7.1,3.7-12,11.1-12,19.6c0,12.3,10,22.3,22.3,22.3s22.3-10,22.3-22.3
	c0-10.8-7.7-19.8-17.9-21.8l-4.6-33c10.5-3.1,19.6-9.4,26.2-17.8l41.8,23.6c-0.2,1.3-0.4,2.6-0.4,3.9c0,12.3,10,22.3,22.3,22.3
	s22.3-10,22.3-22.3S716.8,637.3,704.6,637.3z"/>
</svg>
