<?xml version="1.0" encoding="utf-8"?>
<!-- Generator: Adobe Illustrator 27.0.0, SVG Export Plug-In . SVG Version: 6.00 Build 0)  -->
<svg version="1.1" id="Camada_1" xmlns="http://www.w3.org/2000/svg" xmlns:xlink="http://www.w3.org/1999/xlink" x="0px" y="0px"
	 viewBox="0 0 1200 1200" style="enable-background:new 0 0 1200 1200;" xml:space="preserve">
<style type="text/css">
	.st0{clip-path:url(#SVGID_00000056397817943694375190000007460422691211952007_);}
	.st1{clip-path:url(#SVGID_00000150794732578519456130000013308721451563580040_);}
	.st2{fill:#CCCCCC;}
	.st3{fill:#E6E6E6;}
	.st4{fill:#FFFFFF;}
	.st5{fill:#F2F2F2;}
	.st6{clip-path:url(#SVGID_00000091707011609593786260000004315400865579248825_);}
	.st7{clip-path:url(#SVGID_00000026145674952690927370000003990076947775092138_);}
	.st8{clip-path:url(#SVGID_00000133525629383931269700000000737014448766119845_);}
	.st9{clip-path:url(#SVGID_00000116948103291078589660000000440498345948236176_);}
	.st10{clip-path:url(#SVGID_00000121976819833406852280000006679176036076733343_);}
	.st11{clip-path:url(#SVGID_00000151537459053111714360000006553319354591322504_);}
	.st12{clip-path:url(#SVGID_00000045611943033179279860000001248195552039093899_);}
	.st13{clip-path:url(#SVGID_00000020395416201680773730000013763817872932405169_);}
	.st14{clip-path:url(#SVGID_00000093869540952365035320000018144807423688858775_);}
	.st15{clip-path:url(#SVGID_00000116915878782351813730000006808136044995478945_);}
	.st16{clip-path:url(#SVGID_00000181779042114022674860000013051126400898407072_);}
	.st17{clip-path:url(#SVGID_00000006706705924062791410000011206683750785928587_);}
</style>
<g>
	
		<image style="overflow:visible;opacity:0.5;" width="2231" height="2213" xlink:href="A668019A.png"  transform="matrix(0.24 0 0 0.24 324.2516 286.3316)">
	</image>
	<g>
		<g>
			<defs>
				<path id="SVGID_1_" d="M851.7,550.5c0.2,78,0.4,172.7-64,225.6c-41.8,34.3-94.5,33.8-199.8,33c-103.8-0.8-155.7-1.2-196.6-35.4
					c-63-52.8-62.7-145.2-62.4-223.6c0.3-77.1,0.5-149.6,52.4-202.6c54.4-55.6,132.1-56,206.6-56.4c75-0.4,155.8-0.8,211.5,56.4
					C851.4,400.9,851.5,473.8,851.7,550.5z"/>
			</defs>
			<clipPath id="SVGID_00000000923951602782227750000017507436405882478210_">
				<use xlink:href="#SVGID_1_"  style="overflow:visible;"/>
			</clipPath>
			<g style="clip-path:url(#SVGID_00000000923951602782227750000017507436405882478210_);">
				<g>
					<defs>
						<rect id="SVGID_00000108272004388939323910000007688239160518213289_" x="323.8" y="286" width="532.9" height="528.3"/>
					</defs>
					<clipPath id="SVGID_00000085241350284225238130000005361645358027434890_">
						<use xlink:href="#SVGID_00000108272004388939323910000007688239160518213289_"  style="overflow:visible;"/>
					</clipPath>
					<g style="clip-path:url(#SVGID_00000085241350284225238130000005361645358027434890_);">
						<defs>
							<rect id="SVGID_00000176729196692870503290000010492115552144055441_" x="323.8" y="286" width="532.9" height="528.3"/>
						</defs>
						<clipPath id="SVGID_00000098938425619320782950000017034481151469928618_">
							<use xlink:href="#SVGID_00000176729196692870503290000010492115552144055441_"  style="overflow:visible;"/>
						</clipPath>
						<g style="clip-path:url(#SVGID_00000098938425619320782950000017034481151469928618_);">
							
								<image style="overflow:visible;" width="1111" height="1102" xlink:href="A668019E.jpg"  transform="matrix(0.48 0 0 0.48 323.52 285.6)">
							</image>
						</g>
					</g>
				</g>
			</g>
		</g>
	</g>
</g>
<path class="st2" d="M627.3,618.4v56.5c0,4.9-4,8.8-8.8,8.8H562c-4.9,0-8.8-4-8.8-8.8v-56.5c0-4.9,4-8.8,8.8-8.8h56.5
	C623.3,609.5,627.3,613.5,627.3,618.4z"/>
<path class="st2" d="M627.3,618.4v56.5c0,4.9-4,8.8-8.8,8.8h-28.2v-74.1h28.2C623.3,609.5,627.3,613.5,627.3,618.4z"/>
<path class="st3" d="M714.3,416.7H466.2c-14.6,0-26.5,11.9-26.5,26.5v157.6c0,14.6,11.9,26.5,26.5,26.5h248.2
	c14.6,0,26.5-11.9,26.5-26.5V443.1C740.8,428.5,728.9,416.7,714.3,416.7z"/>
<path class="st4" d="M740.8,443.1v157.6c0,14.6-11.9,26.5-26.5,26.5H590.2V416.7h124.1C728.9,416.7,740.8,428.5,740.8,443.1z"/>
<path class="st4" d="M723.1,443.1v157.6c0,4.9-4,8.8-8.8,8.8H466.2c-4.9,0-8.8-4-8.8-8.8V443.1c0-4.9,4-8.8,8.8-8.8h248.2
	C719.2,434.3,723.1,438.3,723.1,443.1z"/>
<path class="st3" d="M723.1,443.1v157.6c0,4.9-4,8.8-8.8,8.8H590.2V434.3h124.1C719.2,434.3,723.1,438.3,723.1,443.1z"/>
<path class="st3" d="M693.1,674.8c0,4.9-4,8.8-8.8,8.8H496.1c-4.9,0-8.8-4-8.8-8.8c0-4.9,4-8.8,8.8-8.8h188.2
	C689.2,666,693.1,669.9,693.1,674.8z"/>
<path class="st5" d="M693.1,674.8c0,4.9-4,8.8-8.8,8.8h-94.1V666h94.1C689.2,666,693.1,669.9,693.1,674.8z"/>
<g>
	<g>
		<defs>
			<path id="SVGID_00000132768662786928561910000002840750785027670438_" d="M480.5,474.1c-3.3-3.3-3.6-8.8,0-12.5
				c5.8-5.6,15.1-1.5,15.1,6.2C495.6,475.6,486,479.6,480.5,474.1z"/>
		</defs>
		<clipPath id="SVGID_00000064349597379316289090000017212334065682132611_">
			<use xlink:href="#SVGID_00000132768662786928561910000002840750785027670438_"  style="overflow:visible;"/>
		</clipPath>
		<g style="clip-path:url(#SVGID_00000064349597379316289090000017212334065682132611_);">
			<g>
				<defs>
					<rect id="SVGID_00000012434844392913870380000000690804626562392967_" x="472.9" y="454" width="27.7" height="27.6"/>
				</defs>
				<clipPath id="SVGID_00000131346457532316782000000007793304412953344693_">
					<use xlink:href="#SVGID_00000012434844392913870380000000690804626562392967_"  style="overflow:visible;"/>
				</clipPath>
				<g style="clip-path:url(#SVGID_00000131346457532316782000000007793304412953344693_);">
					<defs>
						<rect id="SVGID_00000078020083233832334910000003210132835793116056_" x="472.9" y="454" width="27.7" height="27.6"/>
					</defs>
					<clipPath id="SVGID_00000036938382398443268520000014371718688543558316_">
						<use xlink:href="#SVGID_00000078020083233832334910000003210132835793116056_"  style="overflow:visible;"/>
					</clipPath>
					<g style="clip-path:url(#SVGID_00000036938382398443268520000014371718688543558316_);">
						
							<image style="overflow:visible;" width="58" height="59" xlink:href="A6680199.jpg"  transform="matrix(0.48 0 0 0.48 472.8 453.6)">
						</image>
					</g>
				</g>
			</g>
		</g>
	</g>
</g>
<path class="st3" d="M571.4,476.6h-47c-4.9,0-8.8-3.9-8.8-8.8c0-4.9,3.9-8.8,8.8-8.8h47c4.9,0,8.8,3.9,8.8,8.8
	C580.2,472.7,576.3,476.6,571.4,476.6z"/>
<g>
	<g>
		<defs>
			<path id="SVGID_00000172426910050911390710000008566739983051950985_" d="M486.7,514.3c-4.8,0-8.8-3.9-8.8-8.8
				c0-5.3,4.6-9.3,9.7-8.8c4.7,0.4,8.4,4.8,7.9,9.6C495.2,510.6,491.3,514.3,486.7,514.3z"/>
		</defs>
		<clipPath id="SVGID_00000023988917117532811240000011436798593297882293_">
			<use xlink:href="#SVGID_00000172426910050911390710000008566739983051950985_"  style="overflow:visible;"/>
		</clipPath>
		<g style="clip-path:url(#SVGID_00000023988917117532811240000011436798593297882293_);">
			<g>
				<defs>
					<rect id="SVGID_00000066491272782526080860000013833969122809282709_" x="472.9" y="491.6" width="27.6" height="27.6"/>
				</defs>
				<clipPath id="SVGID_00000076569753465583333600000007823227719954054070_">
					<use xlink:href="#SVGID_00000066491272782526080860000013833969122809282709_"  style="overflow:visible;"/>
				</clipPath>
				<g style="clip-path:url(#SVGID_00000076569753465583333600000007823227719954054070_);">
					<defs>
						<rect id="SVGID_00000130622784419564511330000006498749729230818987_" x="472.9" y="491.6" width="27.6" height="27.6"/>
					</defs>
					<clipPath id="SVGID_00000012468074301915446210000006147448546277427110_">
						<use xlink:href="#SVGID_00000130622784419564511330000006498749729230818987_"  style="overflow:visible;"/>
					</clipPath>
					<g style="clip-path:url(#SVGID_00000012468074301915446210000006147448546277427110_);">
						
							<image style="overflow:visible;" width="58" height="58" xlink:href="A668019A.jpg"  transform="matrix(0.48 0 0 0.48 472.8 491.52)">
						</image>
					</g>
				</g>
			</g>
		</g>
	</g>
</g>
<path class="st3" d="M571.4,514.3h-47c-4.9,0-8.8-3.9-8.8-8.8s3.9-8.8,8.8-8.8h47c4.9,0,8.8,3.9,8.8,8.8S576.3,514.3,571.4,514.3z"
	/>
<g>
	<g>
		<defs>
			<path id="SVGID_00000019655746176878237510000009737887282144066703_" d="M480.5,549.3c-5.2-5.2-2.1-14.2,5.4-15
				c8-0.7,12.6,8.4,7.7,14.4C490.3,552.7,484.2,553.1,480.5,549.3z"/>
		</defs>
		<clipPath id="SVGID_00000090279272726005127680000009808511727314158216_">
			<use xlink:href="#SVGID_00000019655746176878237510000009737887282144066703_"  style="overflow:visible;"/>
		</clipPath>
		<g style="clip-path:url(#SVGID_00000090279272726005127680000009808511727314158216_);">
			<g>
				<defs>
					<rect id="SVGID_00000060008336937520966860000005087624410303806645_" x="472.9" y="529.3" width="27.7" height="27.6"/>
				</defs>
				<clipPath id="SVGID_00000181051784866058004980000000854211039834526350_">
					<use xlink:href="#SVGID_00000060008336937520966860000005087624410303806645_"  style="overflow:visible;"/>
				</clipPath>
				<g style="clip-path:url(#SVGID_00000181051784866058004980000000854211039834526350_);">
					<defs>
						<rect id="SVGID_00000106829511315141609630000010830858375359453312_" x="472.9" y="529.3" width="27.7" height="27.6"/>
					</defs>
					<clipPath id="SVGID_00000066484686473310267130000011979433399751574190_">
						<use xlink:href="#SVGID_00000106829511315141609630000010830858375359453312_"  style="overflow:visible;"/>
					</clipPath>
					<g style="clip-path:url(#SVGID_00000066484686473310267130000011979433399751574190_);">
						
							<image style="overflow:visible;" width="58" height="59" xlink:href="A6680198.jpg"  transform="matrix(0.48 0 0 0.48 472.8 528.96)">
						</image>
					</g>
				</g>
			</g>
		</g>
	</g>
</g>
<path class="st3" d="M571.4,551.9h-47c-4.9,0-8.8-3.9-8.8-8.8s3.9-8.8,8.8-8.8h47c4.9,0,8.8,3.9,8.8,8.8S576.3,551.9,571.4,551.9z"
	/>
<g>
	<g>
		<defs>
			<circle id="SVGID_00000005261875807838744560000013941374616367397026_" cx="651.4" cy="505.5" r="51.2"/>
		</defs>
		<clipPath id="SVGID_00000061443133846505927510000011326261480663132805_">
			<use xlink:href="#SVGID_00000005261875807838744560000013941374616367397026_"  style="overflow:visible;"/>
		</clipPath>
		<g style="clip-path:url(#SVGID_00000061443133846505927510000011326261480663132805_);">
			<g>
				<defs>
					<rect id="SVGID_00000079453128178905739440000017298887738742884760_" x="595.2" y="449.3" width="112.3" height="112.3"/>
				</defs>
				<clipPath id="SVGID_00000156565059171557274500000004471878590193956286_">
					<use xlink:href="#SVGID_00000079453128178905739440000017298887738742884760_"  style="overflow:visible;"/>
				</clipPath>
				<g style="clip-path:url(#SVGID_00000156565059171557274500000004471878590193956286_);">
					<defs>
						<rect id="SVGID_00000113350034666549642660000016945225760460976821_" x="595.2" y="449.3" width="112.3" height="112.3"/>
					</defs>
					<clipPath id="SVGID_00000110433560281974852640000013929244473665687460_">
						<use xlink:href="#SVGID_00000113350034666549642660000016945225760460976821_"  style="overflow:visible;"/>
					</clipPath>
					<g style="clip-path:url(#SVGID_00000110433560281974852640000013929244473665687460_);">
						
							<image style="overflow:visible;" width="235" height="235" xlink:href="A66801A6.jpg"  transform="matrix(0.48 0 0 0.48 595.2 449.28)">
						</image>
					</g>
				</g>
			</g>
		</g>
	</g>
</g>
<path class="st4" d="M702.6,505.5h-51.2v-51.2C679.6,454.3,702.6,477.2,702.6,505.5z"/>
<g>
	<g>
		<defs>
			<path id="SVGID_00000129884131821532072590000015458758418144928172_" d="M538.5,589.6h-14.1c-4.9,0-8.8-3.9-8.8-8.8
				c0-4.9,3.9-8.8,8.8-8.8h14.1c4.9,0,8.8,3.9,8.8,8.8C547.3,585.6,543.4,589.6,538.5,589.6z"/>
		</defs>
		<clipPath id="SVGID_00000129895526184366033460000007762596553463074709_">
			<use xlink:href="#SVGID_00000129884131821532072590000015458758418144928172_"  style="overflow:visible;"/>
		</clipPath>
		<g style="clip-path:url(#SVGID_00000129895526184366033460000007762596553463074709_);">
			<g>
				<defs>
					<rect id="SVGID_00000134232064667314989260000009524569382988761525_" x="510.6" y="566.9" width="41.8" height="27.6"/>
				</defs>
				<clipPath id="SVGID_00000008143701687851753260000017021139246470613405_">
					<use xlink:href="#SVGID_00000134232064667314989260000009524569382988761525_"  style="overflow:visible;"/>
				</clipPath>
				<g style="clip-path:url(#SVGID_00000008143701687851753260000017021139246470613405_);">
					<defs>
						<rect id="SVGID_00000068636652641558159420000009703179777277749156_" x="510.6" y="566.9" width="41.8" height="27.6"/>
					</defs>
					<clipPath id="SVGID_00000094576950440475377560000003773243243001214853_">
						<use xlink:href="#SVGID_00000068636652641558159420000009703179777277749156_"  style="overflow:visible;"/>
					</clipPath>
					<g style="clip-path:url(#SVGID_00000094576950440475377560000003773243243001214853_);">
						
							<image style="overflow:visible;" width="88" height="58" xlink:href="A66801A9.jpg"  transform="matrix(0.48 0 0 0.48 510.24 566.88)">
						</image>
					</g>
				</g>
			</g>
		</g>
	</g>
</g>
<g>
	<g>
		<defs>
			<path id="SVGID_00000071549168680845651080000011148642459884472220_" d="M623.2,589.6h-14.1c-4.9,0-8.8-3.9-8.8-8.8
				c0-4.9,3.9-8.8,8.8-8.8h14.1c4.9,0,8.8,3.9,8.8,8.8C632,585.6,628,589.6,623.2,589.6z"/>
		</defs>
		<clipPath id="SVGID_00000065060047135541084750000009045713219569418150_">
			<use xlink:href="#SVGID_00000071549168680845651080000011148642459884472220_"  style="overflow:visible;"/>
		</clipPath>
		<g style="clip-path:url(#SVGID_00000065060047135541084750000009045713219569418150_);">
			<g>
				<defs>
					<rect id="SVGID_00000111149794159813028540000013205016714407147661_" x="595.2" y="566.9" width="41.8" height="27.6"/>
				</defs>
				<clipPath id="SVGID_00000002366257478438259700000006539486167483079600_">
					<use xlink:href="#SVGID_00000111149794159813028540000013205016714407147661_"  style="overflow:visible;"/>
				</clipPath>
				<g style="clip-path:url(#SVGID_00000002366257478438259700000006539486167483079600_);">
					<defs>
						<rect id="SVGID_00000109000383726615245180000011401449641718917045_" x="595.2" y="566.9" width="41.8" height="27.6"/>
					</defs>
					<clipPath id="SVGID_00000141427859623781395600000008718550441063475877_">
						<use xlink:href="#SVGID_00000109000383726615245180000011401449641718917045_"  style="overflow:visible;"/>
					</clipPath>
					<g style="clip-path:url(#SVGID_00000141427859623781395600000008718550441063475877_);">
						
							<image style="overflow:visible;" width="88" height="58" xlink:href="A66801AA.jpg"  transform="matrix(0.48 0 0 0.48 595.2 566.88)">
						</image>
					</g>
				</g>
			</g>
		</g>
	</g>
</g>
</svg>
