<?xml version="1.0" encoding="utf-8"?>
<!-- Generator: Adobe Illustrator 27.0.0, SVG Export Plug-In . SVG Version: 6.00 Build 0)  -->
<svg version="1.1" id="Camada_1" xmlns="http://www.w3.org/2000/svg" xmlns:xlink="http://www.w3.org/1999/xlink" x="0px" y="0px"
	 viewBox="0 0 1200 1200" style="enable-background:new 0 0 1200 1200;" xml:space="preserve">
<style type="text/css">
	.st0{clip-path:url(#SVGID_00000067943788430046046630000001063924114520234685_);}
	.st1{clip-path:url(#SVGID_00000111871998294295297560000017589066606317788036_);}
	.st2{fill:#E6E6E6;}
	.st3{fill:#FFFFFF;}
</style>
<g>
	
		<image style="overflow:visible;opacity:0.5;" width="1988" height="1972" xlink:href="A8AEEBD.png"  transform="matrix(0.24 0 0 0.24 363.1316 365.2916)">
	</image>
	<g>
		<g>
			<defs>
				<path id="SVGID_1_" d="M832.2,600.5c0.1,69.3,0.4,153.4-56.9,200.4c-37.1,30.4-83.9,30.1-177.5,29.3
					c-92.2-0.7-138.3-1.1-174.6-31.5c-56-46.9-55.7-128.9-55.5-198.6c0.2-68.5,0.4-132.8,46.5-180c48.3-49.4,117.3-49.8,183.5-50.1
					c66.6-0.3,138.4-0.7,187.8,50.1C831.9,467.6,832.1,532.3,832.2,600.5z"/>
			</defs>
			<clipPath id="SVGID_00000088847608972344797410000011217763979223112613_">
				<use xlink:href="#SVGID_1_"  style="overflow:visible;"/>
			</clipPath>
			<g style="clip-path:url(#SVGID_00000088847608972344797410000011217763979223112613_);">
				<g>
					<defs>
						<rect id="SVGID_00000008859623625197893140000010985666460842058410_" x="362.8" y="365" width="474.4" height="470.4"/>
					</defs>
					<clipPath id="SVGID_00000102510995006585932630000001600924521176358548_">
						<use xlink:href="#SVGID_00000008859623625197893140000010985666460842058410_"  style="overflow:visible;"/>
					</clipPath>
					<g style="clip-path:url(#SVGID_00000102510995006585932630000001600924521176358548_);">
						<defs>
							<rect id="SVGID_00000082333425179092964870000008351706125190364814_" x="362.8" y="365" width="474.4" height="470.4"/>
						</defs>
						<clipPath id="SVGID_00000147207190048111220290000001742004244173841294_">
							<use xlink:href="#SVGID_00000082333425179092964870000008351706125190364814_"  style="overflow:visible;"/>
						</clipPath>
						<g style="clip-path:url(#SVGID_00000147207190048111220290000001742004244173841294_);">
							
								<image style="overflow:visible;" width="990" height="981" xlink:href="A8AEEBF.jpg"  transform="matrix(0.48 0 0 0.48 362.4 364.8)">
							</image>
						</g>
					</g>
				</g>
			</g>
		</g>
	</g>
</g>
<path class="st2" d="M649.3,592.5H620V555c0-4.2-3.4-7.7-7.7-7.7c-4.2,0-7.7,3.4-7.7,7.7v45.2c0,4.2,3.4,7.7,7.7,7.7h37
	c4.2,0,7.7-3.4,7.7-7.7C656.9,595.9,653.5,592.5,649.3,592.5L649.3,592.5z"/>
<path class="st3" d="M696.1,516.3c-22.4-22.4-52.2-34.7-83.8-34.7c-31.7,0-61.4,12.3-83.8,34.7c-20.6,20.6-32.7,47.4-34.5,76.2
	h-17.2c-3.1,0-5.9,1.9-7.1,4.7c-1.2,2.9-0.5,6.2,1.7,8.4l41.1,41.1c1.4,1.4,3.4,2.2,5.4,2.2c2,0,4-0.8,5.4-2.2l41.1-41.1
	c2.2-2.2,2.8-5.5,1.7-8.4c-1.2-2.9-4-4.7-7.1-4.7h-16.6c3.8-35.2,33.7-62.7,70-62.7c18.8,0,36.5,7.3,49.8,20.6
	c13.3,13.3,20.6,31,20.6,49.8c0,38.8-31.6,70.4-70.4,70.4c-12.3,0-24.3-3.2-34.9-9.2c-0.1-0.1-0.2-0.1-0.3-0.2
	c-3.7-2.1-7.8-3.2-12-3.2c-8.6,0-16.6,4.6-20.9,12c-3.2,5.6-4.1,12.1-2.4,18.3c1.6,6,5.4,11.1,10.7,14.3c0.2,0.1,0.3,0.2,0.5,0.3
	c18,10.4,38.5,15.9,59.3,15.9c31.7,0,61.4-12.3,83.8-34.7c22.4-22.4,34.7-52.2,34.7-83.8C730.9,568.5,718.5,538.7,696.1,516.3
	L696.1,516.3z"/>
<path class="st3" d="M649.3,592.5H620V555c0-4.2-3.4-7.7-7.7-7.7v60.5h37c4.2,0,7.7-3.4,7.7-7.7
	C656.9,595.9,653.5,592.5,649.3,592.5L649.3,592.5z"/>
<path class="st2" d="M696.1,516.3c-22.4-22.4-52.2-34.7-83.8-34.7v48.2c18.8,0,36.5,7.3,49.8,20.6c13.3,13.3,20.6,31,20.6,49.8
	c0,38.8-31.6,70.4-70.4,70.4v48.2c31.7,0,61.4-12.3,83.8-34.7c22.4-22.4,34.7-52.2,34.7-83.8C730.9,568.5,718.5,538.7,696.1,516.3
	L696.1,516.3z"/>
</svg>
