<?xml version="1.0" encoding="utf-8"?>
<!-- Generator: Adobe Illustrator 27.0.0, SVG Export Plug-In . SVG Version: 6.00 Build 0)  -->
<svg version="1.1" id="Camada_1" xmlns="http://www.w3.org/2000/svg" xmlns:xlink="http://www.w3.org/1999/xlink" x="0px" y="0px"
	 viewBox="0 0 1200 1200" style="enable-background:new 0 0 1200 1200;" xml:space="preserve">
<style type="text/css">
	.st0{clip-path:url(#SVGID_00000050645060860838981730000002177560353066617216_);}
	.st1{clip-path:url(#SVGID_00000086665832479940421870000003153420036493073290_);}
	.st2{fill:#CCCCCC;}
	.st3{fill:#FFFFFF;}
	.st4{clip-path:url(#SVGID_00000078761380581604405490000007009429316186017982_);}
	.st5{clip-path:url(#SVGID_00000093879201306736708310000017545206155550906000_);}
	.st6{clip-path:url(#SVGID_00000134930512657237957940000003935986165639037325_);}
	.st7{clip-path:url(#SVGID_00000047761145217614848210000004795156778680279979_);}
	.st8{clip-path:url(#SVGID_00000159428860615461587060000017714552886281146757_);}
	.st9{clip-path:url(#SVGID_00000025405308489115199260000006337057765959419822_);}
	.st10{clip-path:url(#SVGID_00000159446271221218569470000000722840434743507876_);}
	.st11{clip-path:url(#SVGID_00000106846292166634525940000001393067191713984445_);}
</style>
<g>
	
		<image style="overflow:visible;opacity:0.5;" width="2050" height="2033" xlink:href="61132422.png"  transform="matrix(0.24 0 0 0.24 362.1716 322.5716)">
	</image>
	<g>
		<g>
			<defs>
				<path id="SVGID_1_" d="M846,565.1c0.1,71.5,0.4,158.3-58.7,206.8c-38.3,31.4-86.6,31-183.1,30.3c-95.2-0.7-142.7-1.1-180.2-32.5
					c-57.7-48.4-57.5-133.1-57.2-204.9c0.2-70.7,0.4-137.1,48-185.7c49.9-51,121.1-51.3,189.4-51.7c68.8-0.3,142.8-0.7,193.9,51.7
					C845.7,428,845.8,494.8,846,565.1z"/>
			</defs>
			<clipPath id="SVGID_00000006678718488438749650000015888212607055300287_">
				<use xlink:href="#SVGID_1_"  style="overflow:visible;"/>
			</clipPath>
			<g style="clip-path:url(#SVGID_00000006678718488438749650000015888212607055300287_);">
				<g>
					<defs>
						<rect id="SVGID_00000067941839781327141450000014541891580629490575_" x="361.7" y="322.3" width="489.3" height="485.1"/>
					</defs>
					<clipPath id="SVGID_00000092441720207634890770000010483285930370792861_">
						<use xlink:href="#SVGID_00000067941839781327141450000014541891580629490575_"  style="overflow:visible;"/>
					</clipPath>
					<g style="clip-path:url(#SVGID_00000092441720207634890770000010483285930370792861_);">
						<defs>
							<rect id="SVGID_00000155115187031325402680000008790194989331924415_" x="361.7" y="322.3" width="489.3" height="485.1"/>
						</defs>
						<clipPath id="SVGID_00000137815496173997968500000001399413117483563705_">
							<use xlink:href="#SVGID_00000155115187031325402680000008790194989331924415_"  style="overflow:visible;"/>
						</clipPath>
						<g style="clip-path:url(#SVGID_00000137815496173997968500000001399413117483563705_);">
							
								<image style="overflow:visible;" width="1020" height="1011" xlink:href="61132426.jpg"  transform="matrix(0.48 0 0 0.48 361.44 322.08)">
							</image>
						</g>
					</g>
				</g>
			</g>
		</g>
	</g>
</g>
<path class="st2" d="M718.5,518.5c-4.3-3.1-9.8-2.5-12.9,1.8l-73,92.6l-32.5-108c-1.2-3.7-4.3-6.1-8-6.7c-3.7-0.6-7.4,1.2-9.2,4.3
	L496.4,651c-2.5,4.3-1.2,9.8,3.1,12.9c1.2,0.6,3.1,1.2,4.9,1.2c3.1,0,6.1-1.8,8-4.3l76.1-130.1l31.9,104.3c1.2,3.1,3.7,5.5,7.4,6.1
	c3.1,0.6,6.7-0.6,9.2-3.1l84.1-106.8C723.4,527.7,722.8,521.6,718.5,518.5z"/>
<circle class="st3" cx="590.9" cy="507.5" r="35"/>
<g>
	<g>
		<defs>
			<circle id="SVGID_00000015337382854483000390000015993969809694256284_" cx="590.9" cy="507.5" r="16"/>
		</defs>
		<clipPath id="SVGID_00000057108658722680182500000007765676628960713655_">
			<use xlink:href="#SVGID_00000015337382854483000390000015993969809694256284_"  style="overflow:visible;"/>
		</clipPath>
		<g style="clip-path:url(#SVGID_00000057108658722680182500000007765676628960713655_);">
			<g>
				<defs>
					<rect id="SVGID_00000066503467988739046310000004649285839048791703_" x="569.9" y="486.5" width="41.9" height="41.9"/>
				</defs>
				<clipPath id="SVGID_00000044862571736568541810000017294179073048286643_">
					<use xlink:href="#SVGID_00000066503467988739046310000004649285839048791703_"  style="overflow:visible;"/>
				</clipPath>
				<g style="clip-path:url(#SVGID_00000044862571736568541810000017294179073048286643_);">
					<defs>
						<rect id="SVGID_00000152949497459852483480000008179672517914083971_" x="569.9" y="486.5" width="41.9" height="41.9"/>
					</defs>
					<clipPath id="SVGID_00000124870798957103135620000003714266953668935869_">
						<use xlink:href="#SVGID_00000152949497459852483480000008179672517914083971_"  style="overflow:visible;"/>
					</clipPath>
					<g style="clip-path:url(#SVGID_00000124870798957103135620000003714266953668935869_);">
						
							<image style="overflow:visible;" width="88" height="88" xlink:href="61132421.jpg"  transform="matrix(0.48 0 0 0.48 569.76 486.24)">
						</image>
					</g>
				</g>
			</g>
		</g>
	</g>
</g>
<circle class="st3" cx="628.9" cy="632.6" r="35"/>
<g>
	<g>
		<defs>
			<circle id="SVGID_00000136408173003485352880000008322056161248428959_" cx="628.9" cy="632.6" r="16"/>
		</defs>
		<clipPath id="SVGID_00000160166895391462025330000002186678117857391765_">
			<use xlink:href="#SVGID_00000136408173003485352880000008322056161248428959_"  style="overflow:visible;"/>
		</clipPath>
		<g style="clip-path:url(#SVGID_00000160166895391462025330000002186678117857391765_);">
			<g>
				<defs>
					<rect id="SVGID_00000058569615419902643030000011745186763501692816_" x="607.9" y="611.7" width="41.9" height="41.9"/>
				</defs>
				<clipPath id="SVGID_00000065063313870732250870000010841606633365277113_">
					<use xlink:href="#SVGID_00000058569615419902643030000011745186763501692816_"  style="overflow:visible;"/>
				</clipPath>
				<g style="clip-path:url(#SVGID_00000065063313870732250870000010841606633365277113_);">
					<defs>
						<rect id="SVGID_00000035528733905022012730000011864854643314511787_" x="607.9" y="611.7" width="41.9" height="41.9"/>
					</defs>
					<clipPath id="SVGID_00000020369168390094832650000014552116129237899666_">
						<use xlink:href="#SVGID_00000035528733905022012730000011864854643314511787_"  style="overflow:visible;"/>
					</clipPath>
					<g style="clip-path:url(#SVGID_00000020369168390094832650000014552116129237899666_);">
						
							<image style="overflow:visible;" width="88" height="88" xlink:href="61132422.jpg"  transform="matrix(0.48 0 0 0.48 607.68 611.52)">
						</image>
					</g>
				</g>
			</g>
		</g>
	</g>
</g>
<path class="st3" d="M713,444.3c-23.9,0-42.9,19-42.9,42.9s42.9,87.1,42.9,87.1s42.9-63.2,42.9-87.1S736.9,444.3,713,444.3z"/>
<g>
	<g>
		<defs>
			<circle id="SVGID_00000105385267012811770170000016374404538144491418_" cx="713" cy="489.5" r="23.9"/>
		</defs>
		<clipPath id="SVGID_00000150080868738830313660000015639338515969275576_">
			<use xlink:href="#SVGID_00000105385267012811770170000016374404538144491418_"  style="overflow:visible;"/>
		</clipPath>
		<g style="clip-path:url(#SVGID_00000150080868738830313660000015639338515969275576_);">
			<g>
				<defs>
					<rect id="SVGID_00000013889248730266875900000014731792086317734070_" x="684" y="460.6" width="57.9" height="57.9"/>
				</defs>
				<clipPath id="SVGID_00000081610380813079786000000012322132556609854142_">
					<use xlink:href="#SVGID_00000013889248730266875900000014731792086317734070_"  style="overflow:visible;"/>
				</clipPath>
				<g style="clip-path:url(#SVGID_00000081610380813079786000000012322132556609854142_);">
					<defs>
						<rect id="SVGID_00000079485291511875544220000006775106712622530238_" x="684" y="460.6" width="57.9" height="57.9"/>
					</defs>
					<clipPath id="SVGID_00000118367486804500927930000007329220539634286270_">
						<use xlink:href="#SVGID_00000079485291511875544220000006775106712622530238_"  style="overflow:visible;"/>
					</clipPath>
					<g style="clip-path:url(#SVGID_00000118367486804500927930000007329220539634286270_);">
						
							<image style="overflow:visible;" width="121" height="122" xlink:href="61132420.jpg"  transform="matrix(0.48 0 0 0.48 684 460.32)">
						</image>
					</g>
				</g>
			</g>
		</g>
	</g>
</g>
<g>
	<path class="st3" d="M506.7,557.6c-23.9,0-42.9,19-42.9,42.9c0,23.9,42.9,87.1,42.9,87.1s42.9-63.2,42.9-87.1
		C549.6,576.6,530.6,557.6,506.7,557.6z"/>
	<g>
		<g>
			<defs>
				<circle id="SVGID_00000178921538938757718640000014683112722215915914_" cx="506.7" cy="601.1" r="23.9"/>
			</defs>
			<clipPath id="SVGID_00000027564017116746829290000002272836473263845775_">
				<use xlink:href="#SVGID_00000178921538938757718640000014683112722215915914_"  style="overflow:visible;"/>
			</clipPath>
			<g style="clip-path:url(#SVGID_00000027564017116746829290000002272836473263845775_);">
				<g>
					<defs>
						<rect id="SVGID_00000174601341373271517840000005436644859530519427_" x="477.7" y="572.2" width="57.9" height="57.9"/>
					</defs>
					<clipPath id="SVGID_00000165209771762088072070000006788324258655885224_">
						<use xlink:href="#SVGID_00000174601341373271517840000005436644859530519427_"  style="overflow:visible;"/>
					</clipPath>
					<g style="clip-path:url(#SVGID_00000165209771762088072070000006788324258655885224_);">
						<defs>
							<rect id="SVGID_00000111177064211128576880000008375938839525763486_" x="477.7" y="572.2" width="57.9" height="57.9"/>
						</defs>
						<clipPath id="SVGID_00000011712400169803205350000000228080942270738366_">
							<use xlink:href="#SVGID_00000111177064211128576880000008375938839525763486_"  style="overflow:visible;"/>
						</clipPath>
						<g style="clip-path:url(#SVGID_00000011712400169803205350000000228080942270738366_);">
							
								<image style="overflow:visible;" width="121" height="121" xlink:href="6113242E.jpg"  transform="matrix(0.48 0 0 0.48 477.6 572.16)">
							</image>
						</g>
					</g>
				</g>
			</g>
		</g>
	</g>
</g>
</svg>
