<?xml version="1.0" encoding="utf-8"?>
<!-- Generator: Adobe Illustrator 27.0.0, SVG Export Plug-In . SVG Version: 6.00 Build 0)  -->
<svg version="1.1" id="Camada_1" xmlns="http://www.w3.org/2000/svg" xmlns:xlink="http://www.w3.org/1999/xlink" x="0px" y="0px"
	 viewBox="0 0 1200 1200" style="enable-background:new 0 0 1200 1200;" xml:space="preserve">
<style type="text/css">
	.st0{clip-path:url(#SVGID_00000060715058049554175610000001710690272107238036_);}
	.st1{clip-path:url(#SVGID_00000013152499306677362090000014487003627396548756_);}
	.st2{fill:#FFFFFF;}
	.st3{fill:#E6E6E6;}
	.st4{fill:url(#SVGID_00000104682981843509752120000017397985232518867887_);}
	.st5{fill:url(#SVGID_00000178183818264400064710000014506019601482683563_);}
	.st6{fill:url(#SVGID_00000063608548558575805930000009396663235610230664_);}
	.st7{fill:#CCCCCC;}
	.st8{clip-path:url(#SVGID_00000170242679714715682650000001858122396849098673_);}
	.st9{clip-path:url(#SVGID_00000036251305702988510660000008467283175691403707_);}
	.st10{clip-path:url(#SVGID_00000089562042985551462850000009945442970099249547_);}
	.st11{clip-path:url(#SVGID_00000168103166416689609090000012001701867057531567_);}
	.st12{clip-path:url(#SVGID_00000143604026448065513760000001081041362822467206_);}
	.st13{clip-path:url(#SVGID_00000080165582611609750140000014662872831118549123_);}
</style>
<g>
	
		<image style="overflow:visible;opacity:0.5;" width="1942" height="1925" xlink:href="EBE1061B.png"  transform="matrix(0.24 0 0 0.24 369.1316 373.4516)">
	</image>
	<g>
		<g>
			<defs>
				<path id="SVGID_1_" d="M827,603c0.1,67.6,0.4,149.7-55.5,195.6c-36.2,29.7-81.9,29.3-173.2,28.6c-90-0.7-135-1-170.4-30.7
					c-54.6-45.8-54.4-125.8-54.1-193.8c0.2-66.9,0.4-129.7,45.4-175.7c47.2-48.2,114.5-48.6,179.2-48.9c65-0.3,135-0.7,183.3,48.9
					C826.8,473.3,826.9,536.4,827,603z"/>
			</defs>
			<clipPath id="SVGID_00000079450648325899341280000012671599578410717101_">
				<use xlink:href="#SVGID_1_"  style="overflow:visible;"/>
			</clipPath>
			<g style="clip-path:url(#SVGID_00000079450648325899341280000012671599578410717101_);">
				<g>
					<defs>
						<rect id="SVGID_00000093887849824872680110000017705538783741209997_" x="368.7" y="373" width="463.3" height="459.3"/>
					</defs>
					<clipPath id="SVGID_00000014634657119430792970000000899123271802850178_">
						<use xlink:href="#SVGID_00000093887849824872680110000017705538783741209997_"  style="overflow:visible;"/>
					</clipPath>
					<g style="clip-path:url(#SVGID_00000014634657119430792970000000899123271802850178_);">
						<defs>
							<rect id="SVGID_00000149348728679119080320000018313616180053473206_" x="368.7" y="373" width="463.3" height="459.3"/>
						</defs>
						<clipPath id="SVGID_00000038399883842646326620000007005961040836281783_">
							<use xlink:href="#SVGID_00000149348728679119080320000018313616180053473206_"  style="overflow:visible;"/>
						</clipPath>
						<g style="clip-path:url(#SVGID_00000038399883842646326620000007005961040836281783_);">
							
								<image style="overflow:visible;" width="966" height="958" xlink:href="EBE10619.jpg"  transform="matrix(0.48 0 0 0.48 368.64 372.96)">
							</image>
						</g>
					</g>
				</g>
			</g>
		</g>
	</g>
</g>
<path class="st2" d="M715,695.6H485.7c-8.7,0-15.8-7.1-15.8-15.8V542.1h260.8v137.8C730.8,688.6,723.7,695.6,715,695.6z"/>
<path class="st3" d="M715.1,542.1v153.5c8.7,0,15.7-7.1,15.7-15.8V542.1H715.1z"/>
<g>
	
		<linearGradient id="SVGID_00000172404988693775592720000003440139137534295219_" gradientUnits="userSpaceOnUse" x1="492.7027" y1="617.6483" x2="523.9982" y2="617.6483">
		<stop  offset="1.385225e-07" style="stop-color:#31307C"/>
		<stop  offset="0.3492" style="stop-color:#844192"/>
	</linearGradient>
	<path style="fill:url(#SVGID_00000172404988693775592720000003440139137534295219_);" d="M522.9,591.4c-1.5-1.5-3.9-1.5-5.4,0
		l-23.7,23.7c-1.5,1.5-1.5,3.9,0,5.4l23.3,23.3c0.7,0.7,1.7,1.1,2.7,1.1c1,0,2-0.4,2.7-1.1c1.5-1.5,1.5-3.9,0-5.4l-20.6-20.6l21-21
		C524.4,595.4,524.4,592.9,522.9,591.4L522.9,591.4z"/>
	
		<linearGradient id="SVGID_00000057136365214509867300000002658653306186391453_" gradientUnits="userSpaceOnUse" x1="574.5452" y1="617.6478" x2="605.8403" y2="617.6478">
		<stop  offset="1.385225e-07" style="stop-color:#31307C"/>
		<stop  offset="0.3492" style="stop-color:#844192"/>
	</linearGradient>
	<path style="fill:url(#SVGID_00000057136365214509867300000002658653306186391453_);" d="M604.7,615.1l-23.7-23.7
		c-1.5-1.5-3.9-1.5-5.4,0c-1.5,1.5-1.5,3.9,0,5.4l21,21L576,638.4c-1.5,1.5-1.5,3.9,0,5.4c0.7,0.7,1.7,1.1,2.7,1.1
		c1,0,2-0.4,2.7-1.1l23.3-23.3C606.2,619,606.2,616.6,604.7,615.1L604.7,615.1z"/>
	
		<linearGradient id="SVGID_00000087391763780449641100000007969208589020314029_" gradientUnits="userSpaceOnUse" x1="531.4774" y1="617.6481" x2="567.0905" y2="617.6481">
		<stop  offset="1.385225e-07" style="stop-color:#31307C"/>
		<stop  offset="0.3492" style="stop-color:#844192"/>
	</linearGradient>
	<path style="fill:url(#SVGID_00000087391763780449641100000007969208589020314029_);" d="M564.6,577.2c-2-0.7-4.2,0.2-4.9,2.2
		l-28,73.7c-0.7,2,0.2,4.2,2.2,4.9c0.4,0.2,0.9,0.2,1.4,0.2c1.5,0,3-0.9,3.6-2.5l28-73.7C567.6,580.2,566.6,578,564.6,577.2
		L564.6,577.2z"/>
</g>
<path class="st7" d="M655.2,591.6h-24.7c-4.3,0-7.9-3.5-7.9-7.9c0-4.3,3.5-7.9,7.9-7.9h24.7c4.3,0,7.9,3.5,7.9,7.9
	C663.1,588.1,659.5,591.6,655.2,591.6z"/>
<path class="st7" d="M695.6,623.1h-65.1c-4.3,0-7.9-3.5-7.9-7.9c0-4.3,3.5-7.9,7.9-7.9h65.1c4.3,0,7.9,3.5,7.9,7.9
	C703.5,619.5,699.9,623.1,695.6,623.1z"/>
<path class="st7" d="M676.3,654.6h-45.7c-4.3,0-7.9-3.5-7.9-7.9c0-4.3,3.5-7.9,7.9-7.9h45.7c4.3,0,7.9,3.5,7.9,7.9
	C684.1,651,680.6,654.6,676.3,654.6z"/>
<path class="st3" d="M730.8,547.5H470v-22.1c0-8.7,7.1-15.8,15.8-15.8H715c8.7,0,15.8,7.1,15.8,15.8V547.5z"/>
<path class="st7" d="M715.1,509.7v37.8h15.7v-22.1C730.8,516.8,723.8,509.7,715.1,509.7z"/>
<g>
	<g>
		<defs>
			<circle id="SVGID_00000084527085933654604260000017090417773170700424_" cx="495.2" cy="528.9" r="7.9"/>
		</defs>
		<clipPath id="SVGID_00000080897897757062307940000005702602240758811271_">
			<use xlink:href="#SVGID_00000084527085933654604260000017090417773170700424_"  style="overflow:visible;"/>
		</clipPath>
		<g style="clip-path:url(#SVGID_00000080897897757062307940000005702602240758811271_);">
			<g>
				<defs>
					<rect id="SVGID_00000094600414429612236600000012766439416324714679_" x="482.3" y="516" width="25.7" height="25.7"/>
				</defs>
				<clipPath id="SVGID_00000101083932025704413850000018228002738896250033_">
					<use xlink:href="#SVGID_00000094600414429612236600000012766439416324714679_"  style="overflow:visible;"/>
				</clipPath>
				<g style="clip-path:url(#SVGID_00000101083932025704413850000018228002738896250033_);">
					<defs>
						<rect id="SVGID_00000005980601885868572530000003143149696054929305_" x="482.3" y="516" width="25.7" height="25.7"/>
					</defs>
					<clipPath id="SVGID_00000129902177135893044700000002204270389919794363_">
						<use xlink:href="#SVGID_00000005980601885868572530000003143149696054929305_"  style="overflow:visible;"/>
					</clipPath>
					<g style="clip-path:url(#SVGID_00000129902177135893044700000002204270389919794363_);">
						
							<image style="overflow:visible;" width="55" height="55" xlink:href="EBE1061F.jpg"  transform="matrix(0.48 0 0 0.48 481.92 515.52)">
						</image>
					</g>
				</g>
			</g>
		</g>
	</g>
</g>
<g>
	<g>
		<defs>
			<circle id="SVGID_00000098927514985548693940000002031896602500698243_" cx="525.7" cy="528.9" r="7.9"/>
		</defs>
		<clipPath id="SVGID_00000035499954764062143800000003715502964528759194_">
			<use xlink:href="#SVGID_00000098927514985548693940000002031896602500698243_"  style="overflow:visible;"/>
		</clipPath>
		<g style="clip-path:url(#SVGID_00000035499954764062143800000003715502964528759194_);">
			<g>
				<defs>
					<rect id="SVGID_00000140700681380655316980000007425633856395356317_" x="512.8" y="516" width="25.7" height="25.7"/>
				</defs>
				<clipPath id="SVGID_00000182528605277770591540000011495186017763046821_">
					<use xlink:href="#SVGID_00000140700681380655316980000007425633856395356317_"  style="overflow:visible;"/>
				</clipPath>
				<g style="clip-path:url(#SVGID_00000182528605277770591540000011495186017763046821_);">
					<defs>
						<rect id="SVGID_00000147177678885006239580000002280230742862850701_" x="512.8" y="516" width="25.7" height="25.7"/>
					</defs>
					<clipPath id="SVGID_00000027576436170610582930000002826499343797081515_">
						<use xlink:href="#SVGID_00000147177678885006239580000002280230742862850701_"  style="overflow:visible;"/>
					</clipPath>
					<g style="clip-path:url(#SVGID_00000027576436170610582930000002826499343797081515_);">
						
							<image style="overflow:visible;" width="54" height="55" xlink:href="EBE10618.jpg"  transform="matrix(0.48 0 0 0.48 512.64 515.52)">
						</image>
					</g>
				</g>
			</g>
		</g>
	</g>
</g>
<g>
	<g>
		<defs>
			<circle id="SVGID_00000078747099479651938550000003422663612284425143_" cx="556.2" cy="528.9" r="7.9"/>
		</defs>
		<clipPath id="SVGID_00000030470316507444244760000003357952624250822061_">
			<use xlink:href="#SVGID_00000078747099479651938550000003422663612284425143_"  style="overflow:visible;"/>
		</clipPath>
		<g style="clip-path:url(#SVGID_00000030470316507444244760000003357952624250822061_);">
			<g>
				<defs>
					<rect id="SVGID_00000152953962709302777070000010665108980293831848_" x="543.3" y="516" width="25.7" height="25.7"/>
				</defs>
				<clipPath id="SVGID_00000160896729483350327430000006115815354724474302_">
					<use xlink:href="#SVGID_00000152953962709302777070000010665108980293831848_"  style="overflow:visible;"/>
				</clipPath>
				<g style="clip-path:url(#SVGID_00000160896729483350327430000006115815354724474302_);">
					<defs>
						<rect id="SVGID_00000083085517758907421540000012187363776925401507_" x="543.3" y="516" width="25.7" height="25.7"/>
					</defs>
					<clipPath id="SVGID_00000097472126674279286560000011551518361739831954_">
						<use xlink:href="#SVGID_00000083085517758907421540000012187363776925401507_"  style="overflow:visible;"/>
					</clipPath>
					<g style="clip-path:url(#SVGID_00000097472126674279286560000011551518361739831954_);">
						
							<image style="overflow:visible;" width="55" height="55" xlink:href="EBE1061B.jpg"  transform="matrix(0.48 0 0 0.48 542.88 515.52)">
						</image>
					</g>
				</g>
			</g>
		</g>
	</g>
</g>
</svg>
