<?xml version="1.0" encoding="utf-8"?>
<!-- Generator: Adobe Illustrator 27.0.0, SVG Export Plug-In . SVG Version: 6.00 Build 0)  -->
<svg version="1.1" id="Camada_1" xmlns="http://www.w3.org/2000/svg" xmlns:xlink="http://www.w3.org/1999/xlink" x="0px" y="0px"
	 viewBox="0 0 1200 1200" style="enable-background:new 0 0 1200 1200;" xml:space="preserve">
<style type="text/css">
	.st0{clip-path:url(#SVGID_00000012459629751409215650000009204842916443169940_);}
	.st1{clip-path:url(#SVGID_00000108285779390206284100000012664309521442136987_);}
	.st2{fill:#FFFFFF;}
	.st3{fill:#E6E6E6;}
	.st4{fill:#CCCCCC;}
	.st5{clip-path:url(#SVGID_00000151515482044168601100000005394673014404752060_);}
	.st6{clip-path:url(#SVGID_00000114755869690237851290000011889832487007264172_);}
	.st7{clip-path:url(#SVGID_00000019671061302087077470000011025652759622050205_);}
	.st8{clip-path:url(#SVGID_00000163053160500302550830000014041696517515584928_);}
	.st9{clip-path:url(#SVGID_00000031174226247698473140000012235863262319748761_);}
	.st10{clip-path:url(#SVGID_00000005256554898806780100000004014006644349678500_);}
	.st11{clip-path:url(#SVGID_00000065785242868860578700000007885257795226415233_);}
	.st12{clip-path:url(#SVGID_00000020375170496595781290000009754218983224297640_);}
	.st13{clip-path:url(#SVGID_00000067936992854150314070000002056424619301651376_);}
	.st14{clip-path:url(#SVGID_00000122680830204666587320000001284077380241760933_);}
	.st15{clip-path:url(#SVGID_00000121249657442676547760000004702705206038141071_);}
	.st16{clip-path:url(#SVGID_00000039112984817734765160000004169295820528932232_);}
</style>
<g>
	
		<image style="overflow:visible;opacity:0.5;" width="2017" height="2000" xlink:href="1243D79E.png"  transform="matrix(0.24 0 0 0.24 349.2116 338.4116)">
	</image>
	<g>
		<g>
			<defs>
				<path id="SVGID_1_" d="M825.2,576.9c0.1,70.3,0.4,155.7-57.7,203.4c-37.7,30.9-85.2,30.5-180.1,29.8
					c-93.6-0.7-140.4-1.1-177.2-32c-56.8-47.6-56.5-130.9-56.3-201.6c0.2-69.6,0.4-134.8,47.2-182.7c49-50.1,119.1-50.5,186.3-50.8
					c67.6-0.3,140.4-0.7,190.7,50.8C824.9,442.1,825,507.8,825.2,576.9z"/>
			</defs>
			<clipPath id="SVGID_00000178918500025731508920000014667373306985388939_">
				<use xlink:href="#SVGID_1_"  style="overflow:visible;"/>
			</clipPath>
			<g style="clip-path:url(#SVGID_00000178918500025731508920000014667373306985388939_);">
				<g>
					<defs>
						<rect id="SVGID_00000085960928158594599670000003677183707132564890_" x="348.8" y="338" width="481.4" height="477.3"/>
					</defs>
					<clipPath id="SVGID_00000053524927218919405730000006091697728337879426_">
						<use xlink:href="#SVGID_00000085960928158594599670000003677183707132564890_"  style="overflow:visible;"/>
					</clipPath>
					<g style="clip-path:url(#SVGID_00000053524927218919405730000006091697728337879426_);">
						<defs>
							<rect id="SVGID_00000133506733472207001780000008505644731521840281_" x="348.8" y="338" width="481.4" height="477.3"/>
						</defs>
						<clipPath id="SVGID_00000044156913759634658870000014226234728071881382_">
							<use xlink:href="#SVGID_00000133506733472207001780000008505644731521840281_"  style="overflow:visible;"/>
						</clipPath>
						<g style="clip-path:url(#SVGID_00000044156913759634658870000014226234728071881382_);">
							
								<image style="overflow:visible;" width="1004" height="995" xlink:href="1243D7A2.jpg"  transform="matrix(0.48 0 0 0.48 348.48 337.92)">
							</image>
						</g>
					</g>
				</g>
			</g>
		</g>
	</g>
</g>
<path class="st2" d="M713.6,696.8H465.3c-6.4,0-11.5-5.2-11.5-11.5V468c0-6.4,5.2-11.5,11.5-11.5h248.3c6.4,0,11.5,5.2,11.5,11.5
	v217.2C725.2,691.6,720,696.8,713.6,696.8L713.6,696.8z"/>
<path class="st3" d="M713.6,456.5h-21c6.4,0,11.5,5.2,11.5,11.5v217.2c0,6.4-5.2,11.5-11.5,11.5h21c6.4,0,11.5-5.2,11.5-11.5V468
	C725.2,461.7,720,456.5,713.6,456.5z"/>
<path class="st3" d="M713.6,456.5H465.3c-6.4,0-11.5,5.2-11.5,11.5v37.4h271.4V468C725.2,461.7,720,456.5,713.6,456.5z"/>
<path class="st4" d="M704.1,468v37.4h21V468c0-6.4-5.2-11.5-11.5-11.5h-21C699,456.5,704.1,461.7,704.1,468z"/>
<g>
	<g>
		<defs>
			<circle id="SVGID_00000009588867009233657550000013129421882944336515_" cx="688.8" cy="481" r="9.9"/>
		</defs>
		<clipPath id="SVGID_00000015312409655481232990000011782964356021927075_">
			<use xlink:href="#SVGID_00000009588867009233657550000013129421882944336515_"  style="overflow:visible;"/>
		</clipPath>
		<g style="clip-path:url(#SVGID_00000015312409655481232990000011782964356021927075_);">
			<g>
				<defs>
					<rect id="SVGID_00000074420236761285544670000004663508115027850636_" x="673.9" y="466.1" width="29.9" height="29.9"/>
				</defs>
				<clipPath id="SVGID_00000111892166428539537220000006900122998971980434_">
					<use xlink:href="#SVGID_00000074420236761285544670000004663508115027850636_"  style="overflow:visible;"/>
				</clipPath>
				<g style="clip-path:url(#SVGID_00000111892166428539537220000006900122998971980434_);">
					<defs>
						<rect id="SVGID_00000054226274537505236650000000820223741866660781_" x="673.9" y="466.1" width="29.9" height="29.9"/>
					</defs>
					<clipPath id="SVGID_00000006694386738626893390000010992403681767377030_">
						<use xlink:href="#SVGID_00000054226274537505236650000000820223741866660781_"  style="overflow:visible;"/>
					</clipPath>
					<g style="clip-path:url(#SVGID_00000006694386738626893390000010992403681767377030_);">
						
							<image style="overflow:visible;" width="64" height="64" xlink:href="1243D7A5.jpg"  transform="matrix(0.48 0 0 0.48 673.44 465.6)">
						</image>
					</g>
				</g>
			</g>
		</g>
	</g>
</g>
<g>
	<g>
		<defs>
			<circle id="SVGID_00000163792465577623158270000002385091828687150476_" cx="648.9" cy="481" r="9.9"/>
		</defs>
		<clipPath id="SVGID_00000070797571202644615860000003226251014113703823_">
			<use xlink:href="#SVGID_00000163792465577623158270000002385091828687150476_"  style="overflow:visible;"/>
		</clipPath>
		<g style="clip-path:url(#SVGID_00000070797571202644615860000003226251014113703823_);">
			<g>
				<defs>
					<rect id="SVGID_00000160174737754635370800000007148412219547107984_" x="634" y="466.1" width="29.9" height="29.9"/>
				</defs>
				<clipPath id="SVGID_00000090279466996427745730000000673452008779461764_">
					<use xlink:href="#SVGID_00000160174737754635370800000007148412219547107984_"  style="overflow:visible;"/>
				</clipPath>
				<g style="clip-path:url(#SVGID_00000090279466996427745730000000673452008779461764_);">
					<defs>
						<rect id="SVGID_00000110460785191580415860000009330213538145139102_" x="634" y="466.1" width="29.9" height="29.9"/>
					</defs>
					<clipPath id="SVGID_00000084504678562966003670000005858267466424770480_">
						<use xlink:href="#SVGID_00000110460785191580415860000009330213538145139102_"  style="overflow:visible;"/>
					</clipPath>
					<g style="clip-path:url(#SVGID_00000084504678562966003670000005858267466424770480_);">
						
							<image style="overflow:visible;" width="64" height="64" xlink:href="1243D7A6.jpg"  transform="matrix(0.48 0 0 0.48 633.6 465.6)">
						</image>
					</g>
				</g>
			</g>
		</g>
	</g>
</g>
<path class="st2" d="M616.1,485.1H479.4c-2.3,0-4.1-1.8-4.1-4.1s1.8-4.1,4.1-4.1h136.8c2.3,0,4.1,1.8,4.1,4.1
	C620.2,483.3,618.4,485.1,616.1,485.1z"/>
<g>
	<g>
		<defs>
			<path id="SVGID_00000011723260487928548110000012756729746846079922_" d="M582.7,591.7h-3c-1.6,0-2.9-1.1-3.3-2.6
				c-1.1-4.5-2.9-8.7-5.2-12.5c-0.8-1.3-0.6-3.1,0.5-4.2l2.1-2.1c1.3-1.3,1.3-3.5,0-4.8l-7.1-7.1c-1.3-1.3-3.5-1.3-4.8,0l-2.1,2.1
				c-1.1,1.1-2.8,1.3-4.2,0.5c-3.8-2.3-8.1-4.1-12.5-5.2c-1.5-0.4-2.6-1.7-2.6-3.3v-3c0-1.9-1.5-3.4-3.4-3.4h-10
				c-1.9,0-3.4,1.5-3.4,3.4v3c0,1.6-1.1,2.9-2.6,3.3c-4.5,1.1-8.7,2.9-12.5,5.2c-1.3,0.8-3.1,0.6-4.2-0.5l-2.1-2.1
				c-1.3-1.3-3.5-1.3-4.8,0l-7.1,7.1c-1.3,1.3-1.3,3.5,0,4.8l2.1,2.1c1.1,1.1,1.3,2.8,0.5,4.2c-2.3,3.8-4.1,8.1-5.2,12.5
				c-0.4,1.5-1.7,2.6-3.3,2.6h-3c-1.9,0-3.4,1.5-3.4,3.4v10c0,1.9,1.5,3.4,3.4,3.4h3c1.6,0,2.9,1.1,3.3,2.6
				c1.1,4.5,2.9,8.7,5.2,12.5c0.8,1.3,0.6,3.1-0.5,4.2l-2.1,2.1c-1.3,1.3-1.3,3.5,0,4.8l7.1,7.1c1.3,1.3,3.5,1.3,4.8,0l2.1-2.1
				c1.1-1.1,2.8-1.3,4.2-0.5c3.8,2.3,8.1,4.1,12.5,5.2c1.5,0.4,2.6,1.7,2.6,3.3v3c0,1.9,1.5,3.4,3.4,3.4h10c1.9,0,3.4-1.5,3.4-3.4
				v-3c0-1.6,1.1-2.9,2.6-3.3c4.5-1.1,8.7-2.9,12.5-5.2c1.3-0.8,3.1-0.6,4.2,0.5l2.1,2.1c1.3,1.3,3.5,1.3,4.8,0l7.1-7.1
				c1.3-1.3,1.3-3.5,0-4.8l-2.1-2.1c-1.1-1.1-1.3-2.8-0.5-4.2c2.3-3.8,4.1-8.1,5.2-12.5c0.4-1.5,1.7-2.6,3.3-2.6h3
				c1.9,0,3.4-1.5,3.4-3.4v-10C586.1,593.3,584.5,591.7,582.7,591.7z M532.1,626c-14.3,0-25.9-11.6-25.9-25.9s11.6-25.9,25.9-25.9
				c14.3,0,25.9,11.6,25.9,25.9C558,614.4,546.4,626,532.1,626z"/>
		</defs>
		<clipPath id="SVGID_00000100347085399527620680000018367960325556456347_">
			<use xlink:href="#SVGID_00000011723260487928548110000012756729746846079922_"  style="overflow:visible;"/>
		</clipPath>
		<g style="clip-path:url(#SVGID_00000100347085399527620680000018367960325556456347_);">
			<g>
				<defs>
					<rect id="SVGID_00000023983269239108146250000003833631743483963311_" x="473.2" y="541.2" width="117.8" height="117.8"/>
				</defs>
				<clipPath id="SVGID_00000036964367733075503200000000149303682714260388_">
					<use xlink:href="#SVGID_00000023983269239108146250000003833631743483963311_"  style="overflow:visible;"/>
				</clipPath>
				<g style="clip-path:url(#SVGID_00000036964367733075503200000000149303682714260388_);">
					<defs>
						<rect id="SVGID_00000142856443157785270120000016764893105317207978_" x="473.2" y="541.2" width="117.8" height="117.8"/>
					</defs>
					<clipPath id="SVGID_00000001664400004285599050000015498935820049693833_">
						<use xlink:href="#SVGID_00000142856443157785270120000016764893105317207978_"  style="overflow:visible;"/>
					</clipPath>
					<g style="clip-path:url(#SVGID_00000001664400004285599050000015498935820049693833_);">
						
							<image style="overflow:visible;" width="247" height="247" xlink:href="1243D7A4.jpg"  transform="matrix(0.48 0 0 0.48 472.8 540.96)">
						</image>
					</g>
				</g>
			</g>
		</g>
	</g>
</g>
<g>
	<path class="st4" d="M700.7,562.4h-86.6c-2.3,0-4.1-1.8-4.1-4.1c0-2.3,1.8-4.1,4.1-4.1h86.6c2.3,0,4.1,1.8,4.1,4.1
		C704.8,560.6,703,562.4,700.7,562.4L700.7,562.4z"/>
	<path class="st4" d="M700.7,604.3h-86.6c-2.3,0-4.1-1.8-4.1-4.1c0-2.3,1.8-4.1,4.1-4.1h86.6c2.3,0,4.1,1.8,4.1,4.1
		C704.8,602.5,703,604.3,700.7,604.3L700.7,604.3z"/>
	<path class="st4" d="M700.7,646.2h-86.6c-2.3,0-4.1-1.8-4.1-4.1c0-2.3,1.8-4.1,4.1-4.1h86.6c2.3,0,4.1,1.8,4.1,4.1
		C704.8,644.4,703,646.2,700.7,646.2L700.7,646.2z"/>
</g>
<g>
	<g>
		<defs>
			<path id="SVGID_00000183954781933187288040000016244953812449618860_" d="M633.6,570c-4.4,0-8-3.6-8-8v-7.8c0-4.4,3.6-8,8-8
				s8,3.6,8,8v7.8C641.6,566.4,638,570,633.6,570z"/>
		</defs>
		<clipPath id="SVGID_00000076593421076611994450000011524674338028200375_">
			<use xlink:href="#SVGID_00000183954781933187288040000016244953812449618860_"  style="overflow:visible;"/>
		</clipPath>
		<g style="clip-path:url(#SVGID_00000076593421076611994450000011524674338028200375_);">
			<g>
				<defs>
					<rect id="SVGID_00000056425294039598180650000006380557375566358457_" x="620.6" y="541.2" width="26" height="33.8"/>
				</defs>
				<clipPath id="SVGID_00000104685097269006728400000010452069301157244349_">
					<use xlink:href="#SVGID_00000056425294039598180650000006380557375566358457_"  style="overflow:visible;"/>
				</clipPath>
				<g style="clip-path:url(#SVGID_00000104685097269006728400000010452069301157244349_);">
					<defs>
						<rect id="SVGID_00000045608560937333136420000000750061489563879591_" x="620.6" y="541.2" width="26" height="33.8"/>
					</defs>
					<clipPath id="SVGID_00000155866514388153860100000013503994603420509348_">
						<use xlink:href="#SVGID_00000045608560937333136420000000750061489563879591_"  style="overflow:visible;"/>
					</clipPath>
					<g style="clip-path:url(#SVGID_00000155866514388153860100000013503994603420509348_);">
						
							<image style="overflow:visible;" width="56" height="71" xlink:href="1243D7A3.jpg"  transform="matrix(0.48 0 0 0.48 620.16 540.96)">
						</image>
					</g>
				</g>
			</g>
		</g>
	</g>
</g>
<g>
	<g>
		<defs>
			<path id="SVGID_00000078029388942410519360000002993543466824708491_" d="M681.3,612.1c-4.4,0-8-3.6-8-8v-7.8c0-4.4,3.6-8,8-8
				s8,3.6,8,8v7.8C689.3,608.6,685.7,612.1,681.3,612.1z"/>
		</defs>
		<clipPath id="SVGID_00000108988388267288003930000003864770810958895544_">
			<use xlink:href="#SVGID_00000078029388942410519360000002993543466824708491_"  style="overflow:visible;"/>
		</clipPath>
		<g style="clip-path:url(#SVGID_00000108988388267288003930000003864770810958895544_);">
			<g>
				<defs>
					<rect id="SVGID_00000088832484541332108950000009788376320955613110_" x="668.2" y="583.3" width="26" height="33.8"/>
				</defs>
				<clipPath id="SVGID_00000120547488877359471900000004550672848901330822_">
					<use xlink:href="#SVGID_00000088832484541332108950000009788376320955613110_"  style="overflow:visible;"/>
				</clipPath>
				<g style="clip-path:url(#SVGID_00000120547488877359471900000004550672848901330822_);">
					<defs>
						<rect id="SVGID_00000022520987813064536550000007900311124695762851_" x="668.2" y="583.3" width="26" height="33.8"/>
					</defs>
					<clipPath id="SVGID_00000049217881030288634090000000920754991749789314_">
						<use xlink:href="#SVGID_00000022520987813064536550000007900311124695762851_"  style="overflow:visible;"/>
					</clipPath>
					<g style="clip-path:url(#SVGID_00000049217881030288634090000000920754991749789314_);">
						
							<image style="overflow:visible;" width="55" height="71" xlink:href="1243D7AD.jpg"  transform="matrix(0.48 0 0 0.48 668.16 583.2)">
						</image>
					</g>
				</g>
			</g>
		</g>
	</g>
</g>
<g>
	<g>
		<defs>
			<path id="SVGID_00000123432831359984938860000016062528838884706721_" d="M633.6,654c-4.4,0-8-3.6-8-8v-7.8c0-4.4,3.6-8,8-8
				s8,3.6,8,8v7.8C641.6,650.5,638,654,633.6,654z"/>
		</defs>
		<clipPath id="SVGID_00000116921285043808905210000004684293238927522689_">
			<use xlink:href="#SVGID_00000123432831359984938860000016062528838884706721_"  style="overflow:visible;"/>
		</clipPath>
		<g style="clip-path:url(#SVGID_00000116921285043808905210000004684293238927522689_);">
			<g>
				<defs>
					<rect id="SVGID_00000113351662232430153310000009774211275093289091_" x="620.6" y="625.2" width="26" height="33.8"/>
				</defs>
				<clipPath id="SVGID_00000123434859382254231100000004452513776757380232_">
					<use xlink:href="#SVGID_00000113351662232430153310000009774211275093289091_"  style="overflow:visible;"/>
				</clipPath>
				<g style="clip-path:url(#SVGID_00000123434859382254231100000004452513776757380232_);">
					<defs>
						<rect id="SVGID_00000034808320137595580720000012852254862449208709_" x="620.6" y="625.2" width="26" height="33.8"/>
					</defs>
					<clipPath id="SVGID_00000098196138798163362210000013992320332246182075_">
						<use xlink:href="#SVGID_00000034808320137595580720000012852254862449208709_"  style="overflow:visible;"/>
					</clipPath>
					<g style="clip-path:url(#SVGID_00000098196138798163362210000013992320332246182075_);">
						
							<image style="overflow:visible;" width="56" height="72" xlink:href="1243D7AE.jpg"  transform="matrix(0.48 0 0 0.48 620.16 624.96)">
						</image>
					</g>
				</g>
			</g>
		</g>
	</g>
</g>
</svg>
